M48
;GenerationSoftware,Autodesk,EAGLE,9.6.2*%
;CreationDate,2023-12-22T07:25:45Z*%
FMAT,2
ICI,OFF
METRIC,TZ,000.000
T4C0.350
T3C0.711
T2C0.800
T1C3.200
%
G90
M71
T1
X30000Y25500
T2
X29977Y9368
X29977Y13812
T3
X31905Y85500
X30635Y85500
X29365Y85500
X28095Y85500
T4
X39500Y32000
X49500Y32000
X19500Y52000
X29500Y52000
X39500Y52000
X29500Y72000
X15494Y45974
X25400Y45974
X35560Y45974
X45466Y45974
X25146Y66040
X24845Y25419
X22673Y6314
X34540Y27824
X30000Y39000
X30000Y47365
X30000Y59000
X30000Y66000
X23016Y66238
X26540Y24554
X4500Y30000
X36830Y6350
X29500Y32000
X19500Y32000
X9500Y32000
X21311Y26789
X20955Y22938
X22630Y11365
X35306Y66040
M30