G04 EAGLE Gerber RS-274X export*
G75*
%MOMM*%
%FSLAX34Y34*%
%LPD*%
%INBoard Outline*%
%IPPOS*%
%AMOC8*
5,1,8,0,0,1.08239X$1,22.5*%
G01*
%ADD10C,0.000000*%
%ADD11C,0.254000*%


D10*
X204661Y736616D02*
X262498Y802165D01*
X262656Y802347D01*
X262808Y802534D01*
X262957Y802724D01*
X263100Y802917D01*
X263239Y803114D01*
X263373Y803314D01*
X263503Y803518D01*
X263627Y803724D01*
X263746Y803933D01*
X263861Y804146D01*
X263970Y804360D01*
X264074Y804578D01*
X264172Y804798D01*
X264266Y805020D01*
X264354Y805244D01*
X264436Y805471D01*
X264513Y805699D01*
X264585Y805929D01*
X264651Y806161D01*
X264711Y806394D01*
X264766Y806629D01*
X264815Y806865D01*
X264858Y807102D01*
X264896Y807340D01*
X264927Y807579D01*
X264954Y807819D01*
X264974Y808059D01*
X264988Y808299D01*
X264997Y808540D01*
X265000Y808781D01*
X265000Y875000D01*
X265003Y875242D01*
X265012Y875483D01*
X265026Y875724D01*
X265047Y875965D01*
X265073Y876205D01*
X265105Y876445D01*
X265143Y876684D01*
X265186Y876921D01*
X265236Y877158D01*
X265291Y877393D01*
X265351Y877627D01*
X265418Y877859D01*
X265489Y878090D01*
X265567Y878319D01*
X265650Y878546D01*
X265738Y878771D01*
X265832Y878994D01*
X265931Y879214D01*
X266036Y879432D01*
X266145Y879647D01*
X266260Y879860D01*
X266380Y880070D01*
X266505Y880276D01*
X266635Y880480D01*
X266770Y880681D01*
X266910Y880878D01*
X267054Y881072D01*
X267203Y881262D01*
X267357Y881448D01*
X267515Y881631D01*
X267677Y881810D01*
X267844Y881985D01*
X268015Y882156D01*
X268190Y882323D01*
X268369Y882485D01*
X268552Y882643D01*
X268738Y882797D01*
X268928Y882946D01*
X269122Y883090D01*
X269319Y883230D01*
X269520Y883365D01*
X269724Y883495D01*
X269930Y883620D01*
X270140Y883740D01*
X270353Y883855D01*
X270568Y883964D01*
X270786Y884069D01*
X271006Y884168D01*
X271229Y884262D01*
X271454Y884350D01*
X271681Y884433D01*
X271910Y884511D01*
X272141Y884582D01*
X272373Y884649D01*
X272607Y884709D01*
X272842Y884764D01*
X273079Y884814D01*
X273316Y884857D01*
X273555Y884895D01*
X273795Y884927D01*
X274035Y884953D01*
X274276Y884974D01*
X274517Y884988D01*
X274758Y884997D01*
X275000Y885000D01*
X325000Y885000D01*
X325242Y884997D01*
X325483Y884988D01*
X325724Y884974D01*
X325965Y884953D01*
X326205Y884927D01*
X326445Y884895D01*
X326684Y884857D01*
X326921Y884814D01*
X327158Y884764D01*
X327393Y884709D01*
X327627Y884649D01*
X327859Y884582D01*
X328090Y884511D01*
X328319Y884433D01*
X328546Y884350D01*
X328771Y884262D01*
X328994Y884168D01*
X329214Y884069D01*
X329432Y883964D01*
X329647Y883855D01*
X329860Y883740D01*
X330070Y883620D01*
X330276Y883495D01*
X330480Y883365D01*
X330681Y883230D01*
X330878Y883090D01*
X331072Y882946D01*
X331262Y882797D01*
X331448Y882643D01*
X331631Y882485D01*
X331810Y882323D01*
X331985Y882156D01*
X332156Y881985D01*
X332323Y881810D01*
X332485Y881631D01*
X332643Y881448D01*
X332797Y881262D01*
X332946Y881072D01*
X333090Y880878D01*
X333230Y880681D01*
X333365Y880480D01*
X333495Y880276D01*
X333620Y880070D01*
X333740Y879860D01*
X333855Y879647D01*
X333964Y879432D01*
X334069Y879214D01*
X334168Y878994D01*
X334262Y878771D01*
X334350Y878546D01*
X334433Y878319D01*
X334511Y878090D01*
X334582Y877859D01*
X334649Y877627D01*
X334709Y877393D01*
X334764Y877158D01*
X334814Y876921D01*
X334857Y876684D01*
X334895Y876445D01*
X334927Y876205D01*
X334953Y875965D01*
X334974Y875724D01*
X334988Y875483D01*
X334997Y875242D01*
X335000Y875000D01*
X335000Y808781D01*
X335003Y808540D01*
X335012Y808299D01*
X335026Y808059D01*
X335046Y807819D01*
X335073Y807579D01*
X335104Y807340D01*
X335142Y807102D01*
X335185Y806865D01*
X335234Y806629D01*
X335289Y806394D01*
X335349Y806161D01*
X335415Y805929D01*
X335487Y805699D01*
X335564Y805471D01*
X335646Y805244D01*
X335734Y805020D01*
X335828Y804798D01*
X335926Y804578D01*
X336030Y804360D01*
X336139Y804146D01*
X336254Y803933D01*
X336373Y803724D01*
X336497Y803518D01*
X336627Y803314D01*
X336761Y803114D01*
X336900Y802917D01*
X337043Y802724D01*
X337192Y802534D01*
X337344Y802347D01*
X337502Y802165D01*
X395339Y736616D01*
X395338Y736616D02*
X395498Y736431D01*
X395652Y736243D01*
X395802Y736050D01*
X395947Y735854D01*
X396088Y735654D01*
X396223Y735452D01*
X396354Y735245D01*
X396479Y735036D01*
X396600Y734824D01*
X396715Y734609D01*
X396825Y734391D01*
X396929Y734170D01*
X397028Y733947D01*
X397122Y733722D01*
X397210Y733494D01*
X397292Y733265D01*
X397369Y733033D01*
X397440Y732800D01*
X397506Y732564D01*
X397565Y732328D01*
X397619Y732090D01*
X397667Y731851D01*
X397709Y731610D01*
X397746Y731369D01*
X397776Y731127D01*
X397801Y730884D01*
X397819Y730641D01*
X397832Y730397D01*
X397839Y730153D01*
X397840Y729909D01*
X397834Y729665D01*
X397823Y729422D01*
X397806Y729178D01*
X397783Y728935D01*
X397754Y728693D01*
X397719Y728451D01*
X397679Y728211D01*
X397632Y727971D01*
X397580Y727733D01*
X397521Y727496D01*
X397457Y727261D01*
X397388Y727027D01*
X397312Y726795D01*
X397231Y726564D01*
X397145Y726336D01*
X397053Y726110D01*
X396955Y725887D01*
X396852Y725666D01*
X396743Y725447D01*
X396630Y725231D01*
X396511Y725018D01*
X396387Y724808D01*
X396257Y724601D01*
X396123Y724397D01*
X395984Y724197D01*
X395840Y724000D01*
X395691Y723806D01*
X395538Y723617D01*
X395380Y723431D01*
X395217Y723249D01*
X395050Y723071D01*
X394879Y722897D01*
X394703Y722727D01*
X394524Y722562D01*
X394341Y722401D01*
X394153Y722245D01*
X393962Y722093D01*
X393767Y721946D01*
X393569Y721804D01*
X393367Y721666D01*
X393162Y721534D01*
X392954Y721407D01*
X392743Y721284D01*
X392529Y721167D01*
X392312Y721056D01*
X392092Y720949D01*
X391870Y720848D01*
X391646Y720753D01*
X391419Y720662D01*
X391190Y720578D01*
X390959Y720499D01*
X390727Y720426D01*
X390492Y720358D01*
X390256Y720296D01*
X390019Y720240D01*
X389780Y720190D01*
X389540Y720146D01*
X389299Y720107D01*
X389057Y720074D01*
X388815Y720048D01*
X388571Y720027D01*
X388328Y720012D01*
X388084Y720003D01*
X387840Y720000D01*
X381227Y720000D01*
X381087Y719998D01*
X380946Y719992D01*
X380806Y719982D01*
X380666Y719968D01*
X380527Y719951D01*
X380388Y719929D01*
X380250Y719904D01*
X380113Y719874D01*
X379976Y719841D01*
X379841Y719804D01*
X379706Y719763D01*
X379573Y719719D01*
X379441Y719670D01*
X379311Y719618D01*
X379182Y719563D01*
X379054Y719503D01*
X378929Y719441D01*
X378805Y719374D01*
X378683Y719304D01*
X378563Y719231D01*
X378445Y719155D01*
X378330Y719075D01*
X378216Y718992D01*
X378106Y718906D01*
X377997Y718817D01*
X377891Y718724D01*
X377788Y718629D01*
X377687Y718531D01*
X377589Y718430D01*
X377495Y718327D01*
X377403Y718221D01*
X377314Y718112D01*
X377228Y718001D01*
X377145Y717887D01*
X377065Y717772D01*
X376989Y717654D01*
X376916Y717534D01*
X376847Y717411D01*
X376781Y717287D01*
X376718Y717162D01*
X376660Y717034D01*
X376604Y716905D01*
X376552Y716774D01*
X376504Y716642D01*
X376460Y716509D01*
X376420Y716375D01*
X376383Y716239D01*
X376350Y716103D01*
X376321Y715965D01*
X376296Y715827D01*
X376275Y715688D01*
X376257Y715549D01*
X376244Y715409D01*
X376234Y715269D01*
X376229Y715128D01*
X376227Y714988D01*
X376229Y714848D01*
X376236Y714707D01*
X376246Y714567D01*
X376260Y714427D01*
X376278Y714288D01*
X376300Y714149D01*
X376326Y714011D01*
X376355Y713874D01*
X376389Y713738D01*
X376426Y713602D01*
X376468Y713468D01*
X376512Y713335D01*
X376561Y713203D01*
X376613Y713073D01*
X376669Y712944D01*
X376729Y712817D01*
X376792Y712691D01*
X376859Y712568D01*
X376929Y712446D01*
X377002Y712326D01*
X377079Y712208D01*
X377159Y712093D01*
X377242Y711980D01*
X377329Y711869D01*
X377418Y711761D01*
X377511Y711655D01*
X377510Y711655D02*
X444979Y636690D01*
X445141Y636506D01*
X445298Y636317D01*
X445450Y636126D01*
X445598Y635930D01*
X445741Y635731D01*
X445879Y635528D01*
X446012Y635323D01*
X446140Y635114D01*
X446262Y634901D01*
X446380Y634686D01*
X446492Y634469D01*
X446599Y634248D01*
X446700Y634025D01*
X446796Y633799D01*
X446886Y633572D01*
X446971Y633342D01*
X447050Y633110D01*
X447124Y632876D01*
X447191Y632640D01*
X447253Y632403D01*
X447309Y632165D01*
X447359Y631925D01*
X447403Y631684D01*
X447442Y631442D01*
X447474Y631199D01*
X447500Y630955D01*
X447521Y630711D01*
X447535Y630466D01*
X447544Y630221D01*
X447546Y629976D01*
X447542Y629731D01*
X447533Y629486D01*
X447517Y629242D01*
X447496Y628998D01*
X447468Y628754D01*
X447435Y628511D01*
X447395Y628270D01*
X447350Y628029D01*
X447299Y627789D01*
X447241Y627551D01*
X447178Y627314D01*
X447110Y627079D01*
X447035Y626845D01*
X446955Y626614D01*
X446869Y626384D01*
X446778Y626157D01*
X446681Y625932D01*
X446579Y625709D01*
X446471Y625489D01*
X446357Y625272D01*
X446239Y625057D01*
X446115Y624846D01*
X445986Y624637D01*
X445852Y624432D01*
X445713Y624230D01*
X445570Y624032D01*
X445421Y623837D01*
X445268Y623646D01*
X445110Y623458D01*
X444947Y623275D01*
X444780Y623096D01*
X444609Y622921D01*
X444433Y622750D01*
X444253Y622583D01*
X444070Y622421D01*
X443882Y622263D01*
X443690Y622110D01*
X443495Y621962D01*
X443296Y621819D01*
X443094Y621680D01*
X442889Y621547D01*
X442680Y621419D01*
X442468Y621295D01*
X442253Y621177D01*
X442036Y621065D01*
X441815Y620957D01*
X441593Y620855D01*
X441367Y620759D01*
X441140Y620668D01*
X440910Y620583D01*
X440678Y620503D01*
X440445Y620429D01*
X440209Y620361D01*
X439972Y620299D01*
X439734Y620242D01*
X439494Y620192D01*
X439253Y620147D01*
X439011Y620108D01*
X438768Y620075D01*
X438525Y620048D01*
X438281Y620027D01*
X438036Y620012D01*
X437791Y620003D01*
X437546Y620000D01*
X430675Y620000D01*
X430535Y619998D01*
X430395Y619992D01*
X430256Y619982D01*
X430117Y619969D01*
X429978Y619951D01*
X429840Y619930D01*
X429702Y619904D01*
X429566Y619875D01*
X429430Y619842D01*
X429295Y619806D01*
X429161Y619765D01*
X429028Y619721D01*
X428897Y619673D01*
X428767Y619622D01*
X428638Y619566D01*
X428511Y619508D01*
X428386Y619445D01*
X428263Y619380D01*
X428141Y619310D01*
X428022Y619238D01*
X427904Y619162D01*
X427789Y619083D01*
X427676Y619001D01*
X427565Y618915D01*
X427457Y618827D01*
X427351Y618735D01*
X427248Y618641D01*
X427147Y618543D01*
X427050Y618443D01*
X426955Y618341D01*
X426863Y618235D01*
X426774Y618128D01*
X426688Y618017D01*
X426605Y617904D01*
X426525Y617790D01*
X426449Y617672D01*
X426376Y617553D01*
X426306Y617432D01*
X426240Y617309D01*
X426177Y617184D01*
X426118Y617057D01*
X426062Y616929D01*
X426010Y616799D01*
X425961Y616668D01*
X425917Y616536D01*
X425876Y616402D01*
X425838Y616267D01*
X425805Y616131D01*
X425775Y615995D01*
X425749Y615857D01*
X425727Y615719D01*
X425709Y615581D01*
X425695Y615441D01*
X425684Y615302D01*
X425678Y615162D01*
X425675Y615023D01*
X425676Y614883D01*
X425682Y614743D01*
X425691Y614603D01*
X425704Y614464D01*
X425721Y614325D01*
X425742Y614187D01*
X425766Y614049D01*
X425795Y613913D01*
X425827Y613776D01*
X425863Y613641D01*
X425903Y613507D01*
X425947Y613374D01*
X425994Y613243D01*
X426045Y613113D01*
X426099Y612984D01*
X426158Y612857D01*
X426219Y612731D01*
X426285Y612607D01*
X426353Y612486D01*
X426425Y612366D01*
X426501Y612248D01*
X426579Y612132D01*
X426661Y612019D01*
X426746Y611908D01*
X426834Y611799D01*
X506332Y516402D01*
X506486Y516213D01*
X506635Y516020D01*
X506779Y515824D01*
X506919Y515624D01*
X507053Y515421D01*
X507183Y515215D01*
X507307Y515005D01*
X507427Y514793D01*
X507541Y514578D01*
X507650Y514360D01*
X507753Y514139D01*
X507851Y513916D01*
X507944Y513691D01*
X508031Y513464D01*
X508113Y513234D01*
X508189Y513003D01*
X508259Y512769D01*
X508323Y512535D01*
X508382Y512298D01*
X508435Y512060D01*
X508483Y511821D01*
X508524Y511581D01*
X508560Y511340D01*
X508589Y511099D01*
X508613Y510856D01*
X508631Y510613D01*
X508643Y510370D01*
X508649Y510126D01*
X508649Y509883D01*
X508643Y509639D01*
X508632Y509396D01*
X508614Y509153D01*
X508590Y508911D01*
X508561Y508669D01*
X508526Y508428D01*
X508484Y508188D01*
X508437Y507949D01*
X508384Y507711D01*
X508326Y507474D01*
X508261Y507239D01*
X508191Y507006D01*
X508116Y506775D01*
X508034Y506545D01*
X507947Y506318D01*
X507855Y506092D01*
X507757Y505869D01*
X507654Y505648D01*
X507545Y505430D01*
X507431Y505215D01*
X507312Y505003D01*
X507188Y504793D01*
X507058Y504587D01*
X506924Y504384D01*
X506785Y504184D01*
X506640Y503987D01*
X506492Y503794D01*
X506338Y503605D01*
X506180Y503420D01*
X506018Y503238D01*
X505851Y503061D01*
X505680Y502888D01*
X505504Y502719D01*
X505325Y502554D01*
X505141Y502393D01*
X504954Y502237D01*
X504763Y502086D01*
X504569Y501940D01*
X504371Y501798D01*
X504169Y501661D01*
X503964Y501529D01*
X503756Y501402D01*
X503546Y501280D01*
X503332Y501164D01*
X503115Y501052D01*
X502896Y500946D01*
X502674Y500845D01*
X502450Y500750D01*
X502223Y500660D01*
X501995Y500576D01*
X501764Y500497D01*
X501532Y500424D01*
X501298Y500357D01*
X501062Y500295D01*
X500825Y500239D01*
X500587Y500189D01*
X500347Y500145D01*
X500106Y500107D01*
X499865Y500074D01*
X499623Y500047D01*
X499380Y500027D01*
X499137Y500012D01*
X498894Y500003D01*
X498650Y500000D01*
X490675Y500000D01*
X490535Y499998D01*
X490395Y499992D01*
X490256Y499982D01*
X490117Y499969D01*
X489978Y499951D01*
X489840Y499930D01*
X489702Y499904D01*
X489566Y499875D01*
X489430Y499842D01*
X489295Y499806D01*
X489161Y499765D01*
X489028Y499721D01*
X488897Y499673D01*
X488767Y499622D01*
X488638Y499566D01*
X488511Y499508D01*
X488386Y499445D01*
X488263Y499380D01*
X488141Y499310D01*
X488022Y499238D01*
X487904Y499162D01*
X487789Y499083D01*
X487676Y499001D01*
X487565Y498915D01*
X487457Y498827D01*
X487351Y498735D01*
X487248Y498641D01*
X487147Y498543D01*
X487050Y498443D01*
X486955Y498341D01*
X486863Y498235D01*
X486774Y498128D01*
X486688Y498017D01*
X486605Y497904D01*
X486525Y497790D01*
X486449Y497672D01*
X486376Y497553D01*
X486306Y497432D01*
X486240Y497309D01*
X486177Y497184D01*
X486118Y497057D01*
X486062Y496929D01*
X486010Y496799D01*
X485961Y496668D01*
X485917Y496536D01*
X485876Y496402D01*
X485838Y496267D01*
X485805Y496131D01*
X485775Y495995D01*
X485749Y495857D01*
X485727Y495719D01*
X485709Y495581D01*
X485695Y495441D01*
X485684Y495302D01*
X485678Y495162D01*
X485675Y495023D01*
X485676Y494883D01*
X485682Y494743D01*
X485691Y494603D01*
X485704Y494464D01*
X485721Y494325D01*
X485742Y494187D01*
X485766Y494049D01*
X485795Y493913D01*
X485827Y493776D01*
X485863Y493641D01*
X485903Y493507D01*
X485947Y493374D01*
X485994Y493243D01*
X486045Y493113D01*
X486099Y492984D01*
X486158Y492857D01*
X486219Y492731D01*
X486285Y492607D01*
X486353Y492486D01*
X486425Y492366D01*
X486501Y492248D01*
X486579Y492132D01*
X486661Y492019D01*
X486746Y491908D01*
X486834Y491799D01*
X566332Y396402D01*
X566486Y396213D01*
X566635Y396020D01*
X566779Y395824D01*
X566919Y395624D01*
X567053Y395421D01*
X567183Y395215D01*
X567307Y395005D01*
X567427Y394793D01*
X567541Y394578D01*
X567650Y394360D01*
X567753Y394139D01*
X567851Y393916D01*
X567944Y393691D01*
X568031Y393464D01*
X568113Y393234D01*
X568189Y393003D01*
X568259Y392769D01*
X568323Y392535D01*
X568382Y392298D01*
X568435Y392060D01*
X568483Y391821D01*
X568524Y391581D01*
X568560Y391340D01*
X568589Y391099D01*
X568613Y390856D01*
X568631Y390613D01*
X568643Y390370D01*
X568649Y390126D01*
X568649Y389883D01*
X568643Y389639D01*
X568632Y389396D01*
X568614Y389153D01*
X568590Y388911D01*
X568561Y388669D01*
X568526Y388428D01*
X568484Y388188D01*
X568437Y387949D01*
X568384Y387711D01*
X568326Y387474D01*
X568261Y387239D01*
X568191Y387006D01*
X568116Y386775D01*
X568034Y386545D01*
X567947Y386318D01*
X567855Y386092D01*
X567757Y385869D01*
X567654Y385648D01*
X567545Y385430D01*
X567431Y385215D01*
X567312Y385003D01*
X567188Y384793D01*
X567058Y384587D01*
X566924Y384384D01*
X566785Y384184D01*
X566640Y383987D01*
X566492Y383794D01*
X566338Y383605D01*
X566180Y383420D01*
X566018Y383238D01*
X565851Y383061D01*
X565680Y382888D01*
X565504Y382719D01*
X565325Y382554D01*
X565141Y382393D01*
X564954Y382237D01*
X564763Y382086D01*
X564569Y381940D01*
X564371Y381798D01*
X564169Y381661D01*
X563964Y381529D01*
X563756Y381402D01*
X563546Y381280D01*
X563332Y381164D01*
X563115Y381052D01*
X562896Y380946D01*
X562674Y380845D01*
X562450Y380750D01*
X562223Y380660D01*
X561995Y380576D01*
X561764Y380497D01*
X561532Y380424D01*
X561298Y380357D01*
X561062Y380295D01*
X560825Y380239D01*
X560587Y380189D01*
X560347Y380145D01*
X560106Y380107D01*
X559865Y380074D01*
X559623Y380047D01*
X559380Y380027D01*
X559137Y380012D01*
X558894Y380003D01*
X558650Y380000D01*
X550675Y380000D01*
X550535Y379998D01*
X550395Y379992D01*
X550256Y379982D01*
X550117Y379969D01*
X549978Y379951D01*
X549840Y379930D01*
X549702Y379904D01*
X549566Y379875D01*
X549430Y379842D01*
X549295Y379806D01*
X549161Y379765D01*
X549028Y379721D01*
X548897Y379673D01*
X548767Y379622D01*
X548638Y379566D01*
X548511Y379508D01*
X548386Y379445D01*
X548263Y379380D01*
X548141Y379310D01*
X548022Y379238D01*
X547904Y379162D01*
X547789Y379083D01*
X547676Y379001D01*
X547565Y378915D01*
X547457Y378827D01*
X547351Y378735D01*
X547248Y378641D01*
X547147Y378543D01*
X547050Y378443D01*
X546955Y378341D01*
X546863Y378235D01*
X546774Y378128D01*
X546688Y378017D01*
X546605Y377904D01*
X546525Y377790D01*
X546449Y377672D01*
X546376Y377553D01*
X546306Y377432D01*
X546240Y377309D01*
X546177Y377184D01*
X546118Y377057D01*
X546062Y376929D01*
X546010Y376799D01*
X545961Y376668D01*
X545917Y376536D01*
X545876Y376402D01*
X545838Y376267D01*
X545805Y376131D01*
X545775Y375995D01*
X545749Y375857D01*
X545727Y375719D01*
X545709Y375581D01*
X545695Y375441D01*
X545684Y375302D01*
X545678Y375162D01*
X545675Y375023D01*
X545676Y374883D01*
X545682Y374743D01*
X545691Y374603D01*
X545704Y374464D01*
X545721Y374325D01*
X545742Y374187D01*
X545766Y374049D01*
X545795Y373913D01*
X545827Y373776D01*
X545863Y373641D01*
X545903Y373507D01*
X545947Y373374D01*
X545994Y373243D01*
X546045Y373113D01*
X546099Y372984D01*
X546158Y372857D01*
X546219Y372731D01*
X546285Y372607D01*
X546353Y372486D01*
X546425Y372366D01*
X546501Y372248D01*
X546579Y372132D01*
X546661Y372019D01*
X546746Y371908D01*
X546834Y371799D01*
X626332Y276402D01*
X626486Y276213D01*
X626635Y276020D01*
X626779Y275824D01*
X626919Y275624D01*
X627053Y275421D01*
X627183Y275215D01*
X627307Y275005D01*
X627427Y274793D01*
X627541Y274578D01*
X627650Y274360D01*
X627753Y274139D01*
X627851Y273916D01*
X627944Y273691D01*
X628031Y273464D01*
X628113Y273234D01*
X628189Y273003D01*
X628259Y272769D01*
X628323Y272535D01*
X628382Y272298D01*
X628435Y272060D01*
X628483Y271821D01*
X628524Y271581D01*
X628560Y271340D01*
X628589Y271099D01*
X628613Y270856D01*
X628631Y270613D01*
X628643Y270370D01*
X628649Y270126D01*
X628649Y269883D01*
X628643Y269639D01*
X628632Y269396D01*
X628614Y269153D01*
X628590Y268911D01*
X628561Y268669D01*
X628526Y268428D01*
X628484Y268188D01*
X628437Y267949D01*
X628384Y267711D01*
X628326Y267474D01*
X628261Y267239D01*
X628191Y267006D01*
X628116Y266775D01*
X628034Y266545D01*
X627947Y266318D01*
X627855Y266092D01*
X627757Y265869D01*
X627654Y265648D01*
X627545Y265430D01*
X627431Y265215D01*
X627312Y265003D01*
X627188Y264793D01*
X627058Y264587D01*
X626924Y264384D01*
X626785Y264184D01*
X626640Y263987D01*
X626492Y263794D01*
X626338Y263605D01*
X626180Y263420D01*
X626018Y263238D01*
X625851Y263061D01*
X625680Y262888D01*
X625504Y262719D01*
X625325Y262554D01*
X625141Y262393D01*
X624954Y262237D01*
X624763Y262086D01*
X624569Y261940D01*
X624371Y261798D01*
X624169Y261661D01*
X623964Y261529D01*
X623756Y261402D01*
X623546Y261280D01*
X623332Y261164D01*
X623115Y261052D01*
X622896Y260946D01*
X622674Y260845D01*
X622450Y260750D01*
X622223Y260660D01*
X621995Y260576D01*
X621764Y260497D01*
X621532Y260424D01*
X621298Y260357D01*
X621062Y260295D01*
X620825Y260239D01*
X620587Y260189D01*
X620347Y260145D01*
X620106Y260107D01*
X619865Y260074D01*
X619623Y260047D01*
X619380Y260027D01*
X619137Y260012D01*
X618894Y260003D01*
X618650Y260000D01*
X415000Y260000D01*
X414860Y259998D01*
X414720Y259992D01*
X414580Y259982D01*
X414440Y259969D01*
X414301Y259951D01*
X414162Y259929D01*
X414025Y259904D01*
X413887Y259875D01*
X413751Y259842D01*
X413616Y259805D01*
X413482Y259764D01*
X413349Y259719D01*
X413217Y259671D01*
X413087Y259619D01*
X412958Y259564D01*
X412831Y259505D01*
X412705Y259442D01*
X412581Y259376D01*
X412460Y259307D01*
X412340Y259234D01*
X412222Y259157D01*
X412107Y259078D01*
X411993Y258995D01*
X411883Y258909D01*
X411774Y258820D01*
X411668Y258728D01*
X411565Y258633D01*
X411464Y258536D01*
X411367Y258435D01*
X411272Y258332D01*
X411180Y258226D01*
X411091Y258117D01*
X411005Y258007D01*
X410922Y257893D01*
X410843Y257778D01*
X410766Y257660D01*
X410693Y257540D01*
X410624Y257419D01*
X410558Y257295D01*
X410495Y257169D01*
X410436Y257042D01*
X410381Y256913D01*
X410329Y256783D01*
X410281Y256651D01*
X410236Y256518D01*
X410195Y256384D01*
X410158Y256249D01*
X410125Y256113D01*
X410096Y255975D01*
X410071Y255838D01*
X410049Y255699D01*
X410031Y255560D01*
X410018Y255420D01*
X410008Y255280D01*
X410002Y255140D01*
X410000Y255000D01*
X410000Y20000D01*
X409994Y19517D01*
X409977Y19034D01*
X409947Y18551D01*
X409907Y18070D01*
X409854Y17589D01*
X409790Y17110D01*
X409715Y16633D01*
X409627Y16157D01*
X409529Y15684D01*
X409419Y15214D01*
X409298Y14746D01*
X409165Y14281D01*
X409021Y13820D01*
X408866Y13362D01*
X408700Y12908D01*
X408523Y12458D01*
X408336Y12013D01*
X408137Y11572D01*
X407929Y11136D01*
X407709Y10706D01*
X407479Y10280D01*
X407239Y9861D01*
X406989Y9447D01*
X406729Y9040D01*
X406460Y8639D01*
X406180Y8244D01*
X405892Y7857D01*
X405593Y7476D01*
X405286Y7103D01*
X404970Y6738D01*
X404645Y6380D01*
X404312Y6030D01*
X403970Y5688D01*
X403620Y5355D01*
X403262Y5030D01*
X402897Y4714D01*
X402524Y4407D01*
X402143Y4108D01*
X401756Y3820D01*
X401361Y3540D01*
X400960Y3271D01*
X400553Y3011D01*
X400139Y2761D01*
X399720Y2521D01*
X399294Y2291D01*
X398864Y2071D01*
X398428Y1863D01*
X397987Y1664D01*
X397542Y1477D01*
X397092Y1300D01*
X396638Y1134D01*
X396180Y979D01*
X395719Y835D01*
X395254Y702D01*
X394786Y581D01*
X394316Y471D01*
X393843Y373D01*
X393367Y285D01*
X392890Y210D01*
X392411Y146D01*
X391930Y93D01*
X391449Y53D01*
X390966Y23D01*
X390483Y6D01*
X390000Y0D01*
X210000Y0D01*
X209517Y6D01*
X209034Y23D01*
X208551Y53D01*
X208070Y93D01*
X207589Y146D01*
X207110Y210D01*
X206633Y285D01*
X206157Y373D01*
X205684Y471D01*
X205214Y581D01*
X204746Y702D01*
X204281Y835D01*
X203820Y979D01*
X203362Y1134D01*
X202908Y1300D01*
X202458Y1477D01*
X202013Y1664D01*
X201572Y1863D01*
X201136Y2071D01*
X200706Y2291D01*
X200280Y2521D01*
X199861Y2761D01*
X199447Y3011D01*
X199040Y3271D01*
X198639Y3540D01*
X198244Y3820D01*
X197857Y4108D01*
X197476Y4407D01*
X197103Y4714D01*
X196738Y5030D01*
X196380Y5355D01*
X196030Y5688D01*
X195688Y6030D01*
X195355Y6380D01*
X195030Y6738D01*
X194714Y7103D01*
X194407Y7476D01*
X194108Y7857D01*
X193820Y8244D01*
X193540Y8639D01*
X193271Y9040D01*
X193011Y9447D01*
X192761Y9861D01*
X192521Y10280D01*
X192291Y10706D01*
X192071Y11136D01*
X191863Y11572D01*
X191664Y12013D01*
X191477Y12458D01*
X191300Y12908D01*
X191134Y13362D01*
X190979Y13820D01*
X190835Y14281D01*
X190702Y14746D01*
X190581Y15214D01*
X190471Y15684D01*
X190373Y16157D01*
X190285Y16633D01*
X190210Y17110D01*
X190146Y17589D01*
X190093Y18070D01*
X190053Y18551D01*
X190023Y19034D01*
X190006Y19517D01*
X190000Y20000D01*
X190000Y255000D01*
X189998Y255140D01*
X189992Y255280D01*
X189982Y255420D01*
X189969Y255560D01*
X189951Y255699D01*
X189929Y255838D01*
X189904Y255975D01*
X189875Y256113D01*
X189842Y256249D01*
X189805Y256384D01*
X189764Y256518D01*
X189719Y256651D01*
X189671Y256783D01*
X189619Y256913D01*
X189564Y257042D01*
X189505Y257169D01*
X189442Y257295D01*
X189376Y257419D01*
X189307Y257540D01*
X189234Y257660D01*
X189157Y257778D01*
X189078Y257893D01*
X188995Y258007D01*
X188909Y258117D01*
X188820Y258226D01*
X188728Y258332D01*
X188633Y258435D01*
X188536Y258536D01*
X188435Y258633D01*
X188332Y258728D01*
X188226Y258820D01*
X188117Y258909D01*
X188007Y258995D01*
X187893Y259078D01*
X187778Y259157D01*
X187660Y259234D01*
X187540Y259307D01*
X187419Y259376D01*
X187295Y259442D01*
X187169Y259505D01*
X187042Y259564D01*
X186913Y259619D01*
X186783Y259671D01*
X186651Y259719D01*
X186518Y259764D01*
X186384Y259805D01*
X186249Y259842D01*
X186113Y259875D01*
X185975Y259904D01*
X185838Y259929D01*
X185699Y259951D01*
X185560Y259969D01*
X185420Y259982D01*
X185280Y259992D01*
X185140Y259998D01*
X185000Y260000D01*
X-18650Y260000D01*
X-18894Y260003D01*
X-19137Y260012D01*
X-19380Y260027D01*
X-19623Y260047D01*
X-19865Y260074D01*
X-20106Y260107D01*
X-20347Y260145D01*
X-20587Y260189D01*
X-20825Y260239D01*
X-21062Y260295D01*
X-21298Y260357D01*
X-21532Y260424D01*
X-21764Y260497D01*
X-21995Y260576D01*
X-22223Y260660D01*
X-22450Y260750D01*
X-22674Y260845D01*
X-22896Y260946D01*
X-23115Y261052D01*
X-23332Y261164D01*
X-23545Y261280D01*
X-23756Y261402D01*
X-23964Y261529D01*
X-24169Y261661D01*
X-24371Y261798D01*
X-24569Y261940D01*
X-24763Y262086D01*
X-24954Y262237D01*
X-25141Y262393D01*
X-25325Y262554D01*
X-25504Y262719D01*
X-25680Y262888D01*
X-25851Y263061D01*
X-26018Y263238D01*
X-26180Y263420D01*
X-26338Y263605D01*
X-26492Y263794D01*
X-26640Y263987D01*
X-26785Y264184D01*
X-26924Y264384D01*
X-27058Y264587D01*
X-27188Y264793D01*
X-27312Y265003D01*
X-27431Y265215D01*
X-27545Y265430D01*
X-27654Y265648D01*
X-27757Y265869D01*
X-27855Y266092D01*
X-27947Y266318D01*
X-28034Y266545D01*
X-28116Y266775D01*
X-28191Y267006D01*
X-28261Y267239D01*
X-28326Y267474D01*
X-28384Y267711D01*
X-28437Y267949D01*
X-28484Y268188D01*
X-28526Y268428D01*
X-28561Y268669D01*
X-28590Y268911D01*
X-28614Y269153D01*
X-28632Y269396D01*
X-28643Y269639D01*
X-28649Y269883D01*
X-28649Y270126D01*
X-28643Y270370D01*
X-28631Y270613D01*
X-28613Y270856D01*
X-28589Y271099D01*
X-28560Y271340D01*
X-28524Y271581D01*
X-28483Y271821D01*
X-28435Y272060D01*
X-28382Y272298D01*
X-28323Y272535D01*
X-28259Y272769D01*
X-28189Y273003D01*
X-28113Y273234D01*
X-28031Y273464D01*
X-27944Y273691D01*
X-27851Y273916D01*
X-27753Y274139D01*
X-27650Y274360D01*
X-27541Y274578D01*
X-27427Y274793D01*
X-27307Y275005D01*
X-27183Y275215D01*
X-27053Y275421D01*
X-26919Y275624D01*
X-26779Y275824D01*
X-26635Y276020D01*
X-26486Y276213D01*
X-26332Y276402D01*
X53166Y371799D01*
X53254Y371908D01*
X53339Y372019D01*
X53421Y372132D01*
X53499Y372248D01*
X53575Y372366D01*
X53647Y372486D01*
X53715Y372607D01*
X53781Y372731D01*
X53842Y372857D01*
X53900Y372984D01*
X53955Y373113D01*
X54006Y373243D01*
X54053Y373374D01*
X54097Y373507D01*
X54137Y373641D01*
X54173Y373776D01*
X54205Y373912D01*
X54234Y374049D01*
X54258Y374187D01*
X54279Y374325D01*
X54296Y374464D01*
X54309Y374603D01*
X54318Y374743D01*
X54324Y374883D01*
X54325Y375023D01*
X54322Y375162D01*
X54316Y375302D01*
X54305Y375441D01*
X54291Y375581D01*
X54273Y375719D01*
X54251Y375857D01*
X54225Y375995D01*
X54195Y376131D01*
X54162Y376267D01*
X54124Y376402D01*
X54083Y376536D01*
X54039Y376668D01*
X53990Y376799D01*
X53938Y376929D01*
X53882Y377057D01*
X53823Y377184D01*
X53760Y377309D01*
X53694Y377432D01*
X53624Y377553D01*
X53551Y377672D01*
X53475Y377790D01*
X53395Y377905D01*
X53312Y378017D01*
X53226Y378128D01*
X53137Y378235D01*
X53045Y378341D01*
X52950Y378443D01*
X52853Y378543D01*
X52752Y378641D01*
X52649Y378735D01*
X52543Y378827D01*
X52435Y378915D01*
X52324Y379001D01*
X52211Y379083D01*
X52096Y379162D01*
X51978Y379238D01*
X51859Y379310D01*
X51737Y379380D01*
X51614Y379445D01*
X51489Y379508D01*
X51362Y379566D01*
X51233Y379622D01*
X51103Y379673D01*
X50972Y379721D01*
X50839Y379765D01*
X50705Y379806D01*
X50570Y379842D01*
X50434Y379875D01*
X50298Y379904D01*
X50160Y379930D01*
X50022Y379951D01*
X49883Y379969D01*
X49744Y379982D01*
X49605Y379992D01*
X49465Y379998D01*
X49325Y380000D01*
X41350Y380000D01*
X41106Y380003D01*
X40863Y380012D01*
X40620Y380027D01*
X40377Y380047D01*
X40135Y380074D01*
X39894Y380107D01*
X39653Y380145D01*
X39413Y380189D01*
X39175Y380239D01*
X38938Y380295D01*
X38702Y380357D01*
X38468Y380424D01*
X38236Y380497D01*
X38005Y380576D01*
X37777Y380660D01*
X37550Y380750D01*
X37326Y380845D01*
X37104Y380946D01*
X36885Y381052D01*
X36668Y381164D01*
X36455Y381280D01*
X36244Y381402D01*
X36036Y381529D01*
X35831Y381661D01*
X35629Y381798D01*
X35431Y381940D01*
X35237Y382086D01*
X35046Y382237D01*
X34859Y382393D01*
X34675Y382554D01*
X34496Y382719D01*
X34320Y382888D01*
X34149Y383061D01*
X33982Y383238D01*
X33820Y383420D01*
X33662Y383605D01*
X33508Y383794D01*
X33360Y383987D01*
X33215Y384184D01*
X33076Y384384D01*
X32942Y384587D01*
X32812Y384793D01*
X32688Y385003D01*
X32569Y385215D01*
X32455Y385430D01*
X32346Y385648D01*
X32243Y385869D01*
X32145Y386092D01*
X32053Y386318D01*
X31966Y386545D01*
X31884Y386775D01*
X31809Y387006D01*
X31739Y387239D01*
X31674Y387474D01*
X31616Y387711D01*
X31563Y387949D01*
X31516Y388188D01*
X31474Y388428D01*
X31439Y388669D01*
X31410Y388911D01*
X31386Y389153D01*
X31368Y389396D01*
X31357Y389639D01*
X31351Y389883D01*
X31351Y390126D01*
X31357Y390370D01*
X31369Y390613D01*
X31387Y390856D01*
X31411Y391099D01*
X31440Y391340D01*
X31476Y391581D01*
X31517Y391821D01*
X31565Y392060D01*
X31618Y392298D01*
X31677Y392535D01*
X31741Y392769D01*
X31811Y393003D01*
X31887Y393234D01*
X31969Y393464D01*
X32056Y393691D01*
X32149Y393916D01*
X32247Y394139D01*
X32350Y394360D01*
X32459Y394578D01*
X32573Y394793D01*
X32693Y395005D01*
X32817Y395215D01*
X32947Y395421D01*
X33081Y395624D01*
X33221Y395824D01*
X33365Y396020D01*
X33514Y396213D01*
X33668Y396402D01*
X113166Y491799D01*
X113254Y491908D01*
X113339Y492019D01*
X113421Y492132D01*
X113499Y492248D01*
X113575Y492366D01*
X113647Y492486D01*
X113715Y492607D01*
X113781Y492731D01*
X113842Y492857D01*
X113900Y492984D01*
X113955Y493113D01*
X114006Y493243D01*
X114053Y493374D01*
X114097Y493507D01*
X114137Y493641D01*
X114173Y493776D01*
X114205Y493912D01*
X114234Y494049D01*
X114258Y494187D01*
X114279Y494325D01*
X114296Y494464D01*
X114309Y494603D01*
X114318Y494743D01*
X114324Y494883D01*
X114325Y495023D01*
X114322Y495162D01*
X114316Y495302D01*
X114305Y495441D01*
X114291Y495581D01*
X114273Y495719D01*
X114251Y495857D01*
X114225Y495995D01*
X114195Y496131D01*
X114162Y496267D01*
X114124Y496402D01*
X114083Y496536D01*
X114039Y496668D01*
X113990Y496799D01*
X113938Y496929D01*
X113882Y497057D01*
X113823Y497184D01*
X113760Y497309D01*
X113694Y497432D01*
X113624Y497553D01*
X113551Y497672D01*
X113475Y497790D01*
X113395Y497905D01*
X113312Y498017D01*
X113226Y498128D01*
X113137Y498235D01*
X113045Y498341D01*
X112950Y498443D01*
X112853Y498543D01*
X112752Y498641D01*
X112649Y498735D01*
X112543Y498827D01*
X112435Y498915D01*
X112324Y499001D01*
X112211Y499083D01*
X112096Y499162D01*
X111978Y499238D01*
X111859Y499310D01*
X111737Y499380D01*
X111614Y499445D01*
X111489Y499508D01*
X111362Y499566D01*
X111233Y499622D01*
X111103Y499673D01*
X110972Y499721D01*
X110839Y499765D01*
X110705Y499806D01*
X110570Y499842D01*
X110434Y499875D01*
X110298Y499904D01*
X110160Y499930D01*
X110022Y499951D01*
X109883Y499969D01*
X109744Y499982D01*
X109605Y499992D01*
X109465Y499998D01*
X109325Y500000D01*
X101350Y500000D01*
X101106Y500003D01*
X100863Y500012D01*
X100620Y500027D01*
X100377Y500047D01*
X100135Y500074D01*
X99894Y500107D01*
X99653Y500145D01*
X99413Y500189D01*
X99175Y500239D01*
X98938Y500295D01*
X98702Y500357D01*
X98468Y500424D01*
X98236Y500497D01*
X98005Y500576D01*
X97777Y500660D01*
X97550Y500750D01*
X97326Y500845D01*
X97104Y500946D01*
X96885Y501052D01*
X96668Y501164D01*
X96455Y501280D01*
X96244Y501402D01*
X96036Y501529D01*
X95831Y501661D01*
X95629Y501798D01*
X95431Y501940D01*
X95237Y502086D01*
X95046Y502237D01*
X94859Y502393D01*
X94675Y502554D01*
X94496Y502719D01*
X94320Y502888D01*
X94149Y503061D01*
X93982Y503238D01*
X93820Y503420D01*
X93662Y503605D01*
X93508Y503794D01*
X93360Y503987D01*
X93215Y504184D01*
X93076Y504384D01*
X92942Y504587D01*
X92812Y504793D01*
X92688Y505003D01*
X92569Y505215D01*
X92455Y505430D01*
X92346Y505648D01*
X92243Y505869D01*
X92145Y506092D01*
X92053Y506318D01*
X91966Y506545D01*
X91884Y506775D01*
X91809Y507006D01*
X91739Y507239D01*
X91674Y507474D01*
X91616Y507711D01*
X91563Y507949D01*
X91516Y508188D01*
X91474Y508428D01*
X91439Y508669D01*
X91410Y508911D01*
X91386Y509153D01*
X91368Y509396D01*
X91357Y509639D01*
X91351Y509883D01*
X91351Y510126D01*
X91357Y510370D01*
X91369Y510613D01*
X91387Y510856D01*
X91411Y511099D01*
X91440Y511340D01*
X91476Y511581D01*
X91517Y511821D01*
X91565Y512060D01*
X91618Y512298D01*
X91677Y512535D01*
X91741Y512769D01*
X91811Y513003D01*
X91887Y513234D01*
X91969Y513464D01*
X92056Y513691D01*
X92149Y513916D01*
X92247Y514139D01*
X92350Y514360D01*
X92459Y514578D01*
X92573Y514793D01*
X92693Y515005D01*
X92817Y515215D01*
X92947Y515421D01*
X93081Y515624D01*
X93221Y515824D01*
X93365Y516020D01*
X93514Y516213D01*
X93668Y516402D01*
X173166Y611799D01*
X173254Y611908D01*
X173339Y612019D01*
X173421Y612132D01*
X173499Y612248D01*
X173575Y612366D01*
X173647Y612486D01*
X173715Y612607D01*
X173781Y612731D01*
X173842Y612857D01*
X173900Y612984D01*
X173955Y613113D01*
X174006Y613243D01*
X174053Y613374D01*
X174097Y613507D01*
X174137Y613641D01*
X174173Y613776D01*
X174205Y613912D01*
X174234Y614049D01*
X174258Y614187D01*
X174279Y614325D01*
X174296Y614464D01*
X174309Y614603D01*
X174318Y614743D01*
X174324Y614883D01*
X174325Y615023D01*
X174322Y615162D01*
X174316Y615302D01*
X174305Y615441D01*
X174291Y615581D01*
X174273Y615719D01*
X174251Y615857D01*
X174225Y615995D01*
X174195Y616131D01*
X174162Y616267D01*
X174124Y616402D01*
X174083Y616536D01*
X174039Y616668D01*
X173990Y616799D01*
X173938Y616929D01*
X173882Y617057D01*
X173823Y617184D01*
X173760Y617309D01*
X173694Y617432D01*
X173624Y617553D01*
X173551Y617672D01*
X173475Y617790D01*
X173395Y617905D01*
X173312Y618017D01*
X173226Y618128D01*
X173137Y618235D01*
X173045Y618341D01*
X172950Y618443D01*
X172853Y618543D01*
X172752Y618641D01*
X172649Y618735D01*
X172543Y618827D01*
X172435Y618915D01*
X172324Y619001D01*
X172211Y619083D01*
X172096Y619162D01*
X171978Y619238D01*
X171859Y619310D01*
X171737Y619380D01*
X171614Y619445D01*
X171489Y619508D01*
X171362Y619566D01*
X171233Y619622D01*
X171103Y619673D01*
X170972Y619721D01*
X170839Y619765D01*
X170705Y619806D01*
X170570Y619842D01*
X170434Y619875D01*
X170298Y619904D01*
X170160Y619930D01*
X170022Y619951D01*
X169883Y619969D01*
X169744Y619982D01*
X169605Y619992D01*
X169465Y619998D01*
X169325Y620000D01*
X162454Y620000D01*
X162209Y620003D01*
X161964Y620012D01*
X161719Y620027D01*
X161475Y620048D01*
X161232Y620075D01*
X160989Y620108D01*
X160747Y620147D01*
X160506Y620192D01*
X160266Y620242D01*
X160028Y620299D01*
X159791Y620361D01*
X159555Y620429D01*
X159322Y620503D01*
X159090Y620583D01*
X158860Y620668D01*
X158633Y620759D01*
X158407Y620855D01*
X158185Y620957D01*
X157964Y621065D01*
X157747Y621177D01*
X157532Y621295D01*
X157320Y621419D01*
X157111Y621547D01*
X156906Y621680D01*
X156704Y621819D01*
X156505Y621962D01*
X156310Y622110D01*
X156118Y622263D01*
X155930Y622421D01*
X155747Y622583D01*
X155567Y622750D01*
X155391Y622921D01*
X155220Y623096D01*
X155053Y623275D01*
X154890Y623458D01*
X154732Y623646D01*
X154579Y623837D01*
X154430Y624032D01*
X154287Y624230D01*
X154148Y624432D01*
X154014Y624637D01*
X153885Y624846D01*
X153761Y625057D01*
X153643Y625272D01*
X153529Y625489D01*
X153421Y625709D01*
X153319Y625932D01*
X153222Y626157D01*
X153131Y626384D01*
X153045Y626614D01*
X152965Y626845D01*
X152890Y627079D01*
X152822Y627314D01*
X152759Y627551D01*
X152701Y627789D01*
X152650Y628029D01*
X152605Y628270D01*
X152565Y628511D01*
X152532Y628754D01*
X152504Y628998D01*
X152483Y629242D01*
X152467Y629486D01*
X152458Y629731D01*
X152454Y629976D01*
X152456Y630221D01*
X152465Y630466D01*
X152479Y630711D01*
X152500Y630955D01*
X152526Y631199D01*
X152558Y631442D01*
X152597Y631684D01*
X152641Y631925D01*
X152691Y632165D01*
X152747Y632403D01*
X152809Y632640D01*
X152876Y632876D01*
X152950Y633110D01*
X153029Y633342D01*
X153114Y633572D01*
X153204Y633799D01*
X153300Y634025D01*
X153401Y634248D01*
X153508Y634469D01*
X153620Y634686D01*
X153738Y634901D01*
X153860Y635114D01*
X153988Y635323D01*
X154121Y635528D01*
X154259Y635731D01*
X154402Y635930D01*
X154550Y636126D01*
X154702Y636317D01*
X154859Y636506D01*
X155021Y636690D01*
X222490Y711655D01*
X222489Y711655D02*
X222582Y711761D01*
X222671Y711869D01*
X222758Y711980D01*
X222841Y712093D01*
X222921Y712208D01*
X222998Y712326D01*
X223071Y712446D01*
X223141Y712568D01*
X223208Y712691D01*
X223271Y712817D01*
X223331Y712944D01*
X223387Y713073D01*
X223439Y713203D01*
X223488Y713335D01*
X223532Y713468D01*
X223574Y713602D01*
X223611Y713738D01*
X223645Y713874D01*
X223674Y714011D01*
X223700Y714149D01*
X223722Y714288D01*
X223740Y714427D01*
X223754Y714567D01*
X223764Y714707D01*
X223771Y714848D01*
X223773Y714988D01*
X223771Y715128D01*
X223766Y715269D01*
X223756Y715409D01*
X223743Y715549D01*
X223725Y715688D01*
X223704Y715827D01*
X223679Y715965D01*
X223650Y716103D01*
X223617Y716239D01*
X223580Y716375D01*
X223540Y716509D01*
X223496Y716642D01*
X223448Y716774D01*
X223396Y716905D01*
X223340Y717034D01*
X223282Y717162D01*
X223219Y717287D01*
X223153Y717411D01*
X223084Y717534D01*
X223011Y717654D01*
X222935Y717772D01*
X222855Y717887D01*
X222772Y718001D01*
X222686Y718112D01*
X222597Y718221D01*
X222505Y718327D01*
X222411Y718430D01*
X222313Y718531D01*
X222212Y718629D01*
X222109Y718724D01*
X222003Y718817D01*
X221894Y718906D01*
X221784Y718992D01*
X221670Y719075D01*
X221555Y719155D01*
X221437Y719231D01*
X221317Y719304D01*
X221195Y719374D01*
X221071Y719441D01*
X220946Y719503D01*
X220818Y719563D01*
X220689Y719618D01*
X220559Y719670D01*
X220427Y719719D01*
X220294Y719763D01*
X220159Y719804D01*
X220024Y719841D01*
X219887Y719874D01*
X219750Y719904D01*
X219612Y719929D01*
X219473Y719951D01*
X219334Y719968D01*
X219194Y719982D01*
X219054Y719992D01*
X218913Y719998D01*
X218773Y720000D01*
X212160Y720000D01*
X211916Y720003D01*
X211672Y720012D01*
X211429Y720027D01*
X211185Y720048D01*
X210943Y720074D01*
X210701Y720107D01*
X210460Y720146D01*
X210220Y720190D01*
X209981Y720240D01*
X209744Y720296D01*
X209508Y720358D01*
X209273Y720426D01*
X209041Y720499D01*
X208810Y720578D01*
X208581Y720662D01*
X208354Y720753D01*
X208130Y720848D01*
X207908Y720949D01*
X207688Y721056D01*
X207471Y721167D01*
X207257Y721284D01*
X207046Y721407D01*
X206838Y721534D01*
X206633Y721666D01*
X206431Y721804D01*
X206233Y721946D01*
X206038Y722093D01*
X205847Y722245D01*
X205659Y722401D01*
X205476Y722562D01*
X205297Y722727D01*
X205121Y722897D01*
X204950Y723071D01*
X204783Y723249D01*
X204620Y723431D01*
X204462Y723617D01*
X204309Y723806D01*
X204160Y724000D01*
X204016Y724197D01*
X203877Y724397D01*
X203743Y724601D01*
X203613Y724808D01*
X203489Y725018D01*
X203370Y725231D01*
X203257Y725447D01*
X203148Y725666D01*
X203045Y725887D01*
X202947Y726110D01*
X202855Y726336D01*
X202769Y726564D01*
X202688Y726795D01*
X202612Y727027D01*
X202543Y727261D01*
X202479Y727496D01*
X202420Y727733D01*
X202368Y727971D01*
X202321Y728211D01*
X202281Y728451D01*
X202246Y728693D01*
X202217Y728935D01*
X202194Y729178D01*
X202177Y729422D01*
X202166Y729665D01*
X202160Y729909D01*
X202161Y730153D01*
X202168Y730397D01*
X202181Y730641D01*
X202199Y730884D01*
X202224Y731127D01*
X202254Y731369D01*
X202291Y731610D01*
X202333Y731851D01*
X202381Y732090D01*
X202435Y732328D01*
X202494Y732564D01*
X202560Y732800D01*
X202631Y733033D01*
X202708Y733265D01*
X202790Y733494D01*
X202878Y733722D01*
X202972Y733947D01*
X203071Y734170D01*
X203175Y734391D01*
X203285Y734609D01*
X203400Y734824D01*
X203521Y735036D01*
X203646Y735245D01*
X203777Y735452D01*
X203912Y735654D01*
X204053Y735854D01*
X204198Y736050D01*
X204348Y736243D01*
X204502Y736431D01*
X204662Y736616D01*
X284000Y255000D02*
X284005Y255393D01*
X284019Y255785D01*
X284043Y256177D01*
X284077Y256568D01*
X284120Y256959D01*
X284173Y257348D01*
X284236Y257735D01*
X284307Y258121D01*
X284389Y258506D01*
X284479Y258888D01*
X284580Y259267D01*
X284689Y259645D01*
X284808Y260019D01*
X284935Y260390D01*
X285072Y260758D01*
X285218Y261123D01*
X285373Y261484D01*
X285536Y261841D01*
X285708Y262194D01*
X285889Y262542D01*
X286079Y262886D01*
X286276Y263226D01*
X286482Y263560D01*
X286696Y263889D01*
X286919Y264213D01*
X287149Y264531D01*
X287386Y264844D01*
X287632Y265150D01*
X287885Y265451D01*
X288145Y265745D01*
X288412Y266033D01*
X288686Y266314D01*
X288967Y266588D01*
X289255Y266855D01*
X289549Y267115D01*
X289850Y267368D01*
X290156Y267614D01*
X290469Y267851D01*
X290787Y268081D01*
X291111Y268304D01*
X291440Y268518D01*
X291774Y268724D01*
X292114Y268921D01*
X292458Y269111D01*
X292806Y269292D01*
X293159Y269464D01*
X293516Y269627D01*
X293877Y269782D01*
X294242Y269928D01*
X294610Y270065D01*
X294981Y270192D01*
X295355Y270311D01*
X295733Y270420D01*
X296112Y270521D01*
X296494Y270611D01*
X296879Y270693D01*
X297265Y270764D01*
X297652Y270827D01*
X298041Y270880D01*
X298432Y270923D01*
X298823Y270957D01*
X299215Y270981D01*
X299607Y270995D01*
X300000Y271000D01*
X300393Y270995D01*
X300785Y270981D01*
X301177Y270957D01*
X301568Y270923D01*
X301959Y270880D01*
X302348Y270827D01*
X302735Y270764D01*
X303121Y270693D01*
X303506Y270611D01*
X303888Y270521D01*
X304267Y270420D01*
X304645Y270311D01*
X305019Y270192D01*
X305390Y270065D01*
X305758Y269928D01*
X306123Y269782D01*
X306484Y269627D01*
X306841Y269464D01*
X307194Y269292D01*
X307542Y269111D01*
X307886Y268921D01*
X308226Y268724D01*
X308560Y268518D01*
X308889Y268304D01*
X309213Y268081D01*
X309531Y267851D01*
X309844Y267614D01*
X310150Y267368D01*
X310451Y267115D01*
X310745Y266855D01*
X311033Y266588D01*
X311314Y266314D01*
X311588Y266033D01*
X311855Y265745D01*
X312115Y265451D01*
X312368Y265150D01*
X312614Y264844D01*
X312851Y264531D01*
X313081Y264213D01*
X313304Y263889D01*
X313518Y263560D01*
X313724Y263226D01*
X313921Y262886D01*
X314111Y262542D01*
X314292Y262194D01*
X314464Y261841D01*
X314627Y261484D01*
X314782Y261123D01*
X314928Y260758D01*
X315065Y260390D01*
X315192Y260019D01*
X315311Y259645D01*
X315420Y259267D01*
X315521Y258888D01*
X315611Y258506D01*
X315693Y258121D01*
X315764Y257735D01*
X315827Y257348D01*
X315880Y256959D01*
X315923Y256568D01*
X315957Y256177D01*
X315981Y255785D01*
X315995Y255393D01*
X316000Y255000D01*
X315995Y254607D01*
X315981Y254215D01*
X315957Y253823D01*
X315923Y253432D01*
X315880Y253041D01*
X315827Y252652D01*
X315764Y252265D01*
X315693Y251879D01*
X315611Y251494D01*
X315521Y251112D01*
X315420Y250733D01*
X315311Y250355D01*
X315192Y249981D01*
X315065Y249610D01*
X314928Y249242D01*
X314782Y248877D01*
X314627Y248516D01*
X314464Y248159D01*
X314292Y247806D01*
X314111Y247458D01*
X313921Y247114D01*
X313724Y246774D01*
X313518Y246440D01*
X313304Y246111D01*
X313081Y245787D01*
X312851Y245469D01*
X312614Y245156D01*
X312368Y244850D01*
X312115Y244549D01*
X311855Y244255D01*
X311588Y243967D01*
X311314Y243686D01*
X311033Y243412D01*
X310745Y243145D01*
X310451Y242885D01*
X310150Y242632D01*
X309844Y242386D01*
X309531Y242149D01*
X309213Y241919D01*
X308889Y241696D01*
X308560Y241482D01*
X308226Y241276D01*
X307886Y241079D01*
X307542Y240889D01*
X307194Y240708D01*
X306841Y240536D01*
X306484Y240373D01*
X306123Y240218D01*
X305758Y240072D01*
X305390Y239935D01*
X305019Y239808D01*
X304645Y239689D01*
X304267Y239580D01*
X303888Y239479D01*
X303506Y239389D01*
X303121Y239307D01*
X302735Y239236D01*
X302348Y239173D01*
X301959Y239120D01*
X301568Y239077D01*
X301177Y239043D01*
X300785Y239019D01*
X300393Y239005D01*
X300000Y239000D01*
X299607Y239005D01*
X299215Y239019D01*
X298823Y239043D01*
X298432Y239077D01*
X298041Y239120D01*
X297652Y239173D01*
X297265Y239236D01*
X296879Y239307D01*
X296494Y239389D01*
X296112Y239479D01*
X295733Y239580D01*
X295355Y239689D01*
X294981Y239808D01*
X294610Y239935D01*
X294242Y240072D01*
X293877Y240218D01*
X293516Y240373D01*
X293159Y240536D01*
X292806Y240708D01*
X292458Y240889D01*
X292114Y241079D01*
X291774Y241276D01*
X291440Y241482D01*
X291111Y241696D01*
X290787Y241919D01*
X290469Y242149D01*
X290156Y242386D01*
X289850Y242632D01*
X289549Y242885D01*
X289255Y243145D01*
X288967Y243412D01*
X288686Y243686D01*
X288412Y243967D01*
X288145Y244255D01*
X287885Y244549D01*
X287632Y244850D01*
X287386Y245156D01*
X287149Y245469D01*
X286919Y245787D01*
X286696Y246111D01*
X286482Y246440D01*
X286276Y246774D01*
X286079Y247114D01*
X285889Y247458D01*
X285708Y247806D01*
X285536Y248159D01*
X285373Y248516D01*
X285218Y248877D01*
X285072Y249242D01*
X284935Y249610D01*
X284808Y249981D01*
X284689Y250355D01*
X284580Y250733D01*
X284479Y251112D01*
X284389Y251494D01*
X284307Y251879D01*
X284236Y252265D01*
X284173Y252652D01*
X284120Y253041D01*
X284077Y253432D01*
X284043Y253823D01*
X284019Y254215D01*
X284005Y254607D01*
X284000Y255000D01*
X295775Y138125D02*
X295777Y138251D01*
X295783Y138377D01*
X295793Y138503D01*
X295807Y138629D01*
X295825Y138754D01*
X295847Y138878D01*
X295872Y139002D01*
X295902Y139125D01*
X295935Y139246D01*
X295973Y139367D01*
X296014Y139486D01*
X296059Y139605D01*
X296107Y139721D01*
X296159Y139836D01*
X296215Y139949D01*
X296275Y140061D01*
X296338Y140170D01*
X296404Y140278D01*
X296473Y140383D01*
X296546Y140486D01*
X296623Y140587D01*
X296702Y140685D01*
X296784Y140781D01*
X296870Y140874D01*
X296958Y140965D01*
X297049Y141052D01*
X297143Y141137D01*
X297239Y141218D01*
X297338Y141297D01*
X297439Y141372D01*
X297543Y141444D01*
X297649Y141513D01*
X297757Y141579D01*
X297867Y141641D01*
X297979Y141699D01*
X298092Y141754D01*
X298208Y141805D01*
X298325Y141853D01*
X298443Y141897D01*
X298563Y141937D01*
X298684Y141973D01*
X298806Y142006D01*
X298929Y142035D01*
X299053Y142059D01*
X299177Y142080D01*
X299302Y142097D01*
X299428Y142110D01*
X299554Y142119D01*
X299680Y142124D01*
X299807Y142125D01*
X299933Y142122D01*
X300059Y142115D01*
X300185Y142104D01*
X300310Y142089D01*
X300435Y142070D01*
X300559Y142047D01*
X300683Y142021D01*
X300805Y141990D01*
X300927Y141956D01*
X301047Y141917D01*
X301166Y141875D01*
X301284Y141830D01*
X301400Y141780D01*
X301515Y141727D01*
X301627Y141670D01*
X301738Y141610D01*
X301847Y141546D01*
X301954Y141479D01*
X302059Y141409D01*
X302162Y141335D01*
X302262Y141258D01*
X302360Y141178D01*
X302455Y141095D01*
X302547Y141009D01*
X302637Y140920D01*
X302724Y140828D01*
X302807Y140734D01*
X302888Y140637D01*
X302966Y140537D01*
X303041Y140435D01*
X303112Y140331D01*
X303180Y140224D01*
X303244Y140116D01*
X303305Y140005D01*
X303363Y139893D01*
X303417Y139779D01*
X303467Y139663D01*
X303514Y139546D01*
X303557Y139427D01*
X303596Y139307D01*
X303632Y139186D01*
X303663Y139063D01*
X303691Y138940D01*
X303715Y138816D01*
X303735Y138691D01*
X303751Y138566D01*
X303763Y138440D01*
X303771Y138314D01*
X303775Y138188D01*
X303775Y138062D01*
X303771Y137936D01*
X303763Y137810D01*
X303751Y137684D01*
X303735Y137559D01*
X303715Y137434D01*
X303691Y137310D01*
X303663Y137187D01*
X303632Y137064D01*
X303596Y136943D01*
X303557Y136823D01*
X303514Y136704D01*
X303467Y136587D01*
X303417Y136471D01*
X303363Y136357D01*
X303305Y136245D01*
X303244Y136134D01*
X303180Y136026D01*
X303112Y135919D01*
X303041Y135815D01*
X302966Y135713D01*
X302888Y135613D01*
X302807Y135516D01*
X302724Y135422D01*
X302637Y135330D01*
X302547Y135241D01*
X302455Y135155D01*
X302360Y135072D01*
X302262Y134992D01*
X302162Y134915D01*
X302059Y134841D01*
X301954Y134771D01*
X301847Y134704D01*
X301738Y134640D01*
X301627Y134580D01*
X301515Y134523D01*
X301400Y134470D01*
X301284Y134420D01*
X301166Y134375D01*
X301047Y134333D01*
X300927Y134294D01*
X300805Y134260D01*
X300683Y134229D01*
X300559Y134203D01*
X300435Y134180D01*
X300310Y134161D01*
X300185Y134146D01*
X300059Y134135D01*
X299933Y134128D01*
X299807Y134125D01*
X299680Y134126D01*
X299554Y134131D01*
X299428Y134140D01*
X299302Y134153D01*
X299177Y134170D01*
X299053Y134191D01*
X298929Y134215D01*
X298806Y134244D01*
X298684Y134277D01*
X298563Y134313D01*
X298443Y134353D01*
X298325Y134397D01*
X298208Y134445D01*
X298092Y134496D01*
X297979Y134551D01*
X297867Y134609D01*
X297757Y134671D01*
X297649Y134737D01*
X297543Y134806D01*
X297439Y134878D01*
X297338Y134953D01*
X297239Y135032D01*
X297143Y135113D01*
X297049Y135198D01*
X296958Y135285D01*
X296870Y135376D01*
X296784Y135469D01*
X296702Y135565D01*
X296623Y135663D01*
X296546Y135764D01*
X296473Y135867D01*
X296404Y135972D01*
X296338Y136080D01*
X296275Y136189D01*
X296215Y136301D01*
X296159Y136414D01*
X296107Y136529D01*
X296059Y136645D01*
X296014Y136764D01*
X295973Y136883D01*
X295935Y137004D01*
X295902Y137125D01*
X295872Y137248D01*
X295847Y137372D01*
X295825Y137496D01*
X295807Y137621D01*
X295793Y137747D01*
X295783Y137873D01*
X295777Y137999D01*
X295775Y138125D01*
X295775Y93675D02*
X295777Y93801D01*
X295783Y93927D01*
X295793Y94053D01*
X295807Y94179D01*
X295825Y94304D01*
X295847Y94428D01*
X295872Y94552D01*
X295902Y94675D01*
X295935Y94796D01*
X295973Y94917D01*
X296014Y95036D01*
X296059Y95155D01*
X296107Y95271D01*
X296159Y95386D01*
X296215Y95499D01*
X296275Y95611D01*
X296338Y95720D01*
X296404Y95828D01*
X296473Y95933D01*
X296546Y96036D01*
X296623Y96137D01*
X296702Y96235D01*
X296784Y96331D01*
X296870Y96424D01*
X296958Y96515D01*
X297049Y96602D01*
X297143Y96687D01*
X297239Y96768D01*
X297338Y96847D01*
X297439Y96922D01*
X297543Y96994D01*
X297649Y97063D01*
X297757Y97129D01*
X297867Y97191D01*
X297979Y97249D01*
X298092Y97304D01*
X298208Y97355D01*
X298325Y97403D01*
X298443Y97447D01*
X298563Y97487D01*
X298684Y97523D01*
X298806Y97556D01*
X298929Y97585D01*
X299053Y97609D01*
X299177Y97630D01*
X299302Y97647D01*
X299428Y97660D01*
X299554Y97669D01*
X299680Y97674D01*
X299807Y97675D01*
X299933Y97672D01*
X300059Y97665D01*
X300185Y97654D01*
X300310Y97639D01*
X300435Y97620D01*
X300559Y97597D01*
X300683Y97571D01*
X300805Y97540D01*
X300927Y97506D01*
X301047Y97467D01*
X301166Y97425D01*
X301284Y97380D01*
X301400Y97330D01*
X301515Y97277D01*
X301627Y97220D01*
X301738Y97160D01*
X301847Y97096D01*
X301954Y97029D01*
X302059Y96959D01*
X302162Y96885D01*
X302262Y96808D01*
X302360Y96728D01*
X302455Y96645D01*
X302547Y96559D01*
X302637Y96470D01*
X302724Y96378D01*
X302807Y96284D01*
X302888Y96187D01*
X302966Y96087D01*
X303041Y95985D01*
X303112Y95881D01*
X303180Y95774D01*
X303244Y95666D01*
X303305Y95555D01*
X303363Y95443D01*
X303417Y95329D01*
X303467Y95213D01*
X303514Y95096D01*
X303557Y94977D01*
X303596Y94857D01*
X303632Y94736D01*
X303663Y94613D01*
X303691Y94490D01*
X303715Y94366D01*
X303735Y94241D01*
X303751Y94116D01*
X303763Y93990D01*
X303771Y93864D01*
X303775Y93738D01*
X303775Y93612D01*
X303771Y93486D01*
X303763Y93360D01*
X303751Y93234D01*
X303735Y93109D01*
X303715Y92984D01*
X303691Y92860D01*
X303663Y92737D01*
X303632Y92614D01*
X303596Y92493D01*
X303557Y92373D01*
X303514Y92254D01*
X303467Y92137D01*
X303417Y92021D01*
X303363Y91907D01*
X303305Y91795D01*
X303244Y91684D01*
X303180Y91576D01*
X303112Y91469D01*
X303041Y91365D01*
X302966Y91263D01*
X302888Y91163D01*
X302807Y91066D01*
X302724Y90972D01*
X302637Y90880D01*
X302547Y90791D01*
X302455Y90705D01*
X302360Y90622D01*
X302262Y90542D01*
X302162Y90465D01*
X302059Y90391D01*
X301954Y90321D01*
X301847Y90254D01*
X301738Y90190D01*
X301627Y90130D01*
X301515Y90073D01*
X301400Y90020D01*
X301284Y89970D01*
X301166Y89925D01*
X301047Y89883D01*
X300927Y89844D01*
X300805Y89810D01*
X300683Y89779D01*
X300559Y89753D01*
X300435Y89730D01*
X300310Y89711D01*
X300185Y89696D01*
X300059Y89685D01*
X299933Y89678D01*
X299807Y89675D01*
X299680Y89676D01*
X299554Y89681D01*
X299428Y89690D01*
X299302Y89703D01*
X299177Y89720D01*
X299053Y89741D01*
X298929Y89765D01*
X298806Y89794D01*
X298684Y89827D01*
X298563Y89863D01*
X298443Y89903D01*
X298325Y89947D01*
X298208Y89995D01*
X298092Y90046D01*
X297979Y90101D01*
X297867Y90159D01*
X297757Y90221D01*
X297649Y90287D01*
X297543Y90356D01*
X297439Y90428D01*
X297338Y90503D01*
X297239Y90582D01*
X297143Y90663D01*
X297049Y90748D01*
X296958Y90835D01*
X296870Y90926D01*
X296784Y91019D01*
X296702Y91115D01*
X296623Y91213D01*
X296546Y91314D01*
X296473Y91417D01*
X296404Y91522D01*
X296338Y91630D01*
X296275Y91739D01*
X296215Y91851D01*
X296159Y91964D01*
X296107Y92079D01*
X296059Y92195D01*
X296014Y92314D01*
X295973Y92433D01*
X295935Y92554D01*
X295902Y92675D01*
X295872Y92798D01*
X295847Y92922D01*
X295825Y93046D01*
X295807Y93171D01*
X295793Y93297D01*
X295783Y93423D01*
X295777Y93549D01*
X295775Y93675D01*
D11*
X-26332Y276402D02*
X-26861Y275708D01*
X-27327Y274971D01*
X-27727Y274195D01*
X-28058Y273388D01*
X-28318Y272555D01*
X-28504Y271703D01*
X-28614Y270838D01*
X-28650Y269966D01*
X-28609Y269095D01*
X-28492Y268230D01*
X-28300Y267379D01*
X-28035Y266548D01*
X-27698Y265743D01*
X-27293Y264971D01*
X-26822Y264237D01*
X-26288Y263546D01*
X-25697Y262905D01*
X-25051Y262318D01*
X-24358Y261789D01*
X-23620Y261323D01*
X-22845Y260923D01*
X-22038Y260592D01*
X-21205Y260332D01*
X-20353Y260146D01*
X-19487Y260035D01*
X-18650Y260000D01*
X185000Y260000D01*
X185436Y259981D01*
X185868Y259924D01*
X186294Y259830D01*
X186710Y259698D01*
X187113Y259532D01*
X187500Y259330D01*
X187868Y259096D01*
X188214Y258830D01*
X188536Y258536D01*
X188830Y258214D01*
X189096Y257868D01*
X189330Y257500D01*
X189532Y257113D01*
X189698Y256710D01*
X189830Y256294D01*
X189924Y255868D01*
X189981Y255436D01*
X190000Y255000D01*
X190000Y20000D01*
X190076Y18257D01*
X190304Y16527D01*
X190681Y14824D01*
X191206Y13160D01*
X191874Y11548D01*
X192680Y10000D01*
X193617Y8528D01*
X194679Y7144D01*
X195858Y5858D01*
X197144Y4679D01*
X198528Y3617D01*
X200000Y2680D01*
X201548Y1874D01*
X203160Y1206D01*
X204824Y681D01*
X206527Y304D01*
X208257Y76D01*
X210000Y0D01*
X390000Y0D01*
X391743Y76D01*
X393473Y304D01*
X395176Y681D01*
X396840Y1206D01*
X398452Y1874D01*
X400000Y2680D01*
X401472Y3617D01*
X402856Y4679D01*
X404142Y5858D01*
X405321Y7144D01*
X406383Y8528D01*
X407321Y10000D01*
X408126Y11548D01*
X408794Y13160D01*
X409319Y14824D01*
X409696Y16527D01*
X409924Y18257D01*
X410000Y20000D01*
X410000Y255000D01*
X410019Y255436D01*
X410076Y255868D01*
X410170Y256294D01*
X410302Y256710D01*
X410468Y257113D01*
X410670Y257500D01*
X410904Y257868D01*
X411170Y258214D01*
X411464Y258536D01*
X411786Y258830D01*
X412132Y259096D01*
X412500Y259330D01*
X412887Y259532D01*
X413290Y259698D01*
X413706Y259830D01*
X414132Y259924D01*
X414564Y259981D01*
X415000Y260000D01*
X618650Y260000D01*
X619521Y260038D01*
X620386Y260152D01*
X621238Y260341D01*
X622070Y260603D01*
X622876Y260937D01*
X623650Y261340D01*
X624385Y261809D01*
X625077Y262340D01*
X625721Y262929D01*
X626310Y263572D01*
X626841Y264264D01*
X627310Y265000D01*
X627713Y265774D01*
X628046Y266580D01*
X628309Y267412D01*
X628498Y268264D01*
X628611Y269129D01*
X628650Y270000D01*
X628611Y270872D01*
X628498Y271737D01*
X628309Y272588D01*
X628046Y273420D01*
X627713Y274226D01*
X627310Y275000D01*
X626841Y275736D01*
X626332Y276402D01*
X546834Y371799D01*
X546570Y372146D01*
X546337Y372515D01*
X546137Y372902D01*
X545971Y373306D01*
X545841Y373722D01*
X545748Y374148D01*
X545693Y374581D01*
X545675Y375017D01*
X545696Y375453D01*
X545754Y375885D01*
X545850Y376310D01*
X545983Y376726D01*
X546151Y377128D01*
X546354Y377515D01*
X546589Y377882D01*
X546856Y378227D01*
X547152Y378547D01*
X547474Y378841D01*
X547821Y379105D01*
X548190Y379339D01*
X548578Y379539D01*
X548981Y379704D01*
X549398Y379834D01*
X549824Y379927D01*
X550256Y379982D01*
X550675Y380000D01*
X558650Y380000D01*
X559521Y380038D01*
X560386Y380152D01*
X561238Y380341D01*
X562070Y380603D01*
X562876Y380937D01*
X563650Y381340D01*
X564385Y381809D01*
X565077Y382340D01*
X565721Y382929D01*
X566310Y383572D01*
X566841Y384264D01*
X567310Y385000D01*
X567713Y385774D01*
X568046Y386580D01*
X568309Y387412D01*
X568498Y388264D01*
X568611Y389129D01*
X568650Y390000D01*
X568611Y390872D01*
X568498Y391737D01*
X568309Y392588D01*
X568046Y393420D01*
X567713Y394226D01*
X567310Y395000D01*
X566841Y395736D01*
X566332Y396402D01*
X486834Y491799D01*
X486570Y492146D01*
X486337Y492515D01*
X486137Y492902D01*
X485971Y493306D01*
X485841Y493722D01*
X485748Y494148D01*
X485693Y494581D01*
X485675Y495017D01*
X485696Y495453D01*
X485754Y495885D01*
X485850Y496310D01*
X485983Y496726D01*
X486151Y497128D01*
X486354Y497515D01*
X486589Y497882D01*
X486856Y498227D01*
X487152Y498547D01*
X487474Y498841D01*
X487821Y499105D01*
X488190Y499339D01*
X488578Y499539D01*
X488981Y499704D01*
X489398Y499834D01*
X489824Y499927D01*
X490256Y499982D01*
X490675Y500000D01*
X498650Y500000D01*
X499521Y500038D01*
X500386Y500152D01*
X501238Y500341D01*
X502070Y500603D01*
X502876Y500937D01*
X503650Y501340D01*
X504385Y501809D01*
X505077Y502340D01*
X505721Y502929D01*
X506310Y503572D01*
X506841Y504264D01*
X507310Y505000D01*
X507713Y505774D01*
X508046Y506580D01*
X508309Y507412D01*
X508498Y508264D01*
X508611Y509129D01*
X508650Y510000D01*
X508611Y510872D01*
X508498Y511737D01*
X508309Y512588D01*
X508046Y513420D01*
X507713Y514226D01*
X507310Y515000D01*
X506841Y515736D01*
X506332Y516402D01*
X426834Y611799D01*
X426570Y612146D01*
X426337Y612515D01*
X426137Y612902D01*
X425971Y613306D01*
X425841Y613722D01*
X425748Y614148D01*
X425693Y614581D01*
X425675Y615017D01*
X425696Y615453D01*
X425754Y615885D01*
X425850Y616310D01*
X425983Y616726D01*
X426151Y617128D01*
X426354Y617515D01*
X426589Y617882D01*
X426856Y618227D01*
X427152Y618547D01*
X427474Y618841D01*
X427821Y619105D01*
X428190Y619339D01*
X428578Y619539D01*
X428981Y619704D01*
X429398Y619834D01*
X429824Y619927D01*
X430256Y619982D01*
X430675Y620000D01*
X437546Y620000D01*
X438418Y620038D01*
X439283Y620152D01*
X440135Y620341D01*
X440967Y620603D01*
X441773Y620937D01*
X442546Y621340D01*
X443282Y621808D01*
X443974Y622340D01*
X444617Y622929D01*
X445207Y623572D01*
X445738Y624264D01*
X446207Y625000D01*
X446609Y625774D01*
X446943Y626580D01*
X447206Y627412D01*
X447394Y628264D01*
X447508Y629128D01*
X447546Y630000D01*
X447508Y630872D01*
X447394Y631736D01*
X447206Y632588D01*
X446943Y633420D01*
X446609Y634226D01*
X446207Y635000D01*
X445738Y635736D01*
X445207Y636428D01*
X444979Y636690D01*
X377510Y711655D01*
X377233Y711992D01*
X376986Y712351D01*
X376771Y712731D01*
X376590Y713128D01*
X376445Y713539D01*
X376336Y713962D01*
X376264Y714392D01*
X376230Y714827D01*
X376234Y715263D01*
X376276Y715697D01*
X376355Y716126D01*
X376472Y716546D01*
X376625Y716955D01*
X376813Y717348D01*
X377034Y717724D01*
X377287Y718079D01*
X377571Y718411D01*
X377882Y718716D01*
X378219Y718994D01*
X378578Y719241D01*
X378958Y719456D01*
X379355Y719636D01*
X379766Y719782D01*
X380188Y719891D01*
X380619Y719963D01*
X381053Y719997D01*
X381227Y720000D01*
X387840Y720000D01*
X388712Y720038D01*
X389577Y720152D01*
X390428Y720341D01*
X391260Y720603D01*
X392066Y720937D01*
X392840Y721340D01*
X393576Y721809D01*
X394268Y722340D01*
X394911Y722929D01*
X395501Y723572D01*
X396032Y724264D01*
X396500Y725000D01*
X396903Y725774D01*
X397237Y726580D01*
X397499Y727412D01*
X397688Y728264D01*
X397802Y729128D01*
X397840Y730000D01*
X397802Y730872D01*
X397688Y731736D01*
X397499Y732588D01*
X397237Y733420D01*
X396903Y734226D01*
X396500Y735000D01*
X396032Y735736D01*
X395501Y736428D01*
X395339Y736616D01*
X337502Y802165D01*
X336954Y802844D01*
X336467Y803567D01*
X336045Y804331D01*
X335691Y805128D01*
X335408Y805954D01*
X335198Y806800D01*
X335063Y807662D01*
X335003Y808533D01*
X335000Y808781D01*
X335000Y875000D01*
X334962Y875872D01*
X334848Y876736D01*
X334659Y877588D01*
X334397Y878420D01*
X334063Y879226D01*
X333660Y880000D01*
X333192Y880736D01*
X332660Y881428D01*
X332071Y882071D01*
X331428Y882660D01*
X330736Y883192D01*
X330000Y883660D01*
X329226Y884063D01*
X328420Y884397D01*
X327588Y884659D01*
X326736Y884848D01*
X325872Y884962D01*
X325000Y885000D01*
X275000Y885000D01*
X274128Y884962D01*
X273264Y884848D01*
X272412Y884659D01*
X271580Y884397D01*
X270774Y884063D01*
X270000Y883660D01*
X269264Y883192D01*
X268572Y882660D01*
X267929Y882071D01*
X267340Y881428D01*
X266808Y880736D01*
X266340Y880000D01*
X265937Y879226D01*
X265603Y878420D01*
X265341Y877588D01*
X265152Y876736D01*
X265038Y875872D01*
X265000Y875000D01*
X265000Y808781D01*
X264962Y807909D01*
X264848Y807045D01*
X264659Y806193D01*
X264397Y805361D01*
X264063Y804555D01*
X263660Y803781D01*
X263192Y803045D01*
X262660Y802353D01*
X262498Y802165D01*
X204661Y736616D01*
X204113Y735938D01*
X203626Y735214D01*
X203204Y734450D01*
X202851Y733653D01*
X202568Y732827D01*
X202358Y731981D01*
X202223Y731119D01*
X202163Y730248D01*
X202179Y729376D01*
X202272Y728509D01*
X202439Y727653D01*
X202681Y726814D01*
X202994Y726000D01*
X203378Y725217D01*
X203828Y724470D01*
X204342Y723764D01*
X204915Y723107D01*
X205544Y722502D01*
X206222Y721953D01*
X206946Y721467D01*
X207710Y721045D01*
X208507Y720691D01*
X209332Y720408D01*
X210179Y720198D01*
X211041Y720063D01*
X211911Y720003D01*
X212160Y720000D01*
X218773Y720000D01*
X219209Y719981D01*
X219641Y719924D01*
X220067Y719830D01*
X220483Y719698D01*
X220886Y719532D01*
X221273Y719330D01*
X221641Y719096D01*
X221987Y718830D01*
X222309Y718536D01*
X222603Y718214D01*
X222869Y717868D01*
X223103Y717500D01*
X223305Y717113D01*
X223472Y716710D01*
X223603Y716294D01*
X223697Y715868D01*
X223754Y715436D01*
X223773Y715000D01*
X223754Y714564D01*
X223697Y714132D01*
X223603Y713706D01*
X223472Y713290D01*
X223305Y712887D01*
X223103Y712500D01*
X222869Y712132D01*
X222603Y711786D01*
X222490Y711655D01*
X155021Y636690D01*
X154466Y636016D01*
X153972Y635297D01*
X153543Y634538D01*
X153181Y633744D01*
X152890Y632922D01*
X152672Y632077D01*
X152528Y631217D01*
X152460Y630347D01*
X152467Y629474D01*
X152551Y628606D01*
X152710Y627748D01*
X152944Y626908D01*
X153249Y626091D01*
X153625Y625303D01*
X154068Y624552D01*
X154575Y623842D01*
X155142Y623178D01*
X155764Y622567D01*
X156437Y622012D01*
X157156Y621518D01*
X157916Y621089D01*
X158710Y620727D01*
X159532Y620436D01*
X160377Y620218D01*
X161237Y620074D01*
X162107Y620006D01*
X162454Y620000D01*
X169325Y620000D01*
X169761Y619981D01*
X170193Y619924D01*
X170619Y619830D01*
X171035Y619698D01*
X171438Y619532D01*
X171825Y619330D01*
X172193Y619096D01*
X172539Y618830D01*
X172860Y618536D01*
X173155Y618214D01*
X173421Y617868D01*
X173655Y617500D01*
X173856Y617113D01*
X174023Y616710D01*
X174154Y616294D01*
X174249Y615868D01*
X174306Y615436D01*
X174325Y615000D01*
X174306Y614564D01*
X174249Y614132D01*
X174154Y613706D01*
X174023Y613290D01*
X173856Y612887D01*
X173655Y612500D01*
X173421Y612132D01*
X173166Y611799D01*
X93668Y516402D01*
X93140Y515708D01*
X92673Y514971D01*
X92273Y514195D01*
X91942Y513388D01*
X91682Y512555D01*
X91497Y511703D01*
X91386Y510838D01*
X91350Y509966D01*
X91391Y509095D01*
X91508Y508230D01*
X91700Y507379D01*
X91965Y506548D01*
X92302Y505743D01*
X92707Y504971D01*
X93178Y504237D01*
X93712Y503546D01*
X94303Y502905D01*
X94949Y502318D01*
X95642Y501789D01*
X96380Y501323D01*
X97155Y500923D01*
X97962Y500592D01*
X98795Y500332D01*
X99647Y500146D01*
X100513Y500035D01*
X101350Y500000D01*
X109325Y500000D01*
X109761Y499981D01*
X110193Y499924D01*
X110619Y499830D01*
X111035Y499698D01*
X111438Y499532D01*
X111825Y499330D01*
X112193Y499096D01*
X112539Y498830D01*
X112860Y498536D01*
X113155Y498214D01*
X113421Y497868D01*
X113655Y497500D01*
X113856Y497113D01*
X114023Y496710D01*
X114154Y496294D01*
X114249Y495868D01*
X114306Y495436D01*
X114325Y495000D01*
X114306Y494564D01*
X114249Y494132D01*
X114154Y493706D01*
X114023Y493290D01*
X113856Y492887D01*
X113655Y492500D01*
X113421Y492132D01*
X113166Y491799D01*
X33668Y396402D01*
X33140Y395708D01*
X32673Y394971D01*
X32273Y394195D01*
X31942Y393388D01*
X31682Y392555D01*
X31497Y391703D01*
X31386Y390838D01*
X31350Y389966D01*
X31391Y389095D01*
X31508Y388230D01*
X31700Y387379D01*
X31965Y386548D01*
X32302Y385743D01*
X32707Y384971D01*
X33178Y384237D01*
X33712Y383546D01*
X34303Y382905D01*
X34949Y382318D01*
X35642Y381789D01*
X36380Y381323D01*
X37155Y380923D01*
X37962Y380592D01*
X38795Y380332D01*
X39647Y380146D01*
X40513Y380035D01*
X41350Y380000D01*
X49325Y380000D01*
X49761Y379981D01*
X50193Y379924D01*
X50619Y379830D01*
X51035Y379698D01*
X51438Y379532D01*
X51825Y379330D01*
X52193Y379096D01*
X52539Y378830D01*
X52860Y378536D01*
X53155Y378214D01*
X53421Y377868D01*
X53655Y377500D01*
X53856Y377113D01*
X54023Y376710D01*
X54154Y376294D01*
X54249Y375868D01*
X54306Y375436D01*
X54325Y375000D01*
X54306Y374564D01*
X54249Y374132D01*
X54154Y373706D01*
X54023Y373290D01*
X53856Y372887D01*
X53655Y372500D01*
X53421Y372132D01*
X53166Y371799D01*
X-26332Y276402D01*
X316000Y254476D02*
X315932Y253431D01*
X315795Y252392D01*
X315590Y251365D01*
X315319Y250353D01*
X314983Y249361D01*
X314582Y248393D01*
X314118Y247454D01*
X313595Y246546D01*
X313013Y245675D01*
X312375Y244844D01*
X311684Y244057D01*
X310943Y243316D01*
X310156Y242625D01*
X309325Y241988D01*
X308454Y241406D01*
X307546Y240882D01*
X306607Y240418D01*
X305639Y240017D01*
X304647Y239681D01*
X303635Y239410D01*
X302608Y239205D01*
X301569Y239069D01*
X300524Y239000D01*
X299476Y239000D01*
X298431Y239069D01*
X297392Y239205D01*
X296365Y239410D01*
X295353Y239681D01*
X294361Y240017D01*
X293393Y240418D01*
X292454Y240882D01*
X291546Y241406D01*
X290675Y241988D01*
X289844Y242625D01*
X289057Y243316D01*
X288316Y244057D01*
X287625Y244844D01*
X286988Y245675D01*
X286406Y246546D01*
X285882Y247454D01*
X285418Y248393D01*
X285017Y249361D01*
X284681Y250353D01*
X284410Y251365D01*
X284205Y252392D01*
X284069Y253431D01*
X284000Y254476D01*
X284000Y255524D01*
X284069Y256569D01*
X284205Y257608D01*
X284410Y258635D01*
X284681Y259647D01*
X285017Y260639D01*
X285418Y261607D01*
X285882Y262546D01*
X286406Y263454D01*
X286988Y264325D01*
X287625Y265156D01*
X288316Y265943D01*
X289057Y266684D01*
X289844Y267375D01*
X290675Y268013D01*
X291546Y268595D01*
X292454Y269118D01*
X293393Y269582D01*
X294361Y269983D01*
X295353Y270319D01*
X296365Y270590D01*
X297392Y270795D01*
X298431Y270932D01*
X299476Y271000D01*
X300524Y271000D01*
X301569Y270932D01*
X302608Y270795D01*
X303635Y270590D01*
X304647Y270319D01*
X305639Y269983D01*
X306607Y269582D01*
X307546Y269118D01*
X308454Y268595D01*
X309325Y268013D01*
X310156Y267375D01*
X310943Y266684D01*
X311684Y265943D01*
X312375Y265156D01*
X313013Y264325D01*
X313595Y263454D01*
X314118Y262546D01*
X314582Y261607D01*
X314983Y260639D01*
X315319Y259647D01*
X315590Y258635D01*
X315795Y257608D01*
X315932Y256569D01*
X316000Y255524D01*
X316000Y254476D01*
X300037Y134125D02*
X300557Y134193D01*
X301064Y134329D01*
X301548Y134530D01*
X302002Y134792D01*
X302418Y135111D01*
X302789Y135482D01*
X303108Y135898D01*
X303370Y136352D01*
X303571Y136836D01*
X303707Y137343D01*
X303775Y137863D01*
X303775Y138387D01*
X303707Y138907D01*
X303571Y139414D01*
X303370Y139898D01*
X303108Y140352D01*
X302789Y140768D01*
X302418Y141139D01*
X302002Y141458D01*
X301548Y141720D01*
X301064Y141921D01*
X300557Y142057D01*
X300037Y142125D01*
X299513Y142125D01*
X298993Y142057D01*
X298486Y141921D01*
X298002Y141720D01*
X297548Y141458D01*
X297132Y141139D01*
X296761Y140768D01*
X296442Y140352D01*
X296180Y139898D01*
X295979Y139414D01*
X295843Y138907D01*
X295775Y138387D01*
X295775Y137863D01*
X295843Y137343D01*
X295979Y136836D01*
X296180Y136352D01*
X296442Y135898D01*
X296761Y135482D01*
X297132Y135111D01*
X297548Y134792D01*
X298002Y134530D01*
X298486Y134329D01*
X298993Y134193D01*
X299513Y134125D01*
X300037Y134125D01*
X300037Y89675D02*
X300557Y89743D01*
X301064Y89879D01*
X301548Y90080D01*
X302002Y90342D01*
X302418Y90661D01*
X302789Y91032D01*
X303108Y91448D01*
X303370Y91902D01*
X303571Y92386D01*
X303707Y92893D01*
X303775Y93413D01*
X303775Y93937D01*
X303707Y94457D01*
X303571Y94964D01*
X303370Y95448D01*
X303108Y95902D01*
X302789Y96318D01*
X302418Y96689D01*
X302002Y97008D01*
X301548Y97270D01*
X301064Y97471D01*
X300557Y97607D01*
X300037Y97675D01*
X299513Y97675D01*
X298993Y97607D01*
X298486Y97471D01*
X298002Y97270D01*
X297548Y97008D01*
X297132Y96689D01*
X296761Y96318D01*
X296442Y95902D01*
X296180Y95448D01*
X295979Y94964D01*
X295843Y94457D01*
X295775Y93937D01*
X295775Y93413D01*
X295843Y92893D01*
X295979Y92386D01*
X296180Y91902D01*
X296442Y91448D01*
X296761Y91032D01*
X297132Y90661D01*
X297548Y90342D01*
X298002Y90080D01*
X298486Y89879D01*
X298993Y89743D01*
X299513Y89675D01*
X300037Y89675D01*
M02*
