G04 EAGLE Gerber RS-274X export*
G75*
%MOMM*%
%FSLAX34Y34*%
%LPD*%
%INBottom Copper*%
%IPPOS*%
%AMOC8*
5,1,8,0,0,1.08239X$1,22.5*%
G01*
%ADD10R,1.500000X1.300000*%
%ADD11C,0.889000*%
%ADD12R,1.676400X1.016000*%
%ADD13R,0.900000X1.000000*%
%ADD14C,0.502400*%
%ADD15C,0.609600*%
%ADD16C,0.304800*%

G36*
X390152Y2013D02*
X390152Y2013D01*
X390239Y2010D01*
X392578Y2194D01*
X392595Y2197D01*
X392612Y2197D01*
X392672Y2209D01*
X393065Y2273D01*
X393199Y2317D01*
X393281Y2334D01*
X397730Y3780D01*
X397856Y3832D01*
X397986Y3876D01*
X398057Y3916D01*
X398185Y3969D01*
X398530Y4185D01*
X398579Y4212D01*
X402364Y6962D01*
X402468Y7051D01*
X402578Y7133D01*
X402633Y7193D01*
X402738Y7283D01*
X403000Y7595D01*
X403038Y7636D01*
X405788Y11421D01*
X405859Y11538D01*
X405938Y11649D01*
X405972Y11724D01*
X406044Y11842D01*
X406197Y12219D01*
X406220Y12270D01*
X407666Y16719D01*
X407670Y16736D01*
X407677Y16752D01*
X407688Y16813D01*
X407780Y17199D01*
X407790Y17340D01*
X407806Y17422D01*
X407990Y19761D01*
X407989Y19913D01*
X407999Y20000D01*
X407999Y256876D01*
X409875Y260125D01*
X413124Y262001D01*
X618650Y262001D01*
X618889Y262020D01*
X618994Y262020D01*
X620106Y262147D01*
X620279Y262181D01*
X620453Y262207D01*
X620506Y262225D01*
X620590Y262242D01*
X621053Y262414D01*
X621077Y262428D01*
X621096Y262435D01*
X623096Y263409D01*
X623184Y263461D01*
X623276Y263504D01*
X623396Y263586D01*
X623521Y263660D01*
X623599Y263725D01*
X623683Y263783D01*
X623752Y263853D01*
X623899Y263976D01*
X624090Y264197D01*
X624161Y264269D01*
X625533Y266020D01*
X625589Y266105D01*
X625653Y266184D01*
X625725Y266311D01*
X625805Y266432D01*
X625846Y266525D01*
X625897Y266613D01*
X625928Y266708D01*
X626006Y266882D01*
X626081Y267164D01*
X626113Y267260D01*
X626580Y269435D01*
X626594Y269536D01*
X626616Y269635D01*
X626626Y269780D01*
X626645Y269924D01*
X626641Y270026D01*
X626648Y270128D01*
X626635Y270226D01*
X626629Y270417D01*
X626573Y270704D01*
X626560Y270804D01*
X626027Y272964D01*
X625972Y273131D01*
X625924Y273300D01*
X625898Y273350D01*
X625871Y273432D01*
X625641Y273868D01*
X625624Y273891D01*
X625615Y273908D01*
X625000Y274844D01*
X624853Y275033D01*
X624795Y275121D01*
X624402Y275592D01*
X546636Y368912D01*
X546635Y368912D01*
X545297Y370518D01*
X545204Y370630D01*
X543993Y372083D01*
X543471Y376124D01*
X545200Y379814D01*
X548638Y382001D01*
X558650Y382001D01*
X558889Y382020D01*
X558994Y382020D01*
X560106Y382147D01*
X560279Y382181D01*
X560453Y382207D01*
X560506Y382225D01*
X560590Y382242D01*
X561053Y382414D01*
X561077Y382428D01*
X561096Y382435D01*
X563096Y383409D01*
X563184Y383461D01*
X563276Y383504D01*
X563396Y383586D01*
X563521Y383660D01*
X563599Y383725D01*
X563683Y383783D01*
X563752Y383853D01*
X563899Y383976D01*
X564090Y384197D01*
X564161Y384269D01*
X565533Y386020D01*
X565589Y386105D01*
X565653Y386184D01*
X565725Y386311D01*
X565805Y386432D01*
X565846Y386525D01*
X565897Y386613D01*
X565928Y386708D01*
X566006Y386882D01*
X566081Y387164D01*
X566113Y387260D01*
X566580Y389435D01*
X566594Y389536D01*
X566616Y389635D01*
X566626Y389780D01*
X566645Y389924D01*
X566641Y390026D01*
X566648Y390128D01*
X566635Y390226D01*
X566629Y390417D01*
X566573Y390704D01*
X566560Y390804D01*
X566027Y392964D01*
X565972Y393131D01*
X565924Y393300D01*
X565898Y393350D01*
X565871Y393432D01*
X565641Y393868D01*
X565624Y393891D01*
X565615Y393908D01*
X565000Y394844D01*
X564853Y395033D01*
X564795Y395121D01*
X564087Y395970D01*
X564087Y395971D01*
X486636Y488912D01*
X486635Y488912D01*
X485297Y490518D01*
X485128Y490721D01*
X483993Y492083D01*
X483471Y496124D01*
X485200Y499814D01*
X488638Y502001D01*
X498650Y502001D01*
X498889Y502020D01*
X498994Y502020D01*
X500106Y502147D01*
X500279Y502181D01*
X500453Y502207D01*
X500506Y502225D01*
X500590Y502242D01*
X501053Y502414D01*
X501077Y502428D01*
X501096Y502435D01*
X503096Y503409D01*
X503184Y503461D01*
X503276Y503504D01*
X503396Y503586D01*
X503521Y503660D01*
X503599Y503725D01*
X503683Y503783D01*
X503752Y503853D01*
X503899Y503976D01*
X504090Y504197D01*
X504161Y504269D01*
X505533Y506020D01*
X505582Y506095D01*
X505609Y506128D01*
X505612Y506134D01*
X505653Y506184D01*
X505725Y506311D01*
X505805Y506432D01*
X505846Y506525D01*
X505897Y506613D01*
X505928Y506708D01*
X506006Y506882D01*
X506081Y507164D01*
X506113Y507260D01*
X506580Y509435D01*
X506594Y509536D01*
X506616Y509635D01*
X506626Y509780D01*
X506645Y509924D01*
X506641Y510026D01*
X506648Y510128D01*
X506635Y510226D01*
X506629Y510417D01*
X506573Y510704D01*
X506560Y510804D01*
X506027Y512964D01*
X505972Y513131D01*
X505924Y513300D01*
X505898Y513350D01*
X505871Y513432D01*
X505641Y513868D01*
X505624Y513891D01*
X505615Y513908D01*
X505000Y514844D01*
X504853Y515033D01*
X504795Y515121D01*
X504461Y515521D01*
X426636Y608912D01*
X426635Y608912D01*
X425297Y610518D01*
X425213Y610619D01*
X423993Y612083D01*
X423471Y616124D01*
X424961Y619305D01*
X425200Y619814D01*
X428638Y622001D01*
X437546Y622001D01*
X437791Y622021D01*
X437897Y622021D01*
X439027Y622152D01*
X439209Y622188D01*
X439391Y622216D01*
X439438Y622233D01*
X439511Y622248D01*
X439973Y622421D01*
X440007Y622440D01*
X440032Y622449D01*
X442057Y623455D01*
X442154Y623513D01*
X442256Y623563D01*
X442366Y623640D01*
X442480Y623709D01*
X442567Y623782D01*
X442659Y623848D01*
X442724Y623916D01*
X442856Y624028D01*
X443065Y624274D01*
X443130Y624342D01*
X444497Y626143D01*
X444558Y626238D01*
X444627Y626328D01*
X444691Y626446D01*
X444763Y626559D01*
X444807Y626663D01*
X444861Y626763D01*
X444889Y626853D01*
X444958Y627012D01*
X445036Y627325D01*
X445063Y627414D01*
X445487Y629635D01*
X445499Y629748D01*
X445521Y629859D01*
X445526Y629993D01*
X445540Y630126D01*
X445534Y630239D01*
X445538Y630352D01*
X445523Y630445D01*
X445513Y630618D01*
X445444Y630933D01*
X445429Y631026D01*
X444821Y633204D01*
X444758Y633377D01*
X444701Y633553D01*
X444677Y633596D01*
X444651Y633667D01*
X444408Y634096D01*
X444384Y634126D01*
X444371Y634149D01*
X443712Y635077D01*
X443554Y635265D01*
X443492Y635351D01*
X377422Y708763D01*
X376023Y710317D01*
X374925Y711537D01*
X374042Y714700D01*
X374658Y717925D01*
X376644Y720541D01*
X379585Y722001D01*
X387840Y722001D01*
X388084Y722020D01*
X388189Y722021D01*
X389315Y722150D01*
X389494Y722186D01*
X389674Y722214D01*
X389722Y722231D01*
X389799Y722246D01*
X390261Y722419D01*
X390292Y722437D01*
X390316Y722446D01*
X392335Y723443D01*
X392429Y723500D01*
X392529Y723547D01*
X392640Y723626D01*
X392758Y723696D01*
X392842Y723768D01*
X392932Y723831D01*
X392999Y723900D01*
X393135Y724015D01*
X393338Y724253D01*
X393405Y724323D01*
X394774Y726111D01*
X394834Y726204D01*
X394901Y726291D01*
X394967Y726411D01*
X395041Y726526D01*
X395085Y726627D01*
X395138Y726724D01*
X395167Y726815D01*
X395238Y726978D01*
X395315Y727282D01*
X395344Y727374D01*
X395779Y729583D01*
X395792Y729693D01*
X395814Y729801D01*
X395819Y729938D01*
X395835Y730074D01*
X395830Y730184D01*
X395834Y730294D01*
X395820Y730389D01*
X395811Y730566D01*
X395745Y730873D01*
X395731Y730968D01*
X395143Y733142D01*
X395081Y733314D01*
X395026Y733488D01*
X395002Y733533D01*
X394976Y733606D01*
X394736Y734038D01*
X394714Y734066D01*
X394702Y734088D01*
X394054Y735018D01*
X393899Y735206D01*
X393838Y735292D01*
X337385Y799273D01*
X336001Y800841D01*
X334550Y802485D01*
X332999Y806588D01*
X332999Y875000D01*
X332983Y875198D01*
X332985Y875299D01*
X332889Y876265D01*
X332870Y876370D01*
X332861Y876477D01*
X332834Y876570D01*
X332801Y876750D01*
X332699Y877038D01*
X332672Y877132D01*
X331933Y878917D01*
X331928Y878926D01*
X331925Y878935D01*
X331815Y879148D01*
X331708Y879356D01*
X331702Y879364D01*
X331697Y879373D01*
X331672Y879404D01*
X331415Y879753D01*
X331321Y879845D01*
X331272Y879906D01*
X329906Y881272D01*
X329899Y881278D01*
X329892Y881286D01*
X329710Y881439D01*
X329530Y881592D01*
X329522Y881597D01*
X329514Y881603D01*
X329479Y881622D01*
X329107Y881846D01*
X328986Y881895D01*
X328917Y881933D01*
X327132Y882672D01*
X327030Y882705D01*
X326932Y882747D01*
X326837Y882767D01*
X326663Y882823D01*
X326361Y882869D01*
X326265Y882889D01*
X325299Y882985D01*
X325100Y882988D01*
X325000Y882999D01*
X275000Y882999D01*
X274802Y882983D01*
X274701Y882985D01*
X273735Y882889D01*
X273630Y882870D01*
X273523Y882861D01*
X273430Y882834D01*
X273250Y882801D01*
X272962Y882699D01*
X272868Y882672D01*
X271083Y881933D01*
X271074Y881928D01*
X271065Y881925D01*
X270852Y881815D01*
X270644Y881708D01*
X270636Y881702D01*
X270627Y881697D01*
X270596Y881672D01*
X270247Y881415D01*
X270155Y881321D01*
X270094Y881272D01*
X268728Y879906D01*
X268722Y879899D01*
X268714Y879892D01*
X268561Y879710D01*
X268408Y879530D01*
X268403Y879522D01*
X268397Y879514D01*
X268378Y879479D01*
X268154Y879107D01*
X268105Y878986D01*
X268067Y878917D01*
X267328Y877132D01*
X267295Y877030D01*
X267253Y876932D01*
X267233Y876837D01*
X267177Y876663D01*
X267131Y876361D01*
X267111Y876265D01*
X267015Y875299D01*
X267012Y875100D01*
X267001Y875000D01*
X267001Y806588D01*
X265450Y802485D01*
X263999Y800841D01*
X262615Y799273D01*
X206162Y735292D01*
X206015Y735097D01*
X205946Y735018D01*
X205298Y734088D01*
X205206Y733930D01*
X205108Y733776D01*
X205089Y733729D01*
X205050Y733661D01*
X204874Y733200D01*
X204867Y733165D01*
X204857Y733142D01*
X204269Y730968D01*
X204249Y730860D01*
X204219Y730754D01*
X204204Y730618D01*
X204179Y730483D01*
X204177Y730373D01*
X204165Y730263D01*
X204173Y730168D01*
X204169Y729990D01*
X204213Y729680D01*
X204221Y729583D01*
X204656Y727374D01*
X204686Y727268D01*
X204707Y727159D01*
X204753Y727031D01*
X204791Y726899D01*
X204837Y726799D01*
X204875Y726696D01*
X204924Y726614D01*
X205000Y726452D01*
X205177Y726193D01*
X205226Y726111D01*
X206595Y724323D01*
X206669Y724241D01*
X206735Y724153D01*
X206834Y724058D01*
X206926Y723957D01*
X207012Y723888D01*
X207092Y723811D01*
X207172Y723760D01*
X207311Y723649D01*
X207585Y723495D01*
X207665Y723443D01*
X209684Y722446D01*
X209854Y722378D01*
X210021Y722304D01*
X210071Y722292D01*
X210143Y722264D01*
X210625Y722158D01*
X210661Y722156D01*
X210685Y722150D01*
X211811Y722021D01*
X212055Y722013D01*
X212160Y722001D01*
X220415Y722001D01*
X223356Y720541D01*
X225342Y717925D01*
X225958Y714700D01*
X225075Y711537D01*
X223977Y710317D01*
X222578Y708763D01*
X156508Y635351D01*
X156359Y635156D01*
X156288Y635077D01*
X155629Y634149D01*
X155535Y633990D01*
X155434Y633836D01*
X155416Y633790D01*
X155377Y633725D01*
X155197Y633266D01*
X155189Y633229D01*
X155179Y633204D01*
X154571Y631026D01*
X154549Y630914D01*
X154518Y630805D01*
X154502Y630672D01*
X154477Y630541D01*
X154474Y630428D01*
X154461Y630315D01*
X154468Y630221D01*
X154463Y630048D01*
X154506Y629729D01*
X154513Y629635D01*
X154937Y627414D01*
X154967Y627305D01*
X154987Y627193D01*
X155033Y627067D01*
X155068Y626938D01*
X155116Y626835D01*
X155154Y626729D01*
X155202Y626648D01*
X155275Y626490D01*
X155455Y626223D01*
X155503Y626143D01*
X156870Y624342D01*
X156946Y624257D01*
X157014Y624166D01*
X157110Y624074D01*
X157199Y623974D01*
X157288Y623903D01*
X157369Y623824D01*
X157449Y623773D01*
X157584Y623665D01*
X157864Y623505D01*
X157943Y623455D01*
X159968Y622449D01*
X160140Y622381D01*
X160308Y622305D01*
X160357Y622294D01*
X160426Y622266D01*
X160908Y622160D01*
X160947Y622158D01*
X160973Y622152D01*
X162103Y622021D01*
X162349Y622013D01*
X162454Y622001D01*
X171362Y622001D01*
X174800Y619814D01*
X176529Y616124D01*
X176007Y612083D01*
X175386Y611338D01*
X174703Y610519D01*
X174703Y610518D01*
X173364Y608912D01*
X96544Y516727D01*
X95205Y515121D01*
X95067Y514925D01*
X95000Y514844D01*
X94385Y513908D01*
X94300Y513754D01*
X94209Y513604D01*
X94189Y513551D01*
X94148Y513476D01*
X93984Y513010D01*
X93979Y512983D01*
X93973Y512964D01*
X93440Y510804D01*
X93424Y510704D01*
X93398Y510605D01*
X93385Y510460D01*
X93361Y510317D01*
X93362Y510215D01*
X93352Y510114D01*
X93362Y510015D01*
X93362Y509824D01*
X93410Y509536D01*
X93420Y509435D01*
X93887Y507260D01*
X93916Y507162D01*
X93936Y507063D01*
X93987Y506927D01*
X94029Y506788D01*
X94074Y506696D01*
X94109Y506601D01*
X94161Y506516D01*
X94245Y506344D01*
X94414Y506107D01*
X94467Y506020D01*
X95839Y504269D01*
X95908Y504194D01*
X95970Y504113D01*
X96075Y504014D01*
X96174Y503907D01*
X96254Y503844D01*
X96328Y503774D01*
X96412Y503721D01*
X96563Y503603D01*
X96818Y503463D01*
X96904Y503409D01*
X98904Y502435D01*
X99068Y502371D01*
X99229Y502299D01*
X99283Y502287D01*
X99364Y502255D01*
X99846Y502153D01*
X99874Y502151D01*
X99894Y502147D01*
X101006Y502020D01*
X101246Y502013D01*
X101350Y502001D01*
X111362Y502001D01*
X114800Y499814D01*
X116529Y496124D01*
X116007Y492083D01*
X115139Y491042D01*
X114703Y490518D01*
X113365Y488912D01*
X113364Y488912D01*
X35205Y395121D01*
X35067Y394925D01*
X35000Y394844D01*
X34385Y393908D01*
X34300Y393754D01*
X34209Y393604D01*
X34189Y393551D01*
X34148Y393475D01*
X33984Y393010D01*
X33979Y392982D01*
X33973Y392964D01*
X33440Y390804D01*
X33424Y390704D01*
X33398Y390605D01*
X33385Y390460D01*
X33361Y390317D01*
X33362Y390215D01*
X33352Y390114D01*
X33362Y390015D01*
X33362Y389824D01*
X33410Y389536D01*
X33420Y389435D01*
X33887Y387260D01*
X33916Y387162D01*
X33936Y387063D01*
X33987Y386927D01*
X34029Y386788D01*
X34074Y386696D01*
X34109Y386601D01*
X34161Y386516D01*
X34245Y386344D01*
X34414Y386107D01*
X34467Y386020D01*
X35839Y384269D01*
X35908Y384194D01*
X35970Y384113D01*
X36075Y384014D01*
X36174Y383907D01*
X36254Y383844D01*
X36328Y383774D01*
X36412Y383721D01*
X36563Y383603D01*
X36818Y383463D01*
X36904Y383409D01*
X38904Y382435D01*
X39068Y382371D01*
X39229Y382299D01*
X39283Y382287D01*
X39364Y382255D01*
X39846Y382153D01*
X39874Y382151D01*
X39894Y382147D01*
X41006Y382020D01*
X41246Y382013D01*
X41350Y382001D01*
X51362Y382001D01*
X54800Y379814D01*
X56529Y376124D01*
X56007Y372083D01*
X55358Y371305D01*
X54703Y370518D01*
X53364Y368912D01*
X-23456Y276727D01*
X-24795Y275121D01*
X-24886Y274992D01*
X-24942Y274922D01*
X-24957Y274896D01*
X-25000Y274844D01*
X-25615Y273908D01*
X-25700Y273754D01*
X-25791Y273604D01*
X-25811Y273551D01*
X-25852Y273476D01*
X-26016Y273010D01*
X-26021Y272983D01*
X-26027Y272964D01*
X-26560Y270804D01*
X-26576Y270704D01*
X-26602Y270605D01*
X-26615Y270460D01*
X-26639Y270317D01*
X-26638Y270215D01*
X-26648Y270114D01*
X-26638Y270015D01*
X-26638Y269824D01*
X-26590Y269536D01*
X-26580Y269435D01*
X-26113Y267260D01*
X-26084Y267162D01*
X-26064Y267063D01*
X-26013Y266927D01*
X-25971Y266788D01*
X-25926Y266696D01*
X-25891Y266601D01*
X-25839Y266516D01*
X-25755Y266344D01*
X-25586Y266107D01*
X-25533Y266020D01*
X-24161Y264269D01*
X-24092Y264194D01*
X-24030Y264113D01*
X-23925Y264014D01*
X-23826Y263907D01*
X-23746Y263844D01*
X-23672Y263774D01*
X-23588Y263721D01*
X-23437Y263603D01*
X-23182Y263463D01*
X-23096Y263409D01*
X-21096Y262435D01*
X-21072Y262426D01*
X-21050Y262413D01*
X-20908Y262360D01*
X-20771Y262299D01*
X-20716Y262287D01*
X-20636Y262255D01*
X-20611Y262250D01*
X-20587Y262241D01*
X-20368Y262198D01*
X-20154Y262153D01*
X-20128Y262151D01*
X-20115Y262149D01*
X-20106Y262147D01*
X-18994Y262020D01*
X-18755Y262013D01*
X-18650Y262001D01*
X186876Y262001D01*
X190125Y260125D01*
X192001Y256876D01*
X192001Y20000D01*
X192013Y19848D01*
X192010Y19761D01*
X192194Y17422D01*
X192197Y17405D01*
X192197Y17388D01*
X192209Y17328D01*
X192273Y16935D01*
X192317Y16801D01*
X192334Y16719D01*
X193780Y12270D01*
X193832Y12144D01*
X193876Y12014D01*
X193916Y11943D01*
X193969Y11815D01*
X194185Y11470D01*
X194212Y11421D01*
X196962Y7636D01*
X197051Y7532D01*
X197133Y7422D01*
X197193Y7367D01*
X197283Y7262D01*
X197595Y7000D01*
X197636Y6962D01*
X201421Y4212D01*
X201538Y4141D01*
X201649Y4062D01*
X201724Y4028D01*
X201842Y3956D01*
X202219Y3803D01*
X202270Y3780D01*
X206719Y2334D01*
X206736Y2330D01*
X206752Y2323D01*
X206813Y2312D01*
X207199Y2220D01*
X207340Y2210D01*
X207422Y2194D01*
X209761Y2010D01*
X209913Y2011D01*
X210000Y2001D01*
X390000Y2001D01*
X390152Y2013D01*
G37*
%LPC*%
G36*
X367548Y59717D02*
X367548Y59717D01*
X366157Y60293D01*
X365093Y61357D01*
X364517Y62748D01*
X364517Y64252D01*
X365273Y66078D01*
X365276Y66087D01*
X365281Y66096D01*
X365352Y66323D01*
X365425Y66547D01*
X365426Y66557D01*
X365429Y66566D01*
X365433Y66606D01*
X365498Y67035D01*
X365496Y67166D01*
X365505Y67244D01*
X365505Y86480D01*
X365496Y86594D01*
X365497Y86708D01*
X365476Y86840D01*
X365465Y86972D01*
X365438Y87083D01*
X365420Y87196D01*
X365379Y87322D01*
X365347Y87451D01*
X365302Y87556D01*
X365266Y87664D01*
X365204Y87782D01*
X365152Y87904D01*
X365091Y88000D01*
X365038Y88102D01*
X364979Y88175D01*
X364887Y88320D01*
X364671Y88562D01*
X364613Y88635D01*
X360085Y93163D01*
X359998Y93237D01*
X359918Y93318D01*
X359810Y93396D01*
X359709Y93482D01*
X359611Y93541D01*
X359519Y93608D01*
X359400Y93668D01*
X359286Y93737D01*
X359180Y93779D01*
X359078Y93831D01*
X358952Y93871D01*
X358828Y93920D01*
X358717Y93945D01*
X358608Y93979D01*
X358514Y93989D01*
X358347Y94027D01*
X358022Y94045D01*
X357930Y94055D01*
X343590Y94055D01*
X343514Y94049D01*
X343438Y94051D01*
X343269Y94029D01*
X343098Y94015D01*
X343024Y93997D01*
X342949Y93987D01*
X342785Y93938D01*
X342619Y93897D01*
X342550Y93867D01*
X342476Y93845D01*
X342323Y93769D01*
X342166Y93702D01*
X342102Y93661D01*
X342033Y93628D01*
X341894Y93529D01*
X341750Y93437D01*
X341693Y93386D01*
X341631Y93342D01*
X341510Y93222D01*
X341382Y93108D01*
X341334Y93049D01*
X341280Y92995D01*
X341179Y92857D01*
X341072Y92724D01*
X341035Y92658D01*
X340990Y92597D01*
X340913Y92444D01*
X340828Y92296D01*
X340802Y92224D01*
X340767Y92156D01*
X340716Y91993D01*
X340657Y91833D01*
X340642Y91758D01*
X340619Y91686D01*
X340607Y91581D01*
X340562Y91349D01*
X340559Y91260D01*
X339798Y90499D01*
X321982Y90499D01*
X321237Y91244D01*
X321237Y102456D01*
X321982Y103201D01*
X339798Y103201D01*
X341027Y101972D01*
X341056Y101947D01*
X341082Y101919D01*
X341244Y101788D01*
X341403Y101652D01*
X341436Y101633D01*
X341466Y101609D01*
X341647Y101506D01*
X341826Y101398D01*
X341861Y101384D01*
X341894Y101365D01*
X342090Y101292D01*
X342284Y101215D01*
X342321Y101206D01*
X342357Y101193D01*
X342562Y101153D01*
X342766Y101108D01*
X342804Y101106D01*
X342841Y101098D01*
X343049Y101092D01*
X343258Y101080D01*
X343296Y101084D01*
X343334Y101083D01*
X343541Y101110D01*
X343749Y101132D01*
X343785Y101142D01*
X343823Y101147D01*
X344024Y101208D01*
X344224Y101263D01*
X344259Y101279D01*
X344296Y101290D01*
X344483Y101382D01*
X344673Y101469D01*
X344704Y101490D01*
X344739Y101507D01*
X344909Y101627D01*
X345082Y101744D01*
X345110Y101770D01*
X345141Y101792D01*
X345289Y101939D01*
X345442Y102082D01*
X345465Y102112D01*
X345492Y102139D01*
X345615Y102307D01*
X345742Y102473D01*
X345760Y102507D01*
X345782Y102538D01*
X345876Y102724D01*
X345975Y102908D01*
X345988Y102944D01*
X346005Y102978D01*
X346067Y103177D01*
X346135Y103375D01*
X346141Y103412D01*
X346153Y103449D01*
X346163Y103541D01*
X346218Y103861D01*
X346219Y104033D01*
X346229Y104127D01*
X346229Y108623D01*
X346226Y108661D01*
X346228Y108700D01*
X346206Y108907D01*
X346189Y109115D01*
X346180Y109152D01*
X346176Y109190D01*
X346121Y109391D01*
X346071Y109594D01*
X346056Y109629D01*
X346045Y109666D01*
X345958Y109856D01*
X345876Y110047D01*
X345856Y110080D01*
X345840Y110114D01*
X345723Y110287D01*
X345611Y110463D01*
X345586Y110492D01*
X345564Y110524D01*
X345421Y110676D01*
X345282Y110831D01*
X345253Y110855D01*
X345227Y110883D01*
X345061Y111010D01*
X344898Y111141D01*
X344865Y111160D01*
X344835Y111183D01*
X344651Y111282D01*
X344470Y111385D01*
X344434Y111399D01*
X344400Y111417D01*
X344203Y111484D01*
X344007Y111557D01*
X343970Y111564D01*
X343934Y111577D01*
X343727Y111612D01*
X343523Y111652D01*
X343485Y111653D01*
X343447Y111659D01*
X343238Y111660D01*
X343030Y111667D01*
X342992Y111662D01*
X342954Y111662D01*
X342747Y111630D01*
X342541Y111603D01*
X342504Y111592D01*
X342467Y111586D01*
X342268Y111520D01*
X342069Y111460D01*
X342034Y111443D01*
X341998Y111431D01*
X341813Y111335D01*
X341625Y111243D01*
X341594Y111221D01*
X341560Y111203D01*
X341488Y111145D01*
X341223Y110958D01*
X341101Y110837D01*
X341027Y110778D01*
X339798Y109549D01*
X321982Y109549D01*
X321220Y110311D01*
X321211Y110379D01*
X321197Y110550D01*
X321179Y110624D01*
X321169Y110699D01*
X321120Y110863D01*
X321079Y111029D01*
X321049Y111098D01*
X321027Y111172D01*
X320951Y111325D01*
X320884Y111482D01*
X320843Y111546D01*
X320810Y111615D01*
X320711Y111754D01*
X320619Y111898D01*
X320568Y111955D01*
X320524Y112017D01*
X320404Y112138D01*
X320290Y112266D01*
X320231Y112314D01*
X320177Y112368D01*
X320039Y112469D01*
X319906Y112576D01*
X319840Y112613D01*
X319779Y112658D01*
X319626Y112735D01*
X319478Y112820D01*
X319406Y112846D01*
X319338Y112881D01*
X319175Y112932D01*
X319015Y112991D01*
X318940Y113006D01*
X318868Y113029D01*
X318763Y113041D01*
X318531Y113086D01*
X318295Y113093D01*
X318190Y113105D01*
X281360Y113105D01*
X281284Y113099D01*
X281208Y113101D01*
X281039Y113079D01*
X280868Y113065D01*
X280794Y113047D01*
X280719Y113037D01*
X280555Y112988D01*
X280389Y112947D01*
X280320Y112917D01*
X280246Y112895D01*
X280093Y112819D01*
X279936Y112752D01*
X279872Y112711D01*
X279803Y112678D01*
X279664Y112579D01*
X279520Y112487D01*
X279463Y112436D01*
X279401Y112392D01*
X279280Y112272D01*
X279152Y112158D01*
X279104Y112099D01*
X279050Y112045D01*
X278949Y111907D01*
X278842Y111774D01*
X278805Y111708D01*
X278760Y111647D01*
X278683Y111494D01*
X278598Y111346D01*
X278572Y111274D01*
X278537Y111206D01*
X278486Y111043D01*
X278427Y110883D01*
X278412Y110808D01*
X278389Y110736D01*
X278377Y110631D01*
X278332Y110399D01*
X278329Y110310D01*
X277568Y109549D01*
X259752Y109549D01*
X258688Y110613D01*
X258601Y110687D01*
X258521Y110768D01*
X258414Y110846D01*
X258312Y110932D01*
X258214Y110991D01*
X258122Y111058D01*
X258004Y111118D01*
X257890Y111187D01*
X257783Y111229D01*
X257682Y111281D01*
X257555Y111321D01*
X257432Y111370D01*
X257320Y111395D01*
X257211Y111429D01*
X257118Y111439D01*
X256950Y111477D01*
X256626Y111495D01*
X256533Y111505D01*
X231525Y111505D01*
X231411Y111496D01*
X231297Y111497D01*
X231166Y111476D01*
X231033Y111465D01*
X230923Y111438D01*
X230810Y111420D01*
X230683Y111379D01*
X230555Y111347D01*
X230450Y111302D01*
X230341Y111266D01*
X230223Y111204D01*
X230101Y111152D01*
X230005Y111091D01*
X229904Y111038D01*
X229830Y110979D01*
X229685Y110887D01*
X229443Y110671D01*
X229370Y110613D01*
X228746Y109989D01*
X227159Y109331D01*
X225441Y109331D01*
X223854Y109989D01*
X222639Y111204D01*
X221981Y112791D01*
X221981Y174720D01*
X221966Y174909D01*
X221968Y175008D01*
X221914Y175575D01*
X221916Y175591D01*
X221953Y175762D01*
X221959Y175875D01*
X222176Y176399D01*
X222235Y176580D01*
X222274Y176671D01*
X222441Y177215D01*
X222449Y177229D01*
X222549Y177372D01*
X222598Y177475D01*
X222999Y177876D01*
X223123Y178021D01*
X223194Y178089D01*
X243433Y202579D01*
X243557Y202756D01*
X243684Y202931D01*
X243698Y202958D01*
X243715Y202983D01*
X243809Y203178D01*
X243907Y203372D01*
X243916Y203401D01*
X243929Y203428D01*
X243990Y203635D01*
X244055Y203842D01*
X244058Y203867D01*
X244068Y203901D01*
X244129Y204391D01*
X244126Y204469D01*
X244131Y204520D01*
X244131Y255049D01*
X244789Y256636D01*
X246004Y257851D01*
X247591Y258509D01*
X249309Y258509D01*
X250896Y257851D01*
X252111Y256636D01*
X252769Y255049D01*
X252769Y202219D01*
X252784Y202030D01*
X252782Y201931D01*
X252836Y201364D01*
X252834Y201348D01*
X252797Y201177D01*
X252791Y201064D01*
X252574Y200540D01*
X252515Y200359D01*
X252476Y200268D01*
X252309Y199724D01*
X252301Y199710D01*
X252201Y199567D01*
X252152Y199464D01*
X251751Y199063D01*
X251627Y198918D01*
X251556Y198850D01*
X231317Y174360D01*
X231193Y174183D01*
X231066Y174008D01*
X231052Y173981D01*
X231035Y173956D01*
X230941Y173760D01*
X230843Y173567D01*
X230834Y173538D01*
X230821Y173511D01*
X230760Y173304D01*
X230695Y173097D01*
X230692Y173072D01*
X230682Y173038D01*
X230621Y172548D01*
X230624Y172470D01*
X230619Y172419D01*
X230619Y120142D01*
X230625Y120066D01*
X230623Y119990D01*
X230645Y119821D01*
X230659Y119650D01*
X230677Y119576D01*
X230687Y119501D01*
X230736Y119337D01*
X230777Y119171D01*
X230807Y119102D01*
X230829Y119028D01*
X230905Y118875D01*
X230972Y118718D01*
X231013Y118654D01*
X231046Y118585D01*
X231145Y118446D01*
X231237Y118302D01*
X231288Y118245D01*
X231332Y118183D01*
X231452Y118062D01*
X231566Y117934D01*
X231625Y117886D01*
X231679Y117832D01*
X231817Y117731D01*
X231950Y117624D01*
X232016Y117587D01*
X232077Y117542D01*
X232230Y117465D01*
X232378Y117380D01*
X232450Y117354D01*
X232518Y117319D01*
X232681Y117268D01*
X232841Y117209D01*
X232916Y117194D01*
X232988Y117171D01*
X233093Y117159D01*
X233325Y117114D01*
X233561Y117107D01*
X233666Y117095D01*
X255960Y117095D01*
X256036Y117101D01*
X256112Y117099D01*
X256281Y117121D01*
X256452Y117135D01*
X256526Y117153D01*
X256601Y117163D01*
X256765Y117212D01*
X256931Y117253D01*
X257000Y117283D01*
X257074Y117305D01*
X257227Y117381D01*
X257384Y117448D01*
X257448Y117489D01*
X257517Y117522D01*
X257656Y117621D01*
X257800Y117713D01*
X257857Y117764D01*
X257919Y117808D01*
X258040Y117928D01*
X258168Y118042D01*
X258216Y118101D01*
X258270Y118155D01*
X258371Y118293D01*
X258478Y118426D01*
X258515Y118492D01*
X258560Y118553D01*
X258637Y118706D01*
X258722Y118854D01*
X258748Y118926D01*
X258783Y118994D01*
X258834Y119157D01*
X258893Y119317D01*
X258908Y119392D01*
X258931Y119464D01*
X258943Y119569D01*
X258988Y119801D01*
X258995Y120037D01*
X259007Y120142D01*
X259007Y121506D01*
X259752Y122251D01*
X277568Y122251D01*
X278330Y121489D01*
X278339Y121421D01*
X278353Y121250D01*
X278371Y121176D01*
X278381Y121101D01*
X278430Y120937D01*
X278471Y120771D01*
X278501Y120702D01*
X278523Y120628D01*
X278599Y120475D01*
X278666Y120318D01*
X278707Y120254D01*
X278740Y120185D01*
X278839Y120046D01*
X278931Y119902D01*
X278982Y119845D01*
X279026Y119783D01*
X279146Y119662D01*
X279260Y119534D01*
X279319Y119486D01*
X279373Y119432D01*
X279511Y119331D01*
X279644Y119224D01*
X279710Y119187D01*
X279771Y119142D01*
X279924Y119065D01*
X280072Y118980D01*
X280144Y118954D01*
X280212Y118919D01*
X280375Y118868D01*
X280535Y118809D01*
X280610Y118794D01*
X280682Y118771D01*
X280787Y118759D01*
X281019Y118714D01*
X281255Y118707D01*
X281360Y118695D01*
X318190Y118695D01*
X318266Y118701D01*
X318342Y118699D01*
X318511Y118721D01*
X318682Y118735D01*
X318756Y118753D01*
X318831Y118763D01*
X318995Y118812D01*
X319161Y118853D01*
X319230Y118883D01*
X319304Y118905D01*
X319457Y118981D01*
X319614Y119048D01*
X319678Y119089D01*
X319747Y119122D01*
X319886Y119221D01*
X320030Y119313D01*
X320087Y119364D01*
X320149Y119408D01*
X320270Y119528D01*
X320398Y119642D01*
X320446Y119701D01*
X320500Y119755D01*
X320601Y119893D01*
X320708Y120026D01*
X320745Y120092D01*
X320790Y120153D01*
X320867Y120306D01*
X320952Y120454D01*
X320978Y120526D01*
X321013Y120594D01*
X321064Y120757D01*
X321123Y120917D01*
X321138Y120992D01*
X321161Y121064D01*
X321173Y121169D01*
X321218Y121401D01*
X321221Y121490D01*
X321982Y122251D01*
X339801Y122251D01*
X339812Y122239D01*
X339974Y122108D01*
X340133Y121972D01*
X340166Y121953D01*
X340196Y121929D01*
X340377Y121826D01*
X340556Y121718D01*
X340591Y121704D01*
X340624Y121685D01*
X340820Y121612D01*
X341014Y121535D01*
X341051Y121526D01*
X341087Y121513D01*
X341291Y121473D01*
X341495Y121428D01*
X341534Y121426D01*
X341571Y121418D01*
X341779Y121412D01*
X341988Y121400D01*
X342026Y121404D01*
X342064Y121403D01*
X342270Y121430D01*
X342479Y121452D01*
X342515Y121463D01*
X342553Y121467D01*
X342753Y121528D01*
X342954Y121583D01*
X342989Y121599D01*
X343026Y121610D01*
X343213Y121702D01*
X343403Y121789D01*
X343434Y121810D01*
X343469Y121827D01*
X343638Y121947D01*
X343812Y122064D01*
X343840Y122090D01*
X343871Y122112D01*
X344019Y122259D01*
X344172Y122402D01*
X344195Y122432D01*
X344222Y122459D01*
X344345Y122628D01*
X344472Y122793D01*
X344490Y122827D01*
X344512Y122858D01*
X344606Y123044D01*
X344705Y123228D01*
X344717Y123264D01*
X344735Y123298D01*
X344797Y123498D01*
X344865Y123695D01*
X344871Y123732D01*
X344883Y123769D01*
X344893Y123861D01*
X344948Y124181D01*
X344949Y124353D01*
X344959Y124447D01*
X344959Y126403D01*
X344956Y126441D01*
X344958Y126480D01*
X344936Y126688D01*
X344919Y126895D01*
X344910Y126932D01*
X344906Y126970D01*
X344851Y127171D01*
X344801Y127374D01*
X344786Y127409D01*
X344775Y127446D01*
X344688Y127636D01*
X344606Y127827D01*
X344586Y127860D01*
X344570Y127894D01*
X344453Y128068D01*
X344341Y128243D01*
X344316Y128272D01*
X344294Y128304D01*
X344151Y128456D01*
X344012Y128611D01*
X343983Y128635D01*
X343956Y128663D01*
X343791Y128790D01*
X343628Y128921D01*
X343595Y128940D01*
X343565Y128963D01*
X343381Y129062D01*
X343200Y129165D01*
X343164Y129179D01*
X343130Y129197D01*
X342933Y129264D01*
X342737Y129337D01*
X342700Y129344D01*
X342664Y129357D01*
X342458Y129392D01*
X342253Y129432D01*
X342215Y129433D01*
X342177Y129439D01*
X341968Y129440D01*
X341760Y129447D01*
X341722Y129442D01*
X341684Y129442D01*
X341477Y129410D01*
X341271Y129383D01*
X341234Y129372D01*
X341197Y129366D01*
X340999Y129300D01*
X340799Y129240D01*
X340764Y129223D01*
X340728Y129211D01*
X340543Y129115D01*
X340355Y129023D01*
X340324Y129001D01*
X340290Y128983D01*
X340217Y128925D01*
X339953Y128738D01*
X339831Y128617D01*
X339809Y128599D01*
X321982Y128599D01*
X321237Y129344D01*
X321237Y140556D01*
X321982Y141301D01*
X339798Y141301D01*
X340543Y140556D01*
X340543Y132843D01*
X340546Y132805D01*
X340544Y132766D01*
X340566Y132558D01*
X340583Y132351D01*
X340592Y132314D01*
X340596Y132276D01*
X340651Y132074D01*
X340701Y131872D01*
X340716Y131837D01*
X340727Y131800D01*
X340814Y131610D01*
X340896Y131419D01*
X340916Y131386D01*
X340932Y131352D01*
X341049Y131178D01*
X341161Y131003D01*
X341186Y130974D01*
X341208Y130942D01*
X341351Y130790D01*
X341490Y130635D01*
X341519Y130611D01*
X341546Y130583D01*
X341711Y130456D01*
X341874Y130325D01*
X341907Y130306D01*
X341937Y130283D01*
X342121Y130184D01*
X342302Y130081D01*
X342338Y130067D01*
X342372Y130049D01*
X342569Y129982D01*
X342765Y129909D01*
X342802Y129902D01*
X342838Y129889D01*
X343044Y129855D01*
X343249Y129814D01*
X343287Y129813D01*
X343325Y129807D01*
X343534Y129806D01*
X343742Y129799D01*
X343780Y129804D01*
X343818Y129804D01*
X344024Y129836D01*
X344231Y129864D01*
X344268Y129875D01*
X344305Y129881D01*
X344504Y129946D01*
X344703Y130006D01*
X344738Y130023D01*
X344774Y130035D01*
X344960Y130131D01*
X345147Y130223D01*
X345178Y130245D01*
X345212Y130263D01*
X345284Y130321D01*
X345549Y130508D01*
X345671Y130629D01*
X345745Y130688D01*
X345940Y130883D01*
X346519Y131218D01*
X347165Y131391D01*
X348953Y131391D01*
X348953Y123850D01*
X348958Y123785D01*
X348956Y123739D01*
X348957Y123731D01*
X348956Y123698D01*
X348979Y123529D01*
X348993Y123359D01*
X349011Y123285D01*
X349021Y123209D01*
X349070Y123045D01*
X349111Y122880D01*
X349141Y122810D01*
X349163Y122737D01*
X349238Y122583D01*
X349306Y122426D01*
X349347Y122362D01*
X349380Y122294D01*
X349479Y122154D01*
X349571Y122010D01*
X349622Y121954D01*
X349666Y121891D01*
X349786Y121770D01*
X349900Y121642D01*
X349959Y121594D01*
X350012Y121540D01*
X350013Y121540D01*
X350151Y121439D01*
X350284Y121332D01*
X350350Y121294D01*
X350412Y121249D01*
X350564Y121173D01*
X350713Y121088D01*
X350784Y121061D01*
X350852Y121027D01*
X351015Y120976D01*
X351175Y120916D01*
X351250Y120902D01*
X351323Y120879D01*
X351427Y120867D01*
X351659Y120822D01*
X351895Y120814D01*
X352000Y120803D01*
X359041Y120803D01*
X359041Y118515D01*
X358868Y117869D01*
X358533Y117290D01*
X357850Y116607D01*
X357801Y116549D01*
X357745Y116496D01*
X357641Y116361D01*
X357530Y116231D01*
X357491Y116165D01*
X357445Y116105D01*
X357364Y115955D01*
X357276Y115808D01*
X357247Y115737D01*
X357211Y115670D01*
X357156Y115509D01*
X357093Y115350D01*
X357076Y115276D01*
X357051Y115204D01*
X357023Y115035D01*
X356986Y114869D01*
X356982Y114792D01*
X356969Y114717D01*
X356968Y114546D01*
X356958Y114376D01*
X356966Y114300D01*
X356966Y114224D01*
X356992Y114055D01*
X357010Y113885D01*
X357031Y113812D01*
X357042Y113737D01*
X357096Y113574D01*
X357141Y113410D01*
X357173Y113341D01*
X357197Y113268D01*
X357276Y113116D01*
X357347Y112961D01*
X357389Y112898D01*
X357425Y112830D01*
X357490Y112748D01*
X357622Y112552D01*
X357771Y112394D01*
X357771Y102692D01*
X357777Y102616D01*
X357775Y102540D01*
X357797Y102371D01*
X357811Y102200D01*
X357829Y102126D01*
X357839Y102051D01*
X357888Y101887D01*
X357929Y101721D01*
X357959Y101652D01*
X357981Y101578D01*
X358057Y101425D01*
X358124Y101268D01*
X358165Y101204D01*
X358198Y101135D01*
X358297Y100996D01*
X358389Y100852D01*
X358440Y100795D01*
X358484Y100733D01*
X358604Y100612D01*
X358718Y100484D01*
X358777Y100436D01*
X358831Y100382D01*
X358969Y100281D01*
X359102Y100174D01*
X359168Y100137D01*
X359229Y100092D01*
X359382Y100015D01*
X359530Y99930D01*
X359602Y99904D01*
X359670Y99869D01*
X359833Y99818D01*
X359993Y99759D01*
X360068Y99744D01*
X360140Y99721D01*
X360245Y99709D01*
X360477Y99664D01*
X360713Y99657D01*
X360818Y99645D01*
X361508Y99645D01*
X371095Y90058D01*
X371095Y67244D01*
X371096Y67234D01*
X371095Y67224D01*
X371115Y66989D01*
X371135Y66752D01*
X371137Y66743D01*
X371138Y66733D01*
X371149Y66695D01*
X371253Y66273D01*
X371305Y66153D01*
X371327Y66078D01*
X372083Y64252D01*
X372083Y62748D01*
X371507Y61357D01*
X370443Y60293D01*
X369052Y59717D01*
X367548Y59717D01*
G37*
%LPD*%
%LPC*%
G36*
X300217Y224347D02*
X300217Y224347D01*
X299866Y224344D01*
X299783Y224347D01*
X299422Y224321D01*
X299402Y224329D01*
X299326Y224343D01*
X299203Y224382D01*
X298768Y224447D01*
X298732Y224453D01*
X296908Y224584D01*
X296764Y224582D01*
X296621Y224591D01*
X296518Y224580D01*
X296415Y224579D01*
X296273Y224555D01*
X296218Y224549D01*
X295853Y224628D01*
X295504Y224675D01*
X295422Y224690D01*
X295062Y224716D01*
X295044Y224726D01*
X294970Y224751D01*
X294854Y224807D01*
X294432Y224933D01*
X294398Y224945D01*
X292611Y225333D01*
X292468Y225353D01*
X292328Y225381D01*
X292225Y225385D01*
X292122Y225399D01*
X291978Y225395D01*
X291923Y225397D01*
X291573Y225528D01*
X291235Y225623D01*
X291155Y225650D01*
X290802Y225727D01*
X290786Y225740D01*
X290716Y225775D01*
X290609Y225847D01*
X290210Y226031D01*
X290177Y226048D01*
X288464Y226687D01*
X288326Y226726D01*
X288191Y226774D01*
X288089Y226793D01*
X287989Y226821D01*
X287847Y226838D01*
X287792Y226848D01*
X287464Y227027D01*
X287142Y227170D01*
X287069Y227207D01*
X286730Y227334D01*
X286715Y227349D01*
X286652Y227393D01*
X286556Y227480D01*
X286187Y227720D01*
X286157Y227741D01*
X284552Y228617D01*
X284421Y228675D01*
X284294Y228742D01*
X284196Y228775D01*
X284101Y228818D01*
X283962Y228854D01*
X283910Y228872D01*
X283611Y229096D01*
X283313Y229283D01*
X283245Y229331D01*
X282927Y229504D01*
X282915Y229521D01*
X282859Y229574D01*
X282776Y229674D01*
X282445Y229963D01*
X282418Y229988D01*
X280955Y231084D01*
X280833Y231160D01*
X280717Y231245D01*
X280625Y231292D01*
X280537Y231347D01*
X280405Y231402D01*
X280355Y231428D01*
X280091Y231692D01*
X279823Y231919D01*
X279762Y231976D01*
X279473Y232193D01*
X279463Y232212D01*
X279415Y232272D01*
X279347Y232383D01*
X279060Y232716D01*
X279038Y232745D01*
X277745Y234038D01*
X277636Y234131D01*
X277533Y234231D01*
X277448Y234290D01*
X277369Y234357D01*
X277246Y234431D01*
X277200Y234463D01*
X276976Y234762D01*
X276743Y235026D01*
X276692Y235091D01*
X276436Y235347D01*
X276429Y235366D01*
X276390Y235433D01*
X276339Y235552D01*
X276103Y235922D01*
X276084Y235955D01*
X274988Y237418D01*
X274893Y237526D01*
X274806Y237640D01*
X274730Y237711D01*
X274661Y237788D01*
X274550Y237879D01*
X274510Y237917D01*
X274331Y238245D01*
X274138Y238539D01*
X274096Y238611D01*
X273879Y238900D01*
X273875Y238921D01*
X273845Y238993D01*
X273812Y239118D01*
X273631Y239518D01*
X273617Y239552D01*
X272741Y241157D01*
X272712Y241200D01*
X272691Y241243D01*
X272641Y241313D01*
X272591Y241402D01*
X272527Y241483D01*
X272470Y241569D01*
X272425Y241618D01*
X272406Y241645D01*
X272358Y241694D01*
X272338Y241719D01*
X272207Y242069D01*
X272058Y242387D01*
X272027Y242464D01*
X271853Y242782D01*
X271852Y242802D01*
X271833Y242878D01*
X271818Y243006D01*
X271696Y243428D01*
X271687Y243464D01*
X271048Y245177D01*
X270987Y245307D01*
X270935Y245441D01*
X270883Y245530D01*
X270839Y245624D01*
X270758Y245742D01*
X270729Y245790D01*
X270650Y246155D01*
X270548Y246492D01*
X270528Y246573D01*
X270401Y246912D01*
X270403Y246932D01*
X270395Y247010D01*
X270398Y247139D01*
X270337Y247575D01*
X270333Y247611D01*
X269945Y249398D01*
X269903Y249535D01*
X269871Y249675D01*
X269831Y249771D01*
X269801Y249870D01*
X269738Y249998D01*
X269717Y250050D01*
X269690Y250422D01*
X269637Y250770D01*
X269628Y250853D01*
X269551Y251206D01*
X269556Y251227D01*
X269559Y251304D01*
X269581Y251432D01*
X269582Y251871D01*
X269584Y251908D01*
X269453Y253732D01*
X269432Y253874D01*
X269419Y254017D01*
X269394Y254117D01*
X269378Y254220D01*
X269334Y254356D01*
X269320Y254410D01*
X269347Y254783D01*
X269345Y255044D01*
X269346Y255075D01*
X269344Y255085D01*
X269344Y255135D01*
X269347Y255217D01*
X269321Y255578D01*
X269329Y255597D01*
X269343Y255674D01*
X269382Y255797D01*
X269447Y256231D01*
X269453Y256268D01*
X269584Y258092D01*
X269582Y258236D01*
X269591Y258379D01*
X269580Y258482D01*
X269579Y258585D01*
X269555Y258727D01*
X269549Y258782D01*
X269628Y259147D01*
X269675Y259496D01*
X269690Y259578D01*
X269716Y259938D01*
X269726Y259956D01*
X269751Y260030D01*
X269807Y260146D01*
X269933Y260568D01*
X269945Y260602D01*
X270333Y262389D01*
X270353Y262532D01*
X270381Y262673D01*
X270385Y262776D01*
X270399Y262878D01*
X270395Y263022D01*
X270397Y263077D01*
X270528Y263427D01*
X270623Y263765D01*
X270650Y263845D01*
X270727Y264198D01*
X270740Y264214D01*
X270775Y264284D01*
X270847Y264391D01*
X271031Y264790D01*
X271048Y264823D01*
X271687Y266536D01*
X271726Y266674D01*
X271775Y266810D01*
X271793Y266911D01*
X271821Y267011D01*
X271838Y267153D01*
X271848Y267208D01*
X272027Y267536D01*
X272170Y267857D01*
X272207Y267931D01*
X272334Y268270D01*
X272349Y268285D01*
X272393Y268348D01*
X272480Y268444D01*
X272720Y268813D01*
X272741Y268843D01*
X273617Y270448D01*
X273675Y270579D01*
X273742Y270706D01*
X273775Y270804D01*
X273818Y270899D01*
X273854Y271038D01*
X273872Y271090D01*
X274096Y271389D01*
X274130Y271443D01*
X274167Y271490D01*
X274245Y271627D01*
X274283Y271687D01*
X274331Y271755D01*
X274504Y272073D01*
X274521Y272085D01*
X274574Y272141D01*
X274674Y272224D01*
X274963Y272555D01*
X274988Y272582D01*
X276084Y274045D01*
X276160Y274167D01*
X276245Y274283D01*
X276292Y274375D01*
X276347Y274463D01*
X276402Y274595D01*
X276428Y274645D01*
X276692Y274909D01*
X276919Y275177D01*
X276976Y275238D01*
X277193Y275527D01*
X277212Y275537D01*
X277272Y275585D01*
X277383Y275653D01*
X277717Y275940D01*
X277745Y275962D01*
X279038Y277255D01*
X279131Y277365D01*
X279231Y277467D01*
X279290Y277552D01*
X279357Y277631D01*
X279432Y277754D01*
X279463Y277800D01*
X279762Y278024D01*
X280026Y278256D01*
X280091Y278308D01*
X280347Y278564D01*
X280366Y278571D01*
X280433Y278610D01*
X280552Y278661D01*
X280922Y278897D01*
X280955Y278916D01*
X282418Y280012D01*
X282526Y280107D01*
X282640Y280194D01*
X282711Y280270D01*
X282788Y280339D01*
X282879Y280450D01*
X282917Y280490D01*
X283245Y280669D01*
X283539Y280862D01*
X283611Y280904D01*
X283900Y281121D01*
X283921Y281125D01*
X283993Y281155D01*
X284118Y281188D01*
X284517Y281369D01*
X284552Y281383D01*
X286157Y282259D01*
X286277Y282338D01*
X286402Y282409D01*
X286483Y282473D01*
X286569Y282530D01*
X286675Y282627D01*
X286719Y282662D01*
X287069Y282793D01*
X287387Y282942D01*
X287464Y282973D01*
X287782Y283147D01*
X287802Y283148D01*
X287878Y283167D01*
X288006Y283182D01*
X288428Y283304D01*
X288464Y283313D01*
X290177Y283952D01*
X290307Y284013D01*
X290441Y284065D01*
X290530Y284117D01*
X290624Y284161D01*
X290743Y284242D01*
X290790Y284271D01*
X291155Y284350D01*
X291492Y284452D01*
X291573Y284472D01*
X291912Y284599D01*
X291932Y284597D01*
X292010Y284605D01*
X292139Y284602D01*
X292575Y284663D01*
X292611Y284667D01*
X294398Y285055D01*
X294535Y285097D01*
X294675Y285129D01*
X294771Y285169D01*
X294870Y285199D01*
X294999Y285262D01*
X295050Y285283D01*
X295422Y285310D01*
X295770Y285363D01*
X295853Y285372D01*
X296206Y285449D01*
X296226Y285444D01*
X296304Y285441D01*
X296432Y285419D01*
X296871Y285418D01*
X296908Y285416D01*
X298732Y285547D01*
X298874Y285568D01*
X299017Y285581D01*
X299117Y285606D01*
X299220Y285622D01*
X299356Y285666D01*
X299410Y285680D01*
X299783Y285653D01*
X300135Y285656D01*
X300217Y285653D01*
X300578Y285679D01*
X300597Y285671D01*
X300674Y285657D01*
X300797Y285618D01*
X301231Y285553D01*
X301268Y285547D01*
X303092Y285416D01*
X303236Y285418D01*
X303379Y285409D01*
X303482Y285420D01*
X303585Y285421D01*
X303727Y285445D01*
X303782Y285451D01*
X304147Y285372D01*
X304496Y285325D01*
X304578Y285310D01*
X304938Y285284D01*
X304956Y285274D01*
X305030Y285249D01*
X305146Y285193D01*
X305568Y285067D01*
X305602Y285055D01*
X307389Y284667D01*
X307532Y284647D01*
X307672Y284619D01*
X307776Y284615D01*
X307878Y284601D01*
X308022Y284605D01*
X308077Y284603D01*
X308427Y284472D01*
X308765Y284377D01*
X308845Y284350D01*
X309198Y284273D01*
X309214Y284260D01*
X309284Y284225D01*
X309391Y284153D01*
X309790Y283969D01*
X309823Y283952D01*
X311536Y283313D01*
X311674Y283274D01*
X311809Y283226D01*
X311911Y283207D01*
X312011Y283179D01*
X312153Y283162D01*
X312208Y283152D01*
X312536Y282973D01*
X312857Y282830D01*
X312931Y282793D01*
X313270Y282666D01*
X313285Y282651D01*
X313348Y282607D01*
X313444Y282520D01*
X313813Y282280D01*
X313843Y282259D01*
X315448Y281383D01*
X315579Y281325D01*
X315706Y281258D01*
X315804Y281225D01*
X315899Y281182D01*
X316038Y281146D01*
X316090Y281128D01*
X316389Y280904D01*
X316687Y280717D01*
X316755Y280669D01*
X317073Y280496D01*
X317085Y280479D01*
X317141Y280426D01*
X317224Y280326D01*
X317555Y280037D01*
X317582Y280012D01*
X319045Y278916D01*
X319167Y278840D01*
X319283Y278755D01*
X319375Y278708D01*
X319463Y278653D01*
X319595Y278598D01*
X319645Y278572D01*
X319909Y278308D01*
X320177Y278081D01*
X320238Y278024D01*
X320527Y277807D01*
X320537Y277788D01*
X320585Y277728D01*
X320653Y277617D01*
X320940Y277284D01*
X320962Y277255D01*
X322255Y275962D01*
X322364Y275869D01*
X322467Y275769D01*
X322552Y275710D01*
X322631Y275643D01*
X322754Y275569D01*
X322800Y275537D01*
X323024Y275238D01*
X323257Y274974D01*
X323308Y274909D01*
X323564Y274653D01*
X323571Y274634D01*
X323610Y274567D01*
X323661Y274448D01*
X323897Y274078D01*
X323916Y274045D01*
X325012Y272582D01*
X325107Y272474D01*
X325194Y272360D01*
X325270Y272289D01*
X325339Y272212D01*
X325450Y272121D01*
X325490Y272083D01*
X325669Y271755D01*
X325709Y271694D01*
X325731Y271649D01*
X325830Y271510D01*
X325862Y271461D01*
X325904Y271389D01*
X326121Y271100D01*
X326125Y271079D01*
X326155Y271007D01*
X326188Y270882D01*
X326369Y270483D01*
X326383Y270448D01*
X327259Y268843D01*
X327338Y268723D01*
X327409Y268598D01*
X327473Y268517D01*
X327530Y268431D01*
X327627Y268325D01*
X327662Y268281D01*
X327793Y267931D01*
X327942Y267613D01*
X327973Y267536D01*
X328147Y267218D01*
X328148Y267198D01*
X328167Y267122D01*
X328182Y266994D01*
X328304Y266572D01*
X328313Y266536D01*
X328952Y264823D01*
X329013Y264693D01*
X329065Y264559D01*
X329117Y264470D01*
X329161Y264376D01*
X329242Y264257D01*
X329271Y264210D01*
X329350Y263845D01*
X329452Y263508D01*
X329472Y263427D01*
X329599Y263088D01*
X329597Y263068D01*
X329605Y262990D01*
X329602Y262861D01*
X329663Y262426D01*
X329667Y262389D01*
X330055Y260602D01*
X330097Y260465D01*
X330129Y260325D01*
X330169Y260229D01*
X330199Y260130D01*
X330262Y260002D01*
X330283Y259950D01*
X330310Y259578D01*
X330363Y259230D01*
X330372Y259147D01*
X330449Y258794D01*
X330444Y258773D01*
X330441Y258696D01*
X330419Y258568D01*
X330418Y258129D01*
X330416Y258092D01*
X330547Y256268D01*
X330568Y256126D01*
X330581Y255983D01*
X330606Y255883D01*
X330622Y255780D01*
X330666Y255644D01*
X330680Y255590D01*
X330653Y255217D01*
X330656Y254866D01*
X330653Y254783D01*
X330679Y254422D01*
X330671Y254403D01*
X330657Y254326D01*
X330618Y254203D01*
X330553Y253769D01*
X330547Y253732D01*
X330416Y251908D01*
X330418Y251764D01*
X330409Y251621D01*
X330420Y251518D01*
X330421Y251415D01*
X330445Y251273D01*
X330451Y251218D01*
X330372Y250853D01*
X330325Y250504D01*
X330310Y250422D01*
X330284Y250062D01*
X330274Y250044D01*
X330249Y249970D01*
X330193Y249854D01*
X330067Y249432D01*
X330055Y249398D01*
X329667Y247611D01*
X329647Y247468D01*
X329619Y247328D01*
X329615Y247225D01*
X329601Y247122D01*
X329605Y246978D01*
X329603Y246923D01*
X329472Y246573D01*
X329377Y246235D01*
X329350Y246155D01*
X329273Y245802D01*
X329260Y245786D01*
X329225Y245716D01*
X329153Y245609D01*
X328969Y245210D01*
X328952Y245177D01*
X328313Y243464D01*
X328274Y243326D01*
X328226Y243191D01*
X328207Y243089D01*
X328179Y242989D01*
X328162Y242847D01*
X328152Y242792D01*
X327973Y242464D01*
X327830Y242142D01*
X327793Y242069D01*
X327666Y241730D01*
X327651Y241715D01*
X327606Y241652D01*
X327520Y241556D01*
X327461Y241465D01*
X327410Y241403D01*
X327340Y241278D01*
X327281Y241187D01*
X327259Y241157D01*
X326383Y239552D01*
X326325Y239421D01*
X326258Y239294D01*
X326225Y239196D01*
X326182Y239101D01*
X326146Y238962D01*
X326128Y238910D01*
X325904Y238611D01*
X325717Y238313D01*
X325669Y238245D01*
X325496Y237927D01*
X325479Y237915D01*
X325426Y237859D01*
X325326Y237776D01*
X325037Y237445D01*
X325012Y237418D01*
X323916Y235955D01*
X323840Y235833D01*
X323755Y235717D01*
X323708Y235625D01*
X323653Y235537D01*
X323598Y235405D01*
X323572Y235355D01*
X323308Y235091D01*
X323081Y234823D01*
X323024Y234762D01*
X322807Y234473D01*
X322788Y234463D01*
X322728Y234415D01*
X322617Y234347D01*
X322284Y234060D01*
X322255Y234038D01*
X320962Y232745D01*
X320869Y232636D01*
X320769Y232533D01*
X320710Y232448D01*
X320643Y232369D01*
X320569Y232246D01*
X320537Y232200D01*
X320238Y231976D01*
X319974Y231743D01*
X319909Y231692D01*
X319653Y231436D01*
X319634Y231429D01*
X319567Y231390D01*
X319448Y231339D01*
X319078Y231103D01*
X319045Y231084D01*
X317582Y229988D01*
X317474Y229893D01*
X317360Y229806D01*
X317289Y229730D01*
X317212Y229661D01*
X317121Y229550D01*
X317083Y229510D01*
X316755Y229331D01*
X316461Y229138D01*
X316389Y229096D01*
X316100Y228879D01*
X316079Y228875D01*
X316007Y228845D01*
X315882Y228812D01*
X315482Y228631D01*
X315448Y228617D01*
X313843Y227741D01*
X313723Y227662D01*
X313598Y227591D01*
X313517Y227527D01*
X313431Y227470D01*
X313325Y227373D01*
X313281Y227338D01*
X312931Y227207D01*
X312613Y227058D01*
X312536Y227027D01*
X312218Y226853D01*
X312198Y226852D01*
X312122Y226833D01*
X311994Y226818D01*
X311572Y226696D01*
X311536Y226687D01*
X309823Y226048D01*
X309693Y225987D01*
X309559Y225935D01*
X309470Y225883D01*
X309376Y225839D01*
X309258Y225758D01*
X309210Y225729D01*
X308845Y225650D01*
X308508Y225548D01*
X308427Y225528D01*
X308088Y225401D01*
X308068Y225403D01*
X307990Y225395D01*
X307861Y225398D01*
X307426Y225337D01*
X307389Y225333D01*
X305602Y224945D01*
X305465Y224903D01*
X305325Y224871D01*
X305229Y224831D01*
X305130Y224801D01*
X305002Y224738D01*
X304950Y224717D01*
X304578Y224690D01*
X304230Y224637D01*
X304147Y224628D01*
X303794Y224551D01*
X303774Y224556D01*
X303696Y224559D01*
X303568Y224581D01*
X303130Y224582D01*
X303092Y224584D01*
X301268Y224453D01*
X301126Y224432D01*
X300983Y224419D01*
X300883Y224394D01*
X300780Y224378D01*
X300644Y224334D01*
X300590Y224320D01*
X300217Y224347D01*
G37*
%LPD*%
%LPC*%
G36*
X296697Y855000D02*
X296697Y855000D01*
X296697Y865744D01*
X296959Y865636D01*
X298103Y864871D01*
X298743Y864231D01*
X298801Y864182D01*
X298854Y864126D01*
X298989Y864022D01*
X299119Y863912D01*
X299185Y863872D01*
X299245Y863826D01*
X299395Y863745D01*
X299542Y863657D01*
X299613Y863629D01*
X299680Y863593D01*
X299841Y863537D01*
X300000Y863474D01*
X300074Y863457D01*
X300146Y863433D01*
X300314Y863404D01*
X300481Y863367D01*
X300558Y863363D01*
X300633Y863350D01*
X300803Y863349D01*
X300974Y863339D01*
X301050Y863348D01*
X301126Y863347D01*
X301294Y863374D01*
X301465Y863392D01*
X301538Y863412D01*
X301614Y863424D01*
X301776Y863477D01*
X301940Y863522D01*
X302009Y863554D01*
X302082Y863578D01*
X302234Y863657D01*
X302389Y863728D01*
X302452Y863771D01*
X302520Y863806D01*
X302602Y863871D01*
X302798Y864003D01*
X302971Y864165D01*
X303053Y864231D01*
X303112Y864291D01*
X305213Y865161D01*
X307487Y865161D01*
X309588Y864291D01*
X310545Y863333D01*
X310603Y863284D01*
X310655Y863228D01*
X310791Y863124D01*
X310921Y863014D01*
X310986Y862974D01*
X311047Y862928D01*
X311197Y862847D01*
X311344Y862759D01*
X311414Y862731D01*
X311482Y862695D01*
X311643Y862639D01*
X311802Y862576D01*
X311876Y862559D01*
X311948Y862535D01*
X312117Y862506D01*
X312283Y862469D01*
X312360Y862465D01*
X312435Y862452D01*
X312605Y862451D01*
X312776Y862441D01*
X312852Y862449D01*
X312928Y862449D01*
X313097Y862475D01*
X313267Y862494D01*
X313340Y862514D01*
X313415Y862526D01*
X313578Y862579D01*
X313742Y862624D01*
X313811Y862656D01*
X313884Y862680D01*
X314036Y862759D01*
X314191Y862830D01*
X314254Y862872D01*
X314322Y862908D01*
X314404Y862973D01*
X314600Y863105D01*
X314772Y863267D01*
X314855Y863333D01*
X315812Y864291D01*
X317913Y865161D01*
X320187Y865161D01*
X322288Y864291D01*
X323896Y862683D01*
X324766Y860582D01*
X324766Y849418D01*
X323896Y847317D01*
X322288Y845709D01*
X320187Y844839D01*
X317913Y844839D01*
X315812Y845709D01*
X314855Y846667D01*
X314797Y846716D01*
X314744Y846772D01*
X314609Y846876D01*
X314479Y846986D01*
X314413Y847026D01*
X314353Y847072D01*
X314203Y847153D01*
X314056Y847241D01*
X313985Y847269D01*
X313918Y847305D01*
X313757Y847361D01*
X313598Y847424D01*
X313524Y847441D01*
X313452Y847465D01*
X313283Y847494D01*
X313116Y847531D01*
X313040Y847535D01*
X312965Y847548D01*
X312794Y847549D01*
X312624Y847559D01*
X312548Y847551D01*
X312472Y847551D01*
X312303Y847524D01*
X312133Y847506D01*
X312060Y847486D01*
X311985Y847474D01*
X311822Y847421D01*
X311658Y847376D01*
X311588Y847344D01*
X311516Y847320D01*
X311365Y847241D01*
X311209Y847170D01*
X311146Y847127D01*
X311078Y847092D01*
X310996Y847027D01*
X310800Y846895D01*
X310628Y846733D01*
X310545Y846667D01*
X309588Y845709D01*
X307487Y844839D01*
X305213Y844839D01*
X303112Y845709D01*
X303053Y845769D01*
X302995Y845818D01*
X302943Y845874D01*
X302807Y845978D01*
X302677Y846088D01*
X302612Y846128D01*
X302551Y846174D01*
X302400Y846255D01*
X302254Y846343D01*
X302184Y846371D01*
X302116Y846407D01*
X301954Y846463D01*
X301796Y846526D01*
X301722Y846543D01*
X301650Y846567D01*
X301481Y846596D01*
X301315Y846633D01*
X301239Y846637D01*
X301163Y846650D01*
X300992Y846651D01*
X300822Y846661D01*
X300746Y846653D01*
X300670Y846653D01*
X300501Y846626D01*
X300332Y846608D01*
X300258Y846588D01*
X300183Y846576D01*
X300020Y846523D01*
X299856Y846478D01*
X299786Y846446D01*
X299714Y846422D01*
X299563Y846343D01*
X299407Y846272D01*
X299344Y846230D01*
X299276Y846194D01*
X299194Y846128D01*
X298998Y845997D01*
X298826Y845835D01*
X298743Y845769D01*
X298103Y845129D01*
X296959Y844364D01*
X296697Y844256D01*
X296697Y855000D01*
G37*
%LPD*%
%LPC*%
G36*
X249903Y633737D02*
X249903Y633737D01*
X249798Y633749D01*
X239959Y633749D01*
X239959Y637335D01*
X240132Y637981D01*
X240467Y638560D01*
X240650Y638743D01*
X240699Y638801D01*
X240755Y638854D01*
X240859Y638989D01*
X240970Y639119D01*
X241009Y639185D01*
X241055Y639245D01*
X241136Y639395D01*
X241224Y639542D01*
X241253Y639613D01*
X241289Y639680D01*
X241344Y639842D01*
X241407Y640000D01*
X241424Y640074D01*
X241449Y640147D01*
X241477Y640315D01*
X241514Y640482D01*
X241518Y640558D01*
X241531Y640633D01*
X241532Y640803D01*
X241542Y640974D01*
X241534Y641050D01*
X241534Y641126D01*
X241508Y641295D01*
X241490Y641465D01*
X241469Y641538D01*
X241457Y641614D01*
X241404Y641776D01*
X241359Y641940D01*
X241327Y642010D01*
X241303Y642082D01*
X241229Y642224D01*
X241229Y656526D01*
X241974Y657271D01*
X244017Y657271D01*
X244137Y657280D01*
X244257Y657280D01*
X244383Y657300D01*
X244509Y657311D01*
X244626Y657340D01*
X244744Y657359D01*
X244865Y657399D01*
X244988Y657429D01*
X245098Y657477D01*
X245212Y657515D01*
X245325Y657574D01*
X245441Y657624D01*
X245543Y657689D01*
X245649Y657744D01*
X245750Y657821D01*
X245857Y657889D01*
X245947Y657969D01*
X246043Y658041D01*
X246130Y658133D01*
X246225Y658218D01*
X246301Y658311D01*
X246384Y658398D01*
X246455Y658503D01*
X246535Y658602D01*
X246594Y658706D01*
X246662Y658805D01*
X246716Y658920D01*
X246779Y659030D01*
X246821Y659143D01*
X246872Y659252D01*
X246894Y659340D01*
X246951Y659493D01*
X247016Y659829D01*
X247038Y659913D01*
X247294Y661825D01*
X248156Y663311D01*
X249521Y664354D01*
X251182Y664795D01*
X252885Y664566D01*
X254371Y663704D01*
X255414Y662339D01*
X255856Y660674D01*
X255853Y660659D01*
X255846Y660445D01*
X255835Y660230D01*
X255838Y660198D01*
X255837Y660166D01*
X255866Y659952D01*
X255889Y659740D01*
X255898Y659709D01*
X255902Y659677D01*
X255964Y659471D01*
X256021Y659264D01*
X256035Y659235D01*
X256044Y659204D01*
X256139Y659011D01*
X256229Y658817D01*
X256247Y658790D01*
X256261Y658761D01*
X256385Y658587D01*
X256506Y658409D01*
X256528Y658385D01*
X256547Y658359D01*
X256697Y658207D01*
X256845Y658050D01*
X256871Y658031D01*
X256893Y658008D01*
X257067Y657882D01*
X257238Y657752D01*
X257266Y657737D01*
X257292Y657718D01*
X257484Y657621D01*
X257673Y657520D01*
X257704Y657510D01*
X257733Y657495D01*
X257834Y657463D01*
X258771Y656526D01*
X258771Y642242D01*
X258748Y642184D01*
X258711Y642116D01*
X258656Y641955D01*
X258593Y641796D01*
X258576Y641722D01*
X258551Y641650D01*
X258523Y641481D01*
X258486Y641315D01*
X258482Y641239D01*
X258469Y641163D01*
X258468Y640992D01*
X258458Y640822D01*
X258466Y640746D01*
X258466Y640670D01*
X258492Y640501D01*
X258510Y640332D01*
X258531Y640258D01*
X258542Y640183D01*
X258596Y640020D01*
X258641Y639856D01*
X258673Y639787D01*
X258697Y639714D01*
X258776Y639563D01*
X258847Y639407D01*
X258889Y639344D01*
X258925Y639277D01*
X258990Y639194D01*
X259122Y638998D01*
X259284Y638826D01*
X259350Y638743D01*
X259533Y638560D01*
X259868Y637981D01*
X260041Y637335D01*
X260041Y633749D01*
X250202Y633749D01*
X250126Y633743D01*
X250050Y633745D01*
X249973Y633735D01*
X249903Y633737D01*
G37*
%LPD*%
%LPC*%
G36*
X294141Y515681D02*
X294141Y515681D01*
X292554Y516339D01*
X291339Y517554D01*
X290681Y519141D01*
X290681Y530859D01*
X290997Y531622D01*
X291000Y531631D01*
X291005Y531640D01*
X291076Y531866D01*
X291149Y532092D01*
X291150Y532101D01*
X291153Y532110D01*
X291157Y532151D01*
X291222Y532579D01*
X291220Y532710D01*
X291229Y532788D01*
X291229Y537758D01*
X291252Y537816D01*
X291289Y537884D01*
X291344Y538045D01*
X291407Y538204D01*
X291424Y538278D01*
X291449Y538350D01*
X291477Y538519D01*
X291514Y538685D01*
X291518Y538761D01*
X291531Y538837D01*
X291532Y539008D01*
X291542Y539178D01*
X291534Y539254D01*
X291534Y539330D01*
X291508Y539499D01*
X291490Y539668D01*
X291469Y539742D01*
X291458Y539817D01*
X291404Y539980D01*
X291359Y540144D01*
X291327Y540213D01*
X291303Y540286D01*
X291224Y540437D01*
X291153Y540593D01*
X291111Y540656D01*
X291075Y540723D01*
X291010Y540806D01*
X290878Y541002D01*
X290716Y541174D01*
X290650Y541257D01*
X290467Y541440D01*
X290132Y542019D01*
X289959Y542665D01*
X289959Y546251D01*
X299798Y546251D01*
X299874Y546257D01*
X299950Y546255D01*
X300027Y546265D01*
X300097Y546263D01*
X300202Y546251D01*
X310041Y546251D01*
X310041Y542665D01*
X309868Y542019D01*
X309533Y541440D01*
X309350Y541257D01*
X309301Y541199D01*
X309245Y541146D01*
X309141Y541011D01*
X309030Y540881D01*
X308991Y540815D01*
X308945Y540755D01*
X308864Y540605D01*
X308776Y540458D01*
X308747Y540387D01*
X308711Y540320D01*
X308656Y540158D01*
X308593Y540000D01*
X308576Y539926D01*
X308551Y539853D01*
X308523Y539685D01*
X308486Y539518D01*
X308482Y539442D01*
X308469Y539367D01*
X308468Y539197D01*
X308458Y539026D01*
X308466Y538950D01*
X308466Y538874D01*
X308492Y538705D01*
X308510Y538535D01*
X308531Y538462D01*
X308543Y538386D01*
X308596Y538224D01*
X308641Y538060D01*
X308673Y537990D01*
X308697Y537918D01*
X308771Y537776D01*
X308771Y523474D01*
X308026Y522729D01*
X302366Y522729D01*
X302290Y522723D01*
X302214Y522725D01*
X302045Y522703D01*
X301874Y522689D01*
X301800Y522671D01*
X301725Y522661D01*
X301561Y522612D01*
X301395Y522571D01*
X301326Y522541D01*
X301252Y522519D01*
X301099Y522443D01*
X300942Y522376D01*
X300878Y522335D01*
X300809Y522302D01*
X300670Y522203D01*
X300526Y522111D01*
X300469Y522060D01*
X300407Y522016D01*
X300286Y521896D01*
X300158Y521782D01*
X300110Y521723D01*
X300056Y521669D01*
X299955Y521531D01*
X299848Y521398D01*
X299811Y521332D01*
X299766Y521271D01*
X299689Y521118D01*
X299604Y520970D01*
X299578Y520898D01*
X299543Y520830D01*
X299492Y520667D01*
X299433Y520507D01*
X299418Y520432D01*
X299395Y520360D01*
X299383Y520255D01*
X299338Y520023D01*
X299331Y519787D01*
X299319Y519682D01*
X299319Y519141D01*
X298661Y517554D01*
X297446Y516339D01*
X295859Y515681D01*
X294141Y515681D01*
G37*
%LPD*%
%LPC*%
G36*
X349903Y633737D02*
X349903Y633737D01*
X349798Y633749D01*
X339959Y633749D01*
X339959Y637335D01*
X340132Y637981D01*
X340467Y638560D01*
X340650Y638743D01*
X340699Y638801D01*
X340755Y638854D01*
X340859Y638989D01*
X340970Y639119D01*
X341009Y639185D01*
X341055Y639245D01*
X341136Y639395D01*
X341224Y639542D01*
X341253Y639613D01*
X341289Y639680D01*
X341344Y639842D01*
X341407Y640000D01*
X341424Y640074D01*
X341449Y640147D01*
X341477Y640315D01*
X341514Y640482D01*
X341518Y640558D01*
X341531Y640633D01*
X341532Y640803D01*
X341542Y640974D01*
X341534Y641050D01*
X341534Y641126D01*
X341508Y641295D01*
X341490Y641465D01*
X341469Y641538D01*
X341457Y641614D01*
X341404Y641776D01*
X341359Y641940D01*
X341327Y642010D01*
X341303Y642082D01*
X341229Y642224D01*
X341229Y656526D01*
X341974Y657271D01*
X345386Y657271D01*
X345539Y657283D01*
X345692Y657286D01*
X345784Y657303D01*
X345878Y657311D01*
X346026Y657347D01*
X346177Y657375D01*
X346266Y657407D01*
X346357Y657429D01*
X346497Y657490D01*
X346641Y657541D01*
X346724Y657587D01*
X346810Y657624D01*
X346939Y657706D01*
X347073Y657780D01*
X347147Y657838D01*
X347226Y657889D01*
X347340Y657991D01*
X347460Y658086D01*
X347524Y658155D01*
X347594Y658218D01*
X347690Y658337D01*
X347793Y658450D01*
X347845Y658528D01*
X347904Y658602D01*
X347980Y658734D01*
X348063Y658862D01*
X348090Y658929D01*
X348148Y659030D01*
X348320Y659493D01*
X348320Y659494D01*
X349134Y662394D01*
X350196Y663745D01*
X351694Y664586D01*
X353400Y664790D01*
X355054Y664326D01*
X356405Y663264D01*
X357246Y661766D01*
X357450Y660060D01*
X357447Y660049D01*
X357440Y660013D01*
X357428Y659977D01*
X357393Y659770D01*
X357353Y659565D01*
X357352Y659528D01*
X357345Y659491D01*
X357344Y659281D01*
X357338Y659072D01*
X357343Y659035D01*
X357342Y658998D01*
X357375Y658790D01*
X357402Y658583D01*
X357413Y658547D01*
X357419Y658510D01*
X357485Y658311D01*
X357545Y658111D01*
X357561Y658077D01*
X357573Y658042D01*
X357670Y657855D01*
X357762Y657668D01*
X357784Y657637D01*
X357801Y657604D01*
X357859Y657532D01*
X358048Y657265D01*
X358168Y657144D01*
X358226Y657071D01*
X358771Y656526D01*
X358771Y642242D01*
X358748Y642184D01*
X358711Y642116D01*
X358656Y641955D01*
X358593Y641796D01*
X358576Y641722D01*
X358551Y641650D01*
X358523Y641481D01*
X358486Y641315D01*
X358482Y641239D01*
X358469Y641163D01*
X358468Y640992D01*
X358458Y640822D01*
X358466Y640746D01*
X358466Y640670D01*
X358492Y640501D01*
X358510Y640332D01*
X358531Y640258D01*
X358542Y640183D01*
X358596Y640020D01*
X358641Y639856D01*
X358673Y639787D01*
X358697Y639714D01*
X358776Y639563D01*
X358847Y639407D01*
X358889Y639344D01*
X358925Y639277D01*
X358990Y639194D01*
X359122Y638998D01*
X359284Y638826D01*
X359350Y638743D01*
X359533Y638560D01*
X359868Y637981D01*
X360041Y637335D01*
X360041Y633749D01*
X350202Y633749D01*
X350126Y633743D01*
X350050Y633745D01*
X349973Y633735D01*
X349903Y633737D01*
G37*
%LPD*%
%LPC*%
G36*
X194141Y315681D02*
X194141Y315681D01*
X192554Y316339D01*
X191339Y317554D01*
X190681Y319141D01*
X190681Y326359D01*
X190997Y327122D01*
X191000Y327131D01*
X191005Y327140D01*
X191077Y327368D01*
X191149Y327592D01*
X191150Y327601D01*
X191153Y327610D01*
X191157Y327651D01*
X191222Y328079D01*
X191220Y328210D01*
X191229Y328288D01*
X191229Y337758D01*
X191252Y337816D01*
X191289Y337884D01*
X191344Y338045D01*
X191407Y338204D01*
X191424Y338278D01*
X191449Y338350D01*
X191477Y338519D01*
X191514Y338685D01*
X191518Y338761D01*
X191531Y338837D01*
X191532Y339008D01*
X191542Y339178D01*
X191534Y339254D01*
X191534Y339330D01*
X191508Y339499D01*
X191490Y339668D01*
X191469Y339742D01*
X191458Y339817D01*
X191404Y339980D01*
X191359Y340144D01*
X191327Y340213D01*
X191303Y340286D01*
X191224Y340437D01*
X191153Y340593D01*
X191111Y340656D01*
X191075Y340723D01*
X191010Y340806D01*
X190878Y341002D01*
X190716Y341174D01*
X190650Y341257D01*
X190467Y341440D01*
X190132Y342019D01*
X189959Y342665D01*
X189959Y346251D01*
X199798Y346251D01*
X199874Y346257D01*
X199950Y346255D01*
X200027Y346265D01*
X200097Y346263D01*
X200202Y346251D01*
X210041Y346251D01*
X210041Y342665D01*
X209868Y342019D01*
X209533Y341440D01*
X209350Y341257D01*
X209301Y341199D01*
X209245Y341146D01*
X209141Y341011D01*
X209030Y340881D01*
X208991Y340815D01*
X208945Y340755D01*
X208864Y340605D01*
X208776Y340458D01*
X208747Y340387D01*
X208711Y340320D01*
X208656Y340158D01*
X208593Y340000D01*
X208576Y339926D01*
X208551Y339853D01*
X208523Y339685D01*
X208486Y339518D01*
X208482Y339442D01*
X208469Y339367D01*
X208468Y339197D01*
X208458Y339026D01*
X208466Y338950D01*
X208466Y338874D01*
X208492Y338705D01*
X208510Y338535D01*
X208531Y338462D01*
X208543Y338386D01*
X208596Y338224D01*
X208641Y338060D01*
X208673Y337990D01*
X208697Y337918D01*
X208771Y337776D01*
X208771Y323474D01*
X208026Y322729D01*
X202366Y322729D01*
X202290Y322723D01*
X202214Y322725D01*
X202045Y322703D01*
X201874Y322689D01*
X201800Y322671D01*
X201725Y322661D01*
X201561Y322612D01*
X201395Y322571D01*
X201326Y322541D01*
X201252Y322519D01*
X201099Y322443D01*
X200942Y322376D01*
X200878Y322335D01*
X200809Y322302D01*
X200670Y322203D01*
X200526Y322111D01*
X200469Y322060D01*
X200407Y322016D01*
X200286Y321896D01*
X200158Y321782D01*
X200110Y321723D01*
X200056Y321669D01*
X199955Y321531D01*
X199848Y321398D01*
X199811Y321332D01*
X199766Y321271D01*
X199689Y321118D01*
X199604Y320970D01*
X199578Y320898D01*
X199543Y320830D01*
X199492Y320667D01*
X199433Y320507D01*
X199418Y320432D01*
X199395Y320360D01*
X199383Y320255D01*
X199338Y320023D01*
X199331Y319787D01*
X199319Y319682D01*
X199319Y319141D01*
X198661Y317554D01*
X197446Y316339D01*
X195859Y315681D01*
X194141Y315681D01*
G37*
%LPD*%
%LPC*%
G36*
X394141Y315681D02*
X394141Y315681D01*
X392554Y316339D01*
X391339Y317554D01*
X390681Y319141D01*
X390681Y326359D01*
X390997Y327122D01*
X391000Y327131D01*
X391005Y327140D01*
X391077Y327368D01*
X391149Y327592D01*
X391150Y327601D01*
X391153Y327610D01*
X391157Y327651D01*
X391222Y328079D01*
X391220Y328210D01*
X391229Y328288D01*
X391229Y337758D01*
X391252Y337816D01*
X391289Y337884D01*
X391344Y338045D01*
X391407Y338204D01*
X391424Y338278D01*
X391449Y338350D01*
X391477Y338519D01*
X391514Y338685D01*
X391518Y338761D01*
X391531Y338837D01*
X391532Y339008D01*
X391542Y339178D01*
X391534Y339254D01*
X391534Y339330D01*
X391508Y339499D01*
X391490Y339668D01*
X391469Y339742D01*
X391458Y339817D01*
X391404Y339980D01*
X391359Y340144D01*
X391327Y340213D01*
X391303Y340286D01*
X391224Y340437D01*
X391153Y340593D01*
X391111Y340656D01*
X391075Y340723D01*
X391010Y340806D01*
X390878Y341002D01*
X390716Y341174D01*
X390650Y341257D01*
X390467Y341440D01*
X390132Y342019D01*
X389959Y342665D01*
X389959Y346251D01*
X399798Y346251D01*
X399874Y346257D01*
X399950Y346255D01*
X400027Y346265D01*
X400097Y346263D01*
X400202Y346251D01*
X410041Y346251D01*
X410041Y342665D01*
X409868Y342019D01*
X409533Y341440D01*
X409350Y341257D01*
X409301Y341199D01*
X409245Y341146D01*
X409141Y341011D01*
X409030Y340881D01*
X408991Y340815D01*
X408945Y340755D01*
X408864Y340605D01*
X408776Y340458D01*
X408747Y340387D01*
X408711Y340320D01*
X408656Y340158D01*
X408593Y340000D01*
X408576Y339926D01*
X408551Y339853D01*
X408523Y339685D01*
X408486Y339518D01*
X408482Y339442D01*
X408469Y339367D01*
X408468Y339197D01*
X408458Y339026D01*
X408466Y338950D01*
X408466Y338874D01*
X408492Y338705D01*
X408510Y338535D01*
X408531Y338462D01*
X408543Y338386D01*
X408596Y338224D01*
X408641Y338060D01*
X408673Y337990D01*
X408697Y337918D01*
X408771Y337776D01*
X408771Y323474D01*
X408026Y322729D01*
X402366Y322729D01*
X402290Y322723D01*
X402214Y322725D01*
X402045Y322703D01*
X401874Y322689D01*
X401800Y322671D01*
X401725Y322661D01*
X401561Y322612D01*
X401395Y322571D01*
X401326Y322541D01*
X401252Y322519D01*
X401099Y322443D01*
X400942Y322376D01*
X400878Y322335D01*
X400809Y322302D01*
X400670Y322203D01*
X400526Y322111D01*
X400469Y322060D01*
X400407Y322016D01*
X400286Y321896D01*
X400158Y321782D01*
X400110Y321723D01*
X400056Y321669D01*
X399955Y321531D01*
X399848Y321398D01*
X399811Y321332D01*
X399766Y321271D01*
X399689Y321118D01*
X399604Y320970D01*
X399578Y320898D01*
X399543Y320830D01*
X399492Y320667D01*
X399433Y320507D01*
X399418Y320432D01*
X399395Y320360D01*
X399383Y320255D01*
X399338Y320023D01*
X399331Y319787D01*
X399319Y319682D01*
X399319Y319141D01*
X398661Y317554D01*
X397446Y316339D01*
X395859Y315681D01*
X394141Y315681D01*
G37*
%LPD*%
%LPC*%
G36*
X294141Y315681D02*
X294141Y315681D01*
X292554Y316339D01*
X291339Y317554D01*
X290681Y319141D01*
X290681Y326359D01*
X290997Y327122D01*
X291000Y327131D01*
X291005Y327140D01*
X291077Y327368D01*
X291149Y327592D01*
X291150Y327601D01*
X291153Y327610D01*
X291157Y327651D01*
X291222Y328079D01*
X291220Y328210D01*
X291229Y328288D01*
X291229Y337758D01*
X291252Y337816D01*
X291289Y337884D01*
X291344Y338045D01*
X291407Y338204D01*
X291424Y338278D01*
X291449Y338350D01*
X291477Y338519D01*
X291514Y338685D01*
X291518Y338761D01*
X291531Y338837D01*
X291532Y339008D01*
X291542Y339178D01*
X291534Y339254D01*
X291534Y339330D01*
X291508Y339499D01*
X291490Y339668D01*
X291469Y339742D01*
X291458Y339817D01*
X291404Y339980D01*
X291359Y340144D01*
X291327Y340213D01*
X291303Y340286D01*
X291224Y340437D01*
X291153Y340593D01*
X291111Y340656D01*
X291075Y340723D01*
X291010Y340806D01*
X290878Y341002D01*
X290716Y341174D01*
X290650Y341257D01*
X290467Y341440D01*
X290132Y342019D01*
X289959Y342665D01*
X289959Y346251D01*
X299798Y346251D01*
X299874Y346257D01*
X299950Y346255D01*
X300027Y346265D01*
X300097Y346263D01*
X300202Y346251D01*
X310041Y346251D01*
X310041Y342665D01*
X309868Y342019D01*
X309533Y341440D01*
X309350Y341257D01*
X309301Y341199D01*
X309245Y341146D01*
X309141Y341011D01*
X309030Y340881D01*
X308991Y340815D01*
X308945Y340755D01*
X308864Y340605D01*
X308776Y340458D01*
X308747Y340387D01*
X308711Y340320D01*
X308656Y340158D01*
X308593Y340000D01*
X308576Y339926D01*
X308551Y339853D01*
X308523Y339685D01*
X308486Y339518D01*
X308482Y339442D01*
X308469Y339367D01*
X308468Y339197D01*
X308458Y339026D01*
X308466Y338950D01*
X308466Y338874D01*
X308492Y338705D01*
X308510Y338535D01*
X308531Y338462D01*
X308543Y338386D01*
X308596Y338224D01*
X308641Y338060D01*
X308673Y337990D01*
X308697Y337918D01*
X308771Y337776D01*
X308771Y323474D01*
X308026Y322729D01*
X302366Y322729D01*
X302290Y322723D01*
X302214Y322725D01*
X302045Y322703D01*
X301874Y322689D01*
X301800Y322671D01*
X301725Y322661D01*
X301561Y322612D01*
X301395Y322571D01*
X301326Y322541D01*
X301252Y322519D01*
X301099Y322443D01*
X300942Y322376D01*
X300878Y322335D01*
X300809Y322302D01*
X300670Y322203D01*
X300526Y322111D01*
X300469Y322060D01*
X300407Y322016D01*
X300286Y321896D01*
X300158Y321782D01*
X300110Y321723D01*
X300056Y321669D01*
X299955Y321531D01*
X299848Y321398D01*
X299811Y321332D01*
X299766Y321271D01*
X299689Y321118D01*
X299604Y320970D01*
X299578Y320898D01*
X299543Y320830D01*
X299492Y320667D01*
X299433Y320507D01*
X299418Y320432D01*
X299395Y320360D01*
X299383Y320255D01*
X299338Y320023D01*
X299331Y319787D01*
X299319Y319682D01*
X299319Y319141D01*
X298661Y317554D01*
X297446Y316339D01*
X295859Y315681D01*
X294141Y315681D01*
G37*
%LPD*%
%LPC*%
G36*
X394141Y515681D02*
X394141Y515681D01*
X392554Y516339D01*
X391339Y517554D01*
X390681Y519141D01*
X390681Y526359D01*
X390997Y527122D01*
X391000Y527131D01*
X391005Y527140D01*
X391076Y527366D01*
X391149Y527592D01*
X391150Y527601D01*
X391153Y527610D01*
X391157Y527651D01*
X391222Y528079D01*
X391220Y528210D01*
X391229Y528288D01*
X391229Y537758D01*
X391252Y537816D01*
X391289Y537884D01*
X391344Y538045D01*
X391407Y538204D01*
X391424Y538278D01*
X391449Y538350D01*
X391477Y538519D01*
X391514Y538685D01*
X391518Y538761D01*
X391531Y538837D01*
X391532Y539008D01*
X391542Y539178D01*
X391534Y539254D01*
X391534Y539330D01*
X391508Y539499D01*
X391490Y539668D01*
X391469Y539742D01*
X391458Y539817D01*
X391404Y539980D01*
X391359Y540144D01*
X391327Y540213D01*
X391303Y540286D01*
X391224Y540437D01*
X391153Y540593D01*
X391111Y540656D01*
X391075Y540723D01*
X391010Y540806D01*
X390878Y541002D01*
X390716Y541174D01*
X390650Y541257D01*
X390467Y541440D01*
X390132Y542019D01*
X389959Y542665D01*
X389959Y546251D01*
X399798Y546251D01*
X399874Y546257D01*
X399950Y546255D01*
X400027Y546265D01*
X400097Y546263D01*
X400202Y546251D01*
X410041Y546251D01*
X410041Y542665D01*
X409868Y542019D01*
X409533Y541440D01*
X409350Y541257D01*
X409301Y541199D01*
X409245Y541146D01*
X409141Y541011D01*
X409030Y540881D01*
X408991Y540815D01*
X408945Y540755D01*
X408864Y540605D01*
X408776Y540458D01*
X408747Y540387D01*
X408711Y540320D01*
X408656Y540158D01*
X408593Y540000D01*
X408576Y539926D01*
X408551Y539853D01*
X408523Y539685D01*
X408486Y539518D01*
X408482Y539442D01*
X408469Y539367D01*
X408468Y539197D01*
X408458Y539026D01*
X408466Y538950D01*
X408466Y538874D01*
X408492Y538705D01*
X408510Y538535D01*
X408531Y538462D01*
X408543Y538386D01*
X408596Y538224D01*
X408641Y538060D01*
X408673Y537990D01*
X408697Y537918D01*
X408771Y537776D01*
X408771Y523474D01*
X408026Y522729D01*
X402366Y522729D01*
X402290Y522723D01*
X402214Y522725D01*
X402045Y522703D01*
X401874Y522689D01*
X401800Y522671D01*
X401725Y522661D01*
X401561Y522612D01*
X401395Y522571D01*
X401326Y522541D01*
X401252Y522519D01*
X401099Y522443D01*
X400942Y522376D01*
X400878Y522335D01*
X400809Y522302D01*
X400670Y522203D01*
X400526Y522111D01*
X400469Y522060D01*
X400407Y522016D01*
X400286Y521896D01*
X400158Y521782D01*
X400110Y521723D01*
X400056Y521669D01*
X399955Y521531D01*
X399848Y521398D01*
X399811Y521332D01*
X399766Y521271D01*
X399689Y521118D01*
X399604Y520970D01*
X399578Y520898D01*
X399543Y520830D01*
X399492Y520667D01*
X399433Y520507D01*
X399418Y520432D01*
X399395Y520360D01*
X399383Y520255D01*
X399338Y520023D01*
X399331Y519787D01*
X399319Y519682D01*
X399319Y519141D01*
X398661Y517554D01*
X397446Y516339D01*
X395859Y515681D01*
X394141Y515681D01*
G37*
%LPD*%
%LPC*%
G36*
X194141Y515681D02*
X194141Y515681D01*
X192554Y516339D01*
X191339Y517554D01*
X190681Y519141D01*
X190681Y526359D01*
X190997Y527122D01*
X191000Y527131D01*
X191005Y527140D01*
X191076Y527366D01*
X191149Y527592D01*
X191150Y527601D01*
X191153Y527610D01*
X191157Y527651D01*
X191222Y528079D01*
X191220Y528210D01*
X191229Y528288D01*
X191229Y537758D01*
X191252Y537816D01*
X191289Y537884D01*
X191344Y538045D01*
X191407Y538204D01*
X191424Y538278D01*
X191449Y538350D01*
X191477Y538519D01*
X191514Y538685D01*
X191518Y538761D01*
X191531Y538837D01*
X191532Y539008D01*
X191542Y539178D01*
X191534Y539254D01*
X191534Y539330D01*
X191508Y539499D01*
X191490Y539668D01*
X191469Y539742D01*
X191458Y539817D01*
X191404Y539980D01*
X191359Y540144D01*
X191327Y540213D01*
X191303Y540286D01*
X191224Y540437D01*
X191153Y540593D01*
X191111Y540656D01*
X191075Y540723D01*
X191010Y540806D01*
X190878Y541002D01*
X190716Y541174D01*
X190650Y541257D01*
X190467Y541440D01*
X190132Y542019D01*
X189959Y542665D01*
X189959Y546251D01*
X199798Y546251D01*
X199874Y546257D01*
X199950Y546255D01*
X200027Y546265D01*
X200097Y546263D01*
X200202Y546251D01*
X210041Y546251D01*
X210041Y542665D01*
X209868Y542019D01*
X209533Y541440D01*
X209350Y541257D01*
X209301Y541199D01*
X209245Y541146D01*
X209141Y541011D01*
X209030Y540881D01*
X208991Y540815D01*
X208945Y540755D01*
X208864Y540605D01*
X208776Y540458D01*
X208747Y540387D01*
X208711Y540320D01*
X208656Y540158D01*
X208593Y540000D01*
X208576Y539926D01*
X208551Y539853D01*
X208523Y539685D01*
X208486Y539518D01*
X208482Y539442D01*
X208469Y539367D01*
X208468Y539197D01*
X208458Y539026D01*
X208466Y538950D01*
X208466Y538874D01*
X208492Y538705D01*
X208510Y538535D01*
X208531Y538462D01*
X208543Y538386D01*
X208596Y538224D01*
X208641Y538060D01*
X208673Y537990D01*
X208697Y537918D01*
X208771Y537776D01*
X208771Y523474D01*
X208026Y522729D01*
X202366Y522729D01*
X202290Y522723D01*
X202214Y522725D01*
X202045Y522703D01*
X201874Y522689D01*
X201800Y522671D01*
X201725Y522661D01*
X201561Y522612D01*
X201395Y522571D01*
X201326Y522541D01*
X201252Y522519D01*
X201099Y522443D01*
X200942Y522376D01*
X200878Y522335D01*
X200809Y522302D01*
X200670Y522203D01*
X200526Y522111D01*
X200469Y522060D01*
X200407Y522016D01*
X200286Y521896D01*
X200158Y521782D01*
X200110Y521723D01*
X200056Y521669D01*
X199955Y521531D01*
X199848Y521398D01*
X199811Y521332D01*
X199766Y521271D01*
X199689Y521118D01*
X199604Y520970D01*
X199578Y520898D01*
X199543Y520830D01*
X199492Y520667D01*
X199433Y520507D01*
X199418Y520432D01*
X199395Y520360D01*
X199383Y520255D01*
X199338Y520023D01*
X199331Y519787D01*
X199319Y519682D01*
X199319Y519141D01*
X198661Y517554D01*
X197446Y516339D01*
X195859Y515681D01*
X194141Y515681D01*
G37*
%LPD*%
%LPC*%
G36*
X494141Y315681D02*
X494141Y315681D01*
X492554Y316339D01*
X491339Y317554D01*
X490681Y319141D01*
X490681Y326359D01*
X490997Y327122D01*
X491000Y327131D01*
X491005Y327140D01*
X491076Y327366D01*
X491149Y327592D01*
X491150Y327601D01*
X491153Y327610D01*
X491157Y327651D01*
X491222Y328079D01*
X491220Y328210D01*
X491229Y328288D01*
X491229Y337758D01*
X491252Y337816D01*
X491289Y337884D01*
X491344Y338045D01*
X491407Y338204D01*
X491424Y338278D01*
X491449Y338350D01*
X491477Y338519D01*
X491514Y338685D01*
X491518Y338761D01*
X491531Y338837D01*
X491532Y339008D01*
X491542Y339178D01*
X491534Y339254D01*
X491534Y339330D01*
X491508Y339499D01*
X491490Y339668D01*
X491469Y339742D01*
X491458Y339817D01*
X491404Y339980D01*
X491359Y340144D01*
X491327Y340213D01*
X491303Y340286D01*
X491224Y340437D01*
X491153Y340593D01*
X491111Y340656D01*
X491075Y340723D01*
X491010Y340806D01*
X490878Y341002D01*
X490716Y341174D01*
X490650Y341257D01*
X490467Y341440D01*
X490132Y342019D01*
X489959Y342665D01*
X489959Y346251D01*
X499798Y346251D01*
X499874Y346257D01*
X499950Y346255D01*
X500027Y346265D01*
X500097Y346263D01*
X500202Y346251D01*
X510041Y346251D01*
X510041Y342665D01*
X509868Y342019D01*
X509533Y341440D01*
X509350Y341257D01*
X509301Y341199D01*
X509245Y341146D01*
X509141Y341011D01*
X509030Y340881D01*
X508991Y340815D01*
X508945Y340755D01*
X508864Y340605D01*
X508776Y340458D01*
X508747Y340387D01*
X508711Y340320D01*
X508656Y340158D01*
X508593Y340000D01*
X508576Y339926D01*
X508551Y339853D01*
X508523Y339685D01*
X508486Y339518D01*
X508482Y339442D01*
X508469Y339367D01*
X508468Y339197D01*
X508458Y339026D01*
X508466Y338950D01*
X508466Y338874D01*
X508492Y338705D01*
X508510Y338535D01*
X508531Y338462D01*
X508543Y338386D01*
X508596Y338224D01*
X508641Y338060D01*
X508673Y337990D01*
X508697Y337918D01*
X508771Y337776D01*
X508771Y323474D01*
X508026Y322729D01*
X502366Y322729D01*
X502290Y322723D01*
X502214Y322725D01*
X502045Y322703D01*
X501874Y322689D01*
X501800Y322671D01*
X501725Y322661D01*
X501561Y322612D01*
X501395Y322571D01*
X501326Y322541D01*
X501252Y322519D01*
X501099Y322443D01*
X500942Y322376D01*
X500878Y322335D01*
X500809Y322302D01*
X500670Y322203D01*
X500526Y322111D01*
X500469Y322060D01*
X500407Y322016D01*
X500286Y321896D01*
X500158Y321782D01*
X500110Y321723D01*
X500056Y321669D01*
X499955Y321531D01*
X499848Y321398D01*
X499811Y321332D01*
X499766Y321271D01*
X499689Y321118D01*
X499604Y320970D01*
X499578Y320898D01*
X499543Y320830D01*
X499492Y320667D01*
X499433Y320507D01*
X499418Y320432D01*
X499395Y320360D01*
X499383Y320255D01*
X499338Y320023D01*
X499331Y319787D01*
X499319Y319682D01*
X499319Y319141D01*
X498661Y317554D01*
X497446Y316339D01*
X495859Y315681D01*
X494141Y315681D01*
G37*
%LPD*%
%LPC*%
G36*
X94141Y315681D02*
X94141Y315681D01*
X92554Y316339D01*
X91339Y317554D01*
X90681Y319141D01*
X90681Y326359D01*
X90997Y327122D01*
X91000Y327131D01*
X91005Y327140D01*
X91076Y327366D01*
X91149Y327592D01*
X91150Y327601D01*
X91153Y327610D01*
X91157Y327651D01*
X91222Y328079D01*
X91220Y328210D01*
X91229Y328288D01*
X91229Y337758D01*
X91253Y337817D01*
X91289Y337884D01*
X91344Y338045D01*
X91407Y338204D01*
X91424Y338278D01*
X91449Y338350D01*
X91477Y338519D01*
X91514Y338685D01*
X91518Y338762D01*
X91531Y338837D01*
X91532Y339007D01*
X91542Y339178D01*
X91534Y339254D01*
X91534Y339330D01*
X91508Y339499D01*
X91490Y339669D01*
X91469Y339742D01*
X91457Y339817D01*
X91404Y339980D01*
X91359Y340144D01*
X91327Y340214D01*
X91303Y340286D01*
X91224Y340438D01*
X91153Y340593D01*
X91111Y340656D01*
X91075Y340724D01*
X91010Y340806D01*
X90878Y341002D01*
X90716Y341174D01*
X90650Y341257D01*
X90467Y341440D01*
X90132Y342019D01*
X89959Y342665D01*
X89959Y346251D01*
X99798Y346251D01*
X99874Y346257D01*
X99950Y346255D01*
X100027Y346265D01*
X100097Y346263D01*
X100202Y346251D01*
X110041Y346251D01*
X110041Y342665D01*
X109868Y342019D01*
X109533Y341440D01*
X109350Y341257D01*
X109301Y341199D01*
X109245Y341146D01*
X109141Y341011D01*
X109030Y340881D01*
X108991Y340816D01*
X108945Y340755D01*
X108864Y340605D01*
X108776Y340458D01*
X108748Y340388D01*
X108711Y340320D01*
X108656Y340159D01*
X108593Y340000D01*
X108576Y339926D01*
X108551Y339854D01*
X108523Y339685D01*
X108486Y339519D01*
X108482Y339443D01*
X108469Y339367D01*
X108468Y339196D01*
X108458Y339026D01*
X108466Y338950D01*
X108466Y338874D01*
X108492Y338705D01*
X108510Y338535D01*
X108531Y338462D01*
X108542Y338387D01*
X108596Y338224D01*
X108641Y338060D01*
X108673Y337990D01*
X108697Y337918D01*
X108771Y337776D01*
X108771Y323474D01*
X108026Y322729D01*
X102366Y322729D01*
X102290Y322723D01*
X102214Y322725D01*
X102045Y322703D01*
X101874Y322689D01*
X101800Y322671D01*
X101725Y322661D01*
X101561Y322612D01*
X101395Y322571D01*
X101326Y322541D01*
X101252Y322519D01*
X101099Y322443D01*
X100942Y322376D01*
X100878Y322335D01*
X100809Y322302D01*
X100670Y322203D01*
X100526Y322111D01*
X100469Y322060D01*
X100407Y322016D01*
X100286Y321896D01*
X100158Y321782D01*
X100110Y321723D01*
X100056Y321669D01*
X99955Y321531D01*
X99848Y321398D01*
X99811Y321332D01*
X99766Y321271D01*
X99689Y321118D01*
X99604Y320970D01*
X99578Y320898D01*
X99543Y320830D01*
X99492Y320667D01*
X99433Y320507D01*
X99418Y320432D01*
X99395Y320360D01*
X99383Y320255D01*
X99338Y320023D01*
X99331Y319787D01*
X99319Y319682D01*
X99319Y319141D01*
X98661Y317554D01*
X97446Y316339D01*
X95859Y315681D01*
X94141Y315681D01*
G37*
%LPD*%
%LPC*%
G36*
X294141Y715681D02*
X294141Y715681D01*
X292554Y716339D01*
X291339Y717554D01*
X290681Y719141D01*
X290681Y726359D01*
X290997Y727122D01*
X291000Y727131D01*
X291005Y727140D01*
X291076Y727366D01*
X291149Y727592D01*
X291150Y727601D01*
X291153Y727610D01*
X291157Y727651D01*
X291222Y728079D01*
X291220Y728210D01*
X291229Y728288D01*
X291229Y737758D01*
X291253Y737817D01*
X291289Y737884D01*
X291344Y738045D01*
X291407Y738204D01*
X291424Y738278D01*
X291449Y738350D01*
X291477Y738519D01*
X291514Y738685D01*
X291518Y738762D01*
X291531Y738837D01*
X291532Y739007D01*
X291542Y739178D01*
X291534Y739254D01*
X291534Y739330D01*
X291508Y739499D01*
X291490Y739669D01*
X291469Y739742D01*
X291457Y739817D01*
X291404Y739980D01*
X291359Y740144D01*
X291327Y740214D01*
X291303Y740286D01*
X291224Y740438D01*
X291153Y740593D01*
X291111Y740656D01*
X291075Y740724D01*
X291010Y740806D01*
X290878Y741002D01*
X290716Y741174D01*
X290650Y741257D01*
X290467Y741440D01*
X290132Y742019D01*
X289959Y742665D01*
X289959Y746251D01*
X299798Y746251D01*
X299874Y746257D01*
X299950Y746255D01*
X300027Y746265D01*
X300097Y746263D01*
X300202Y746251D01*
X310041Y746251D01*
X310041Y742665D01*
X309868Y742019D01*
X309533Y741440D01*
X309350Y741257D01*
X309301Y741199D01*
X309245Y741146D01*
X309141Y741011D01*
X309030Y740881D01*
X308991Y740816D01*
X308945Y740755D01*
X308864Y740605D01*
X308776Y740458D01*
X308748Y740388D01*
X308711Y740320D01*
X308656Y740159D01*
X308593Y740000D01*
X308576Y739926D01*
X308551Y739854D01*
X308523Y739685D01*
X308486Y739519D01*
X308482Y739443D01*
X308469Y739367D01*
X308468Y739196D01*
X308458Y739026D01*
X308466Y738950D01*
X308466Y738874D01*
X308492Y738705D01*
X308510Y738535D01*
X308531Y738462D01*
X308542Y738387D01*
X308596Y738224D01*
X308641Y738060D01*
X308673Y737990D01*
X308697Y737918D01*
X308771Y737776D01*
X308771Y723474D01*
X308026Y722729D01*
X302366Y722729D01*
X302290Y722723D01*
X302214Y722725D01*
X302045Y722703D01*
X301874Y722689D01*
X301800Y722671D01*
X301725Y722661D01*
X301561Y722612D01*
X301395Y722571D01*
X301326Y722541D01*
X301252Y722519D01*
X301099Y722443D01*
X300942Y722376D01*
X300878Y722335D01*
X300809Y722302D01*
X300670Y722203D01*
X300526Y722111D01*
X300469Y722060D01*
X300407Y722016D01*
X300286Y721896D01*
X300158Y721782D01*
X300110Y721723D01*
X300056Y721669D01*
X299955Y721531D01*
X299848Y721398D01*
X299811Y721332D01*
X299766Y721271D01*
X299689Y721118D01*
X299604Y720970D01*
X299578Y720898D01*
X299543Y720830D01*
X299492Y720667D01*
X299433Y720507D01*
X299418Y720432D01*
X299395Y720360D01*
X299383Y720255D01*
X299338Y720023D01*
X299331Y719787D01*
X299319Y719682D01*
X299319Y719141D01*
X298661Y717554D01*
X297446Y716339D01*
X295859Y715681D01*
X294141Y715681D01*
G37*
%LPD*%
%LPC*%
G36*
X349903Y433737D02*
X349903Y433737D01*
X349798Y433749D01*
X339959Y433749D01*
X339959Y437335D01*
X340132Y437981D01*
X340467Y438560D01*
X340650Y438743D01*
X340699Y438801D01*
X340755Y438854D01*
X340859Y438989D01*
X340970Y439119D01*
X341009Y439184D01*
X341055Y439245D01*
X341136Y439395D01*
X341224Y439542D01*
X341252Y439612D01*
X341289Y439680D01*
X341344Y439841D01*
X341407Y440000D01*
X341424Y440074D01*
X341449Y440146D01*
X341477Y440315D01*
X341514Y440481D01*
X341518Y440557D01*
X341531Y440633D01*
X341532Y440804D01*
X341542Y440974D01*
X341534Y441050D01*
X341534Y441126D01*
X341508Y441295D01*
X341490Y441465D01*
X341469Y441538D01*
X341458Y441613D01*
X341404Y441776D01*
X341359Y441940D01*
X341327Y442010D01*
X341303Y442082D01*
X341229Y442224D01*
X341229Y456526D01*
X341974Y457271D01*
X347521Y457271D01*
X347575Y457275D01*
X347629Y457273D01*
X347821Y457295D01*
X348012Y457311D01*
X348065Y457324D01*
X348119Y457330D01*
X348304Y457383D01*
X348491Y457429D01*
X348541Y457451D01*
X348594Y457466D01*
X348768Y457548D01*
X348945Y457624D01*
X348991Y457653D01*
X349040Y457676D01*
X349199Y457786D01*
X349361Y457889D01*
X349401Y457925D01*
X349446Y457956D01*
X349585Y458090D01*
X349728Y458218D01*
X349763Y458260D01*
X349802Y458298D01*
X349861Y458382D01*
X350038Y458602D01*
X350136Y458774D01*
X350194Y458856D01*
X352223Y462566D01*
X353561Y463643D01*
X355210Y464126D01*
X356919Y463941D01*
X358426Y463117D01*
X359503Y461779D01*
X359986Y460130D01*
X359801Y458421D01*
X359144Y457220D01*
X359074Y457061D01*
X358995Y456906D01*
X358973Y456837D01*
X358944Y456770D01*
X358899Y456602D01*
X358847Y456436D01*
X358841Y456379D01*
X358818Y456293D01*
X358771Y455802D01*
X358773Y455776D01*
X358771Y455758D01*
X358771Y442242D01*
X358747Y442183D01*
X358711Y442116D01*
X358656Y441955D01*
X358593Y441796D01*
X358576Y441722D01*
X358551Y441650D01*
X358523Y441481D01*
X358486Y441315D01*
X358482Y441238D01*
X358469Y441163D01*
X358468Y440993D01*
X358458Y440822D01*
X358466Y440746D01*
X358466Y440670D01*
X358492Y440501D01*
X358510Y440331D01*
X358531Y440258D01*
X358543Y440183D01*
X358596Y440020D01*
X358641Y439856D01*
X358673Y439786D01*
X358697Y439714D01*
X358776Y439562D01*
X358847Y439407D01*
X358889Y439344D01*
X358925Y439276D01*
X358990Y439194D01*
X359122Y438998D01*
X359259Y438852D01*
X359264Y438846D01*
X359286Y438823D01*
X359350Y438743D01*
X359533Y438560D01*
X359868Y437981D01*
X360041Y437335D01*
X360041Y433749D01*
X350202Y433749D01*
X350126Y433743D01*
X350050Y433745D01*
X349973Y433735D01*
X349903Y433737D01*
G37*
%LPD*%
%LPC*%
G36*
X149903Y433737D02*
X149903Y433737D01*
X149798Y433749D01*
X139959Y433749D01*
X139959Y437335D01*
X140132Y437981D01*
X140467Y438560D01*
X140650Y438743D01*
X140699Y438801D01*
X140755Y438854D01*
X140859Y438989D01*
X140970Y439119D01*
X141009Y439185D01*
X141055Y439245D01*
X141136Y439395D01*
X141224Y439542D01*
X141253Y439613D01*
X141289Y439680D01*
X141344Y439842D01*
X141407Y440000D01*
X141424Y440074D01*
X141449Y440147D01*
X141477Y440315D01*
X141514Y440482D01*
X141518Y440558D01*
X141531Y440633D01*
X141532Y440803D01*
X141542Y440974D01*
X141534Y441050D01*
X141534Y441126D01*
X141508Y441295D01*
X141490Y441465D01*
X141469Y441538D01*
X141457Y441614D01*
X141404Y441776D01*
X141359Y441940D01*
X141327Y442010D01*
X141303Y442082D01*
X141229Y442224D01*
X141229Y456526D01*
X141974Y457271D01*
X147040Y457271D01*
X147172Y457281D01*
X147304Y457282D01*
X147418Y457301D01*
X147532Y457311D01*
X147660Y457342D01*
X147791Y457365D01*
X147899Y457402D01*
X148011Y457429D01*
X148132Y457481D01*
X148257Y457524D01*
X148359Y457579D01*
X148464Y457624D01*
X148576Y457695D01*
X148692Y457757D01*
X148784Y457827D01*
X148880Y457889D01*
X148979Y457977D01*
X149084Y458057D01*
X149163Y458141D01*
X149248Y458218D01*
X149331Y458321D01*
X149422Y458417D01*
X149467Y458488D01*
X149558Y458602D01*
X149749Y458937D01*
X149785Y458994D01*
X151423Y462390D01*
X152705Y463534D01*
X154327Y464101D01*
X156043Y464003D01*
X157590Y463257D01*
X158734Y461975D01*
X159301Y460353D01*
X159203Y458637D01*
X159073Y458369D01*
X159039Y458279D01*
X158995Y458193D01*
X158950Y458049D01*
X158896Y457908D01*
X158876Y457814D01*
X158847Y457722D01*
X158836Y457622D01*
X158795Y457426D01*
X158782Y457147D01*
X158771Y457045D01*
X158771Y442242D01*
X158748Y442184D01*
X158711Y442116D01*
X158656Y441955D01*
X158593Y441796D01*
X158576Y441722D01*
X158551Y441650D01*
X158523Y441481D01*
X158486Y441315D01*
X158482Y441239D01*
X158469Y441163D01*
X158468Y440992D01*
X158458Y440822D01*
X158466Y440746D01*
X158466Y440670D01*
X158492Y440501D01*
X158510Y440332D01*
X158531Y440258D01*
X158542Y440183D01*
X158596Y440020D01*
X158641Y439856D01*
X158673Y439787D01*
X158697Y439714D01*
X158776Y439563D01*
X158847Y439407D01*
X158889Y439344D01*
X158925Y439277D01*
X158990Y439194D01*
X159122Y438998D01*
X159259Y438852D01*
X159264Y438846D01*
X159287Y438823D01*
X159350Y438743D01*
X159533Y438560D01*
X159868Y437981D01*
X160041Y437335D01*
X160041Y433749D01*
X150202Y433749D01*
X150126Y433743D01*
X150050Y433745D01*
X149973Y433735D01*
X149903Y433737D01*
G37*
%LPD*%
%LPC*%
G36*
X449903Y433737D02*
X449903Y433737D01*
X449798Y433749D01*
X439959Y433749D01*
X439959Y437335D01*
X440132Y437981D01*
X440467Y438560D01*
X440650Y438743D01*
X440699Y438801D01*
X440755Y438854D01*
X440859Y438989D01*
X440970Y439119D01*
X441009Y439185D01*
X441055Y439245D01*
X441136Y439395D01*
X441224Y439542D01*
X441253Y439613D01*
X441289Y439680D01*
X441344Y439842D01*
X441407Y440000D01*
X441424Y440074D01*
X441449Y440147D01*
X441477Y440315D01*
X441514Y440482D01*
X441518Y440558D01*
X441531Y440633D01*
X441532Y440803D01*
X441542Y440974D01*
X441534Y441050D01*
X441534Y441126D01*
X441508Y441295D01*
X441490Y441465D01*
X441469Y441538D01*
X441457Y441614D01*
X441404Y441776D01*
X441359Y441940D01*
X441327Y442010D01*
X441303Y442082D01*
X441229Y442224D01*
X441229Y456526D01*
X441974Y457271D01*
X446830Y457271D01*
X446996Y457284D01*
X447162Y457289D01*
X447241Y457304D01*
X447322Y457311D01*
X447483Y457351D01*
X447646Y457382D01*
X447722Y457410D01*
X447801Y457429D01*
X447953Y457495D01*
X448109Y457552D01*
X448180Y457592D01*
X448254Y457624D01*
X448394Y457713D01*
X448539Y457795D01*
X448602Y457846D01*
X448670Y457889D01*
X448794Y458000D01*
X448924Y458104D01*
X448978Y458164D01*
X449038Y458218D01*
X449142Y458347D01*
X449254Y458471D01*
X449286Y458525D01*
X449348Y458602D01*
X449592Y459030D01*
X449598Y459046D01*
X449604Y459056D01*
X451085Y462311D01*
X452341Y463483D01*
X453950Y464086D01*
X455667Y464027D01*
X457231Y463315D01*
X458403Y462059D01*
X459006Y460450D01*
X458945Y458673D01*
X458940Y458658D01*
X458877Y458484D01*
X458866Y458423D01*
X458847Y458363D01*
X458835Y458259D01*
X458787Y457999D01*
X458782Y457788D01*
X458771Y457686D01*
X458771Y442242D01*
X458748Y442184D01*
X458711Y442116D01*
X458656Y441955D01*
X458593Y441796D01*
X458576Y441722D01*
X458551Y441650D01*
X458523Y441481D01*
X458486Y441315D01*
X458482Y441239D01*
X458469Y441163D01*
X458468Y440992D01*
X458458Y440822D01*
X458466Y440746D01*
X458466Y440670D01*
X458492Y440501D01*
X458510Y440332D01*
X458531Y440258D01*
X458542Y440183D01*
X458596Y440020D01*
X458641Y439856D01*
X458673Y439787D01*
X458697Y439714D01*
X458776Y439563D01*
X458847Y439407D01*
X458889Y439344D01*
X458925Y439277D01*
X458990Y439194D01*
X459122Y438998D01*
X459259Y438852D01*
X459264Y438846D01*
X459287Y438823D01*
X459350Y438743D01*
X459533Y438560D01*
X459868Y437981D01*
X460041Y437335D01*
X460041Y433749D01*
X450202Y433749D01*
X450126Y433743D01*
X450050Y433745D01*
X449973Y433735D01*
X449903Y433737D01*
G37*
%LPD*%
%LPC*%
G36*
X249903Y433737D02*
X249903Y433737D01*
X249798Y433749D01*
X239959Y433749D01*
X239959Y437335D01*
X240132Y437981D01*
X240467Y438560D01*
X240650Y438743D01*
X240699Y438801D01*
X240755Y438854D01*
X240859Y438989D01*
X240970Y439119D01*
X241009Y439185D01*
X241055Y439245D01*
X241136Y439395D01*
X241224Y439542D01*
X241253Y439613D01*
X241289Y439680D01*
X241344Y439842D01*
X241407Y440000D01*
X241424Y440074D01*
X241449Y440147D01*
X241477Y440315D01*
X241514Y440482D01*
X241518Y440558D01*
X241531Y440633D01*
X241532Y440803D01*
X241542Y440974D01*
X241534Y441050D01*
X241534Y441126D01*
X241508Y441295D01*
X241490Y441465D01*
X241469Y441538D01*
X241457Y441614D01*
X241404Y441776D01*
X241359Y441940D01*
X241327Y442010D01*
X241303Y442082D01*
X241229Y442224D01*
X241229Y456526D01*
X241974Y457271D01*
X246318Y457271D01*
X246320Y457271D01*
X246323Y457271D01*
X246573Y457291D01*
X246809Y457311D01*
X246812Y457311D01*
X246815Y457311D01*
X247061Y457373D01*
X247288Y457429D01*
X247291Y457430D01*
X247293Y457431D01*
X247520Y457529D01*
X247742Y457624D01*
X247744Y457625D01*
X247746Y457626D01*
X247951Y457757D01*
X248158Y457889D01*
X248160Y457891D01*
X248162Y457892D01*
X248346Y458057D01*
X248526Y458218D01*
X248527Y458220D01*
X248529Y458221D01*
X248683Y458413D01*
X248836Y458602D01*
X248837Y458604D01*
X248838Y458606D01*
X248844Y458617D01*
X249080Y459030D01*
X249122Y459144D01*
X249156Y459209D01*
X250290Y462112D01*
X251480Y463351D01*
X253053Y464040D01*
X254771Y464075D01*
X256372Y463450D01*
X257611Y462260D01*
X258300Y460687D01*
X258339Y458789D01*
X258330Y458722D01*
X258299Y458537D01*
X258298Y458478D01*
X258291Y458419D01*
X258297Y458231D01*
X258296Y458044D01*
X258305Y457986D01*
X258307Y457926D01*
X258343Y457742D01*
X258372Y457557D01*
X258391Y457500D01*
X258402Y457442D01*
X258468Y457267D01*
X258527Y457088D01*
X258554Y457035D01*
X258575Y456980D01*
X258668Y456817D01*
X258755Y456650D01*
X258771Y456630D01*
X258771Y442242D01*
X258748Y442184D01*
X258711Y442116D01*
X258656Y441955D01*
X258593Y441796D01*
X258576Y441722D01*
X258551Y441650D01*
X258523Y441481D01*
X258486Y441315D01*
X258482Y441239D01*
X258469Y441163D01*
X258468Y440992D01*
X258458Y440822D01*
X258466Y440746D01*
X258466Y440670D01*
X258492Y440501D01*
X258510Y440332D01*
X258531Y440258D01*
X258542Y440183D01*
X258596Y440020D01*
X258641Y439856D01*
X258673Y439787D01*
X258697Y439714D01*
X258776Y439563D01*
X258847Y439407D01*
X258889Y439344D01*
X258925Y439277D01*
X258990Y439194D01*
X259122Y438998D01*
X259259Y438852D01*
X259264Y438846D01*
X259287Y438823D01*
X259350Y438743D01*
X259533Y438560D01*
X259868Y437981D01*
X260041Y437335D01*
X260041Y433749D01*
X250202Y433749D01*
X250126Y433743D01*
X250050Y433745D01*
X249973Y433735D01*
X249903Y433737D01*
G37*
%LPD*%
%LPC*%
G36*
X208691Y225061D02*
X208691Y225061D01*
X207104Y225719D01*
X205889Y226934D01*
X205231Y228521D01*
X205231Y265189D01*
X205889Y266776D01*
X210664Y271551D01*
X212251Y272209D01*
X213969Y272209D01*
X215556Y271551D01*
X216771Y270336D01*
X217429Y268749D01*
X217429Y267031D01*
X216771Y265444D01*
X214761Y263434D01*
X214687Y263347D01*
X214606Y263266D01*
X214528Y263159D01*
X214442Y263058D01*
X214383Y262960D01*
X214316Y262868D01*
X214256Y262749D01*
X214187Y262635D01*
X214145Y262529D01*
X214093Y262427D01*
X214053Y262300D01*
X214004Y262177D01*
X213979Y262066D01*
X213945Y261957D01*
X213935Y261863D01*
X213897Y261695D01*
X213879Y261371D01*
X213869Y261279D01*
X213869Y228521D01*
X213211Y226934D01*
X211996Y225719D01*
X210409Y225061D01*
X208691Y225061D01*
G37*
%LPD*%
%LPC*%
G36*
X290341Y844364D02*
X290341Y844364D01*
X289197Y845129D01*
X288557Y845769D01*
X288499Y845818D01*
X288446Y845874D01*
X288311Y845978D01*
X288181Y846088D01*
X288115Y846128D01*
X288055Y846174D01*
X287905Y846255D01*
X287758Y846343D01*
X287687Y846371D01*
X287620Y846407D01*
X287459Y846463D01*
X287300Y846526D01*
X287226Y846543D01*
X287154Y846567D01*
X286986Y846596D01*
X286819Y846633D01*
X286742Y846637D01*
X286667Y846650D01*
X286497Y846651D01*
X286326Y846661D01*
X286250Y846652D01*
X286174Y846653D01*
X286006Y846626D01*
X285835Y846608D01*
X285762Y846588D01*
X285686Y846576D01*
X285524Y846523D01*
X285360Y846478D01*
X285291Y846446D01*
X285218Y846422D01*
X285066Y846343D01*
X284911Y846272D01*
X284848Y846229D01*
X284780Y846194D01*
X284698Y846129D01*
X284502Y845997D01*
X284329Y845835D01*
X284247Y845769D01*
X284188Y845709D01*
X282087Y844839D01*
X279813Y844839D01*
X277712Y845709D01*
X276104Y847317D01*
X275234Y849418D01*
X275234Y860582D01*
X276104Y862683D01*
X277712Y864291D01*
X279813Y865161D01*
X282087Y865161D01*
X284188Y864291D01*
X284247Y864231D01*
X284305Y864182D01*
X284357Y864126D01*
X284493Y864022D01*
X284623Y863912D01*
X284688Y863872D01*
X284749Y863826D01*
X284900Y863745D01*
X285046Y863657D01*
X285116Y863629D01*
X285184Y863593D01*
X285346Y863537D01*
X285504Y863474D01*
X285578Y863457D01*
X285650Y863433D01*
X285819Y863404D01*
X285985Y863367D01*
X286061Y863363D01*
X286137Y863350D01*
X286308Y863349D01*
X286478Y863339D01*
X286554Y863347D01*
X286630Y863347D01*
X286799Y863374D01*
X286968Y863392D01*
X287042Y863412D01*
X287117Y863424D01*
X287280Y863477D01*
X287444Y863522D01*
X287514Y863554D01*
X287586Y863578D01*
X287737Y863657D01*
X287893Y863728D01*
X287956Y863770D01*
X288024Y863806D01*
X288106Y863872D01*
X288302Y864003D01*
X288474Y864165D01*
X288557Y864231D01*
X289197Y864871D01*
X290341Y865636D01*
X290603Y865744D01*
X290603Y855000D01*
X290603Y844256D01*
X290341Y844364D01*
G37*
%LPD*%
%LPC*%
G36*
X259752Y90499D02*
X259752Y90499D01*
X259007Y91244D01*
X259007Y102456D01*
X259752Y103201D01*
X277568Y103201D01*
X278313Y102456D01*
X278313Y91244D01*
X277568Y90499D01*
X259752Y90499D01*
G37*
%LPD*%
%LPC*%
G36*
X259752Y128599D02*
X259752Y128599D01*
X259007Y129344D01*
X259007Y140556D01*
X259752Y141301D01*
X277568Y141301D01*
X278313Y140556D01*
X278313Y129344D01*
X277568Y128599D01*
X259752Y128599D01*
G37*
%LPD*%
%LPC*%
G36*
X298581Y87674D02*
X298581Y87674D01*
X296376Y88588D01*
X294688Y90276D01*
X293774Y92481D01*
X293774Y94869D01*
X294688Y97074D01*
X296376Y98762D01*
X298581Y99676D01*
X300969Y99676D01*
X303174Y98762D01*
X304862Y97074D01*
X305776Y94869D01*
X305776Y92481D01*
X304862Y90276D01*
X303174Y88588D01*
X300969Y87674D01*
X298581Y87674D01*
G37*
%LPD*%
%LPC*%
G36*
X298581Y132124D02*
X298581Y132124D01*
X296376Y133038D01*
X294688Y134726D01*
X293774Y136931D01*
X293774Y139319D01*
X294688Y141524D01*
X296376Y143212D01*
X298581Y144126D01*
X300969Y144126D01*
X303174Y143212D01*
X304862Y141524D01*
X305776Y139319D01*
X305776Y136931D01*
X304862Y134726D01*
X303174Y133038D01*
X300969Y132124D01*
X298581Y132124D01*
G37*
%LPD*%
%LPC*%
G36*
X303249Y752749D02*
X303249Y752749D01*
X303249Y758541D01*
X307835Y758541D01*
X308481Y758368D01*
X309060Y758033D01*
X309533Y757560D01*
X309868Y756981D01*
X310041Y756335D01*
X310041Y752749D01*
X303249Y752749D01*
G37*
%LPD*%
%LPC*%
G36*
X203249Y552749D02*
X203249Y552749D01*
X203249Y558541D01*
X207835Y558541D01*
X208481Y558368D01*
X209060Y558033D01*
X209533Y557560D01*
X209868Y556981D01*
X210041Y556335D01*
X210041Y552749D01*
X203249Y552749D01*
G37*
%LPD*%
%LPC*%
G36*
X403249Y552749D02*
X403249Y552749D01*
X403249Y558541D01*
X407835Y558541D01*
X408481Y558368D01*
X409060Y558033D01*
X409533Y557560D01*
X409868Y556981D01*
X410041Y556335D01*
X410041Y552749D01*
X403249Y552749D01*
G37*
%LPD*%
%LPC*%
G36*
X303249Y552749D02*
X303249Y552749D01*
X303249Y558541D01*
X307835Y558541D01*
X308481Y558368D01*
X309060Y558033D01*
X309533Y557560D01*
X309868Y556981D01*
X310041Y556335D01*
X310041Y552749D01*
X303249Y552749D01*
G37*
%LPD*%
%LPC*%
G36*
X103249Y352749D02*
X103249Y352749D01*
X103249Y358541D01*
X107835Y358541D01*
X108481Y358368D01*
X109060Y358033D01*
X109533Y357560D01*
X109868Y356981D01*
X110041Y356335D01*
X110041Y352749D01*
X103249Y352749D01*
G37*
%LPD*%
%LPC*%
G36*
X203249Y352749D02*
X203249Y352749D01*
X203249Y358541D01*
X207835Y358541D01*
X208481Y358368D01*
X209060Y358033D01*
X209533Y357560D01*
X209868Y356981D01*
X210041Y356335D01*
X210041Y352749D01*
X203249Y352749D01*
G37*
%LPD*%
%LPC*%
G36*
X303249Y352749D02*
X303249Y352749D01*
X303249Y358541D01*
X307835Y358541D01*
X308481Y358368D01*
X309060Y358033D01*
X309533Y357560D01*
X309868Y356981D01*
X310041Y356335D01*
X310041Y352749D01*
X303249Y352749D01*
G37*
%LPD*%
%LPC*%
G36*
X503249Y352749D02*
X503249Y352749D01*
X503249Y358541D01*
X507835Y358541D01*
X508481Y358368D01*
X509060Y358033D01*
X509533Y357560D01*
X509868Y356981D01*
X510041Y356335D01*
X510041Y352749D01*
X503249Y352749D01*
G37*
%LPD*%
%LPC*%
G36*
X403249Y352749D02*
X403249Y352749D01*
X403249Y358541D01*
X407835Y358541D01*
X408481Y358368D01*
X409060Y358033D01*
X409533Y357560D01*
X409868Y356981D01*
X410041Y356335D01*
X410041Y352749D01*
X403249Y352749D01*
G37*
%LPD*%
%LPC*%
G36*
X489959Y352749D02*
X489959Y352749D01*
X489959Y356335D01*
X490132Y356981D01*
X490467Y357560D01*
X490940Y358033D01*
X491519Y358368D01*
X492165Y358541D01*
X496751Y358541D01*
X496751Y352749D01*
X489959Y352749D01*
G37*
%LPD*%
%LPC*%
G36*
X389959Y552749D02*
X389959Y552749D01*
X389959Y556335D01*
X390132Y556981D01*
X390467Y557560D01*
X390940Y558033D01*
X391519Y558368D01*
X392165Y558541D01*
X396751Y558541D01*
X396751Y552749D01*
X389959Y552749D01*
G37*
%LPD*%
%LPC*%
G36*
X389959Y352749D02*
X389959Y352749D01*
X389959Y356335D01*
X390132Y356981D01*
X390467Y357560D01*
X390940Y358033D01*
X391519Y358368D01*
X392165Y358541D01*
X396751Y358541D01*
X396751Y352749D01*
X389959Y352749D01*
G37*
%LPD*%
%LPC*%
G36*
X289959Y752749D02*
X289959Y752749D01*
X289959Y756335D01*
X290132Y756981D01*
X290467Y757560D01*
X290940Y758033D01*
X291519Y758368D01*
X292165Y758541D01*
X296751Y758541D01*
X296751Y752749D01*
X289959Y752749D01*
G37*
%LPD*%
%LPC*%
G36*
X289959Y352749D02*
X289959Y352749D01*
X289959Y356335D01*
X290132Y356981D01*
X290467Y357560D01*
X290940Y358033D01*
X291519Y358368D01*
X292165Y358541D01*
X296751Y358541D01*
X296751Y352749D01*
X289959Y352749D01*
G37*
%LPD*%
%LPC*%
G36*
X189959Y552749D02*
X189959Y552749D01*
X189959Y556335D01*
X190132Y556981D01*
X190467Y557560D01*
X190940Y558033D01*
X191519Y558368D01*
X192165Y558541D01*
X196751Y558541D01*
X196751Y552749D01*
X189959Y552749D01*
G37*
%LPD*%
%LPC*%
G36*
X189959Y352749D02*
X189959Y352749D01*
X189959Y356335D01*
X190132Y356981D01*
X190467Y357560D01*
X190940Y358033D01*
X191519Y358368D01*
X192165Y358541D01*
X196751Y358541D01*
X196751Y352749D01*
X189959Y352749D01*
G37*
%LPD*%
%LPC*%
G36*
X289959Y552749D02*
X289959Y552749D01*
X289959Y556335D01*
X290132Y556981D01*
X290467Y557560D01*
X290940Y558033D01*
X291519Y558368D01*
X292165Y558541D01*
X296751Y558541D01*
X296751Y552749D01*
X289959Y552749D01*
G37*
%LPD*%
%LPC*%
G36*
X89959Y352749D02*
X89959Y352749D01*
X89959Y356335D01*
X90132Y356981D01*
X90467Y357560D01*
X90940Y358033D01*
X91519Y358368D01*
X92165Y358541D01*
X96751Y358541D01*
X96751Y352749D01*
X89959Y352749D01*
G37*
%LPD*%
%LPC*%
G36*
X453249Y421459D02*
X453249Y421459D01*
X453249Y427251D01*
X460041Y427251D01*
X460041Y423665D01*
X459868Y423019D01*
X459533Y422440D01*
X459060Y421967D01*
X458481Y421632D01*
X457835Y421459D01*
X453249Y421459D01*
G37*
%LPD*%
%LPC*%
G36*
X253249Y621459D02*
X253249Y621459D01*
X253249Y627251D01*
X260041Y627251D01*
X260041Y623665D01*
X259868Y623019D01*
X259533Y622440D01*
X259060Y621967D01*
X258481Y621632D01*
X257835Y621459D01*
X253249Y621459D01*
G37*
%LPD*%
%LPC*%
G36*
X153249Y421459D02*
X153249Y421459D01*
X153249Y427251D01*
X160041Y427251D01*
X160041Y423665D01*
X159868Y423019D01*
X159533Y422440D01*
X159060Y421967D01*
X158481Y421632D01*
X157835Y421459D01*
X153249Y421459D01*
G37*
%LPD*%
%LPC*%
G36*
X353249Y421459D02*
X353249Y421459D01*
X353249Y427251D01*
X360041Y427251D01*
X360041Y423665D01*
X359868Y423019D01*
X359533Y422440D01*
X359060Y421967D01*
X358481Y421632D01*
X357835Y421459D01*
X353249Y421459D01*
G37*
%LPD*%
%LPC*%
G36*
X253249Y421459D02*
X253249Y421459D01*
X253249Y427251D01*
X260041Y427251D01*
X260041Y423665D01*
X259868Y423019D01*
X259533Y422440D01*
X259060Y421967D01*
X258481Y421632D01*
X257835Y421459D01*
X253249Y421459D01*
G37*
%LPD*%
%LPC*%
G36*
X353249Y621459D02*
X353249Y621459D01*
X353249Y627251D01*
X360041Y627251D01*
X360041Y623665D01*
X359868Y623019D01*
X359533Y622440D01*
X359060Y621967D01*
X358481Y621632D01*
X357835Y621459D01*
X353249Y621459D01*
G37*
%LPD*%
%LPC*%
G36*
X242165Y621459D02*
X242165Y621459D01*
X241519Y621632D01*
X240940Y621967D01*
X240467Y622440D01*
X240132Y623019D01*
X239959Y623665D01*
X239959Y627251D01*
X246751Y627251D01*
X246751Y621459D01*
X242165Y621459D01*
G37*
%LPD*%
%LPC*%
G36*
X442165Y421459D02*
X442165Y421459D01*
X441519Y421632D01*
X440940Y421967D01*
X440467Y422440D01*
X440132Y423019D01*
X439959Y423665D01*
X439959Y427251D01*
X446751Y427251D01*
X446751Y421459D01*
X442165Y421459D01*
G37*
%LPD*%
%LPC*%
G36*
X342165Y621459D02*
X342165Y621459D01*
X341519Y621632D01*
X340940Y621967D01*
X340467Y622440D01*
X340132Y623019D01*
X339959Y623665D01*
X339959Y627251D01*
X346751Y627251D01*
X346751Y621459D01*
X342165Y621459D01*
G37*
%LPD*%
%LPC*%
G36*
X142165Y421459D02*
X142165Y421459D01*
X141519Y421632D01*
X140940Y421967D01*
X140467Y422440D01*
X140132Y423019D01*
X139959Y423665D01*
X139959Y427251D01*
X146751Y427251D01*
X146751Y421459D01*
X142165Y421459D01*
G37*
%LPD*%
%LPC*%
G36*
X242165Y421459D02*
X242165Y421459D01*
X241519Y421632D01*
X240940Y421967D01*
X240467Y422440D01*
X240132Y423019D01*
X239959Y423665D01*
X239959Y427251D01*
X246751Y427251D01*
X246751Y421459D01*
X242165Y421459D01*
G37*
%LPD*%
%LPC*%
G36*
X342165Y421459D02*
X342165Y421459D01*
X341519Y421632D01*
X340940Y421967D01*
X340467Y422440D01*
X340132Y423019D01*
X339959Y423665D01*
X339959Y427251D01*
X346751Y427251D01*
X346751Y421459D01*
X342165Y421459D01*
G37*
%LPD*%
%LPC*%
G36*
X355047Y126897D02*
X355047Y126897D01*
X355047Y131391D01*
X356835Y131391D01*
X357481Y131218D01*
X358060Y130883D01*
X358533Y130410D01*
X358868Y129831D01*
X359041Y129185D01*
X359041Y126897D01*
X355047Y126897D01*
G37*
%LPD*%
D10*
X100000Y330500D03*
X100000Y349500D03*
X200000Y530500D03*
X200000Y549500D03*
X300000Y530500D03*
X300000Y549500D03*
X400000Y530500D03*
X400000Y549500D03*
X350000Y649500D03*
X350000Y630500D03*
X250000Y649500D03*
X250000Y630500D03*
X300000Y730500D03*
X300000Y749500D03*
X200000Y330500D03*
X200000Y349500D03*
X300000Y330500D03*
X300000Y349500D03*
X400000Y330500D03*
X400000Y349500D03*
X500000Y330500D03*
X500000Y349500D03*
X450000Y449500D03*
X450000Y430500D03*
X350000Y449500D03*
X350000Y430500D03*
X250000Y449500D03*
X250000Y430500D03*
X150000Y449500D03*
X150000Y430500D03*
D11*
X280950Y850555D02*
X280950Y859445D01*
X293650Y859445D02*
X293650Y850555D01*
X306350Y850555D02*
X306350Y859445D01*
X319050Y859445D02*
X319050Y850555D01*
D12*
X268660Y134950D03*
X268660Y115900D03*
X268660Y96850D03*
X330890Y134950D03*
X330890Y115900D03*
X330890Y96850D03*
D13*
X352000Y123850D03*
X352000Y106850D03*
D14*
X248450Y254190D03*
D15*
X248450Y201870D01*
X226300Y175069D01*
X226300Y113650D01*
D14*
X226300Y113650D03*
D16*
X226950Y114300D01*
X267060Y114300D02*
X268660Y115900D01*
X267060Y114300D02*
X226950Y114300D01*
X268660Y115900D02*
X330890Y115900D01*
D14*
X209550Y229380D03*
D15*
X209550Y264330D01*
X213110Y267890D01*
D14*
X213110Y267890D03*
X95000Y320000D03*
D15*
X95000Y325500D02*
X100000Y330500D01*
X95000Y325500D02*
X95000Y320000D01*
D14*
X195000Y320000D03*
D15*
X195000Y325500D02*
X200000Y330500D01*
X195000Y325500D02*
X195000Y320000D01*
D14*
X295000Y320000D03*
D15*
X295000Y325500D02*
X300000Y330500D01*
X295000Y325500D02*
X295000Y320000D01*
D14*
X395000Y320000D03*
D15*
X395000Y325500D02*
X400000Y330500D01*
X395000Y325500D02*
X395000Y320000D01*
D14*
X495000Y320000D03*
D15*
X495000Y325500D01*
X500000Y330500D01*
D14*
X195000Y520000D03*
D15*
X195000Y525500D02*
X200000Y530500D01*
X195000Y525500D02*
X195000Y520000D01*
D14*
X295000Y520000D03*
D15*
X295000Y530000D01*
X295500Y530500D01*
X300000Y530500D01*
D14*
X395000Y520000D03*
D15*
X395000Y525500D02*
X400000Y530500D01*
X395000Y525500D02*
X395000Y520000D01*
D14*
X295000Y720000D03*
D15*
X295000Y725500D01*
X300000Y730500D01*
D14*
X154940Y459740D03*
D15*
X150000Y449500D01*
D14*
X254000Y459740D03*
D15*
X250000Y449500D01*
D14*
X355600Y459740D03*
D15*
X350000Y449500D01*
D14*
X454660Y459740D03*
D15*
X450000Y449500D01*
D14*
X251460Y660400D03*
D15*
X250000Y649500D01*
D14*
X353060Y660400D03*
D15*
X350000Y649500D01*
D14*
X226730Y63140D03*
X345400Y278240D03*
X300000Y390000D03*
X300000Y473650D03*
X300000Y590000D03*
X300000Y660000D03*
X230160Y662380D03*
X265400Y245540D03*
X45000Y300000D03*
D16*
X330890Y96850D02*
X349250Y96850D01*
X360350Y96850D01*
X368300Y88900D01*
X368300Y63500D01*
D14*
X368300Y63500D03*
D16*
X349250Y96850D02*
X352000Y99600D01*
X352000Y106850D01*
M02*
