G04 EAGLE Gerber RS-274X export*
G75*
%MOMM*%
%FSLAX34Y34*%
%LPD*%
%INSolderpaste Bottom*%
%IPPOS*%
%AMOC8*
5,1,8,0,0,1.08239X$1,22.5*%
G01*
%ADD10R,1.500000X1.300000*%
%ADD11R,1.000000X0.900000*%
%ADD12R,1.676400X1.016000*%
%ADD13R,0.900000X1.000000*%


D10*
X100000Y330500D03*
X100000Y349500D03*
X200000Y530500D03*
X200000Y549500D03*
X300000Y530500D03*
X300000Y549500D03*
X400000Y530500D03*
X400000Y549500D03*
X350000Y649500D03*
X350000Y630500D03*
X250000Y649500D03*
X250000Y630500D03*
X300000Y730500D03*
X300000Y749500D03*
X200000Y330500D03*
X200000Y349500D03*
X300000Y330500D03*
X300000Y349500D03*
X400000Y330500D03*
X400000Y349500D03*
X500000Y330500D03*
X500000Y349500D03*
X450000Y449500D03*
X450000Y430500D03*
X350000Y449500D03*
X350000Y430500D03*
X250000Y449500D03*
X250000Y430500D03*
X150000Y449500D03*
X150000Y430500D03*
D11*
X314400Y875800D03*
X297400Y875800D03*
D12*
X268660Y134950D03*
X268660Y115900D03*
X268660Y96850D03*
X330890Y134950D03*
X330890Y115900D03*
X330890Y96850D03*
D13*
X352000Y123850D03*
X352000Y106850D03*
M02*
